SplineFontDB: 3.2
FontName: Monofoki-Bold
FullName: Monofoki Bold
FamilyName: Monofoki
Weight: Bold
Copyright: Modifications:\nCopyright (c) 2020-2021, Marvin Dostal\n\nOriginal author:\nCopyright (c) 2013-2021, Matthias Tellen matthias.tellen@googlemail.com\n\nLicensed under SIL OPEN FONT LICENSE Version 1.1 - 26 February 2007\nhttps://scripts.sil.org/OFL
Version: 2.0
ItalicAngle: 0
UnderlinePosition: 0
UnderlineWidth: 0
Ascent: 819
Descent: 205
InvalidEm: 1
UFOAscent: 750
UFODescent: -250
LayerCount: 2
Layer: 0 0 "Back" 1
Layer: 1 0 "Fore" 0
FSType: 0
OS2Version: 3
OS2_WeightWidthSlopeOnly: 0
OS2_UseTypoMetrics: 0
CreationTime: 1593379938
ModificationTime: 315532800
PfmFamily: 17
TTFWeight: 700
TTFWidth: 5
LineGap: 0
VLineGap: 0
OS2TypoAscent: 750
OS2TypoAOffset: 0
OS2TypoDescent: -250
OS2TypoDOffset: 0
OS2TypoLinegap: 229
OS2WinAscent: 900
OS2WinAOffset: 0
OS2WinDescent: 250
OS2WinDOffset: 0
HheadAscent: 900
HheadAOffset: 0
HheadDescent: -250
HheadDOffset: 0
OS2CapHeight: 700
OS2XHeight: 500
OS2Vendor: 'PfEd'
Lookup: 260 0 0 "'mark' Mark Positioning lookup 0" { "'mark' Mark Positioning lookup 0-1"  } ['mark' ('DFLT' <'dflt' > 'cyrl' <'dflt' > 'grek' <'dflt' > 'latn' <'dflt' > 'mong' <'dflt' > ) ]
MarkAttachClasses: 1
DEI: 91125
LangName: 1033
Encoding: UnicodeBmp
UnicodeInterp: none
NameList: Adobe Glyph List
DisplaySize: -48
AntiAlias: 1
FitToEm: 0
WinInfo: 0 31 12
BeginPrivate: 3
BlueValues 31 [-15 0 500 516 700 716 750 766]
StemSnapH 4 [97]
StemSnapV 5 [105]
EndPrivate
Grid
-650 272 m 25
 1300 272 l 1049
-651 349 m 1
 1300 349 l 1049
EndSplineSet
TeXData: 1 0 0 588800 294400 196266 512000 1048576 196266 783286 444596 497025 792723 393216 433062 380633 303038 157286 324010 404750 52429 2506097 1059062 262144

StartChar: A
Encoding: 65 65 0
GlifName: A_
Width: 575
VWidth: 0
Flags: W
AnchorPoint: "mark-ogonek" 527 0 basechar 0
AnchorPoint: "mark-bottom" 288 0 basechar 0
AnchorPoint: "mark-top" 288 700 basechar 0
LayerCount: 2
Fore
SplineSet
568.73473629 39.3517950039 m 0
 569.561910787 35.9334335208 570.009457699 32.5752708859 570.009457699 29.2598044885 c 0
 570.009457699 20.2027199561 566.312881459 11.5373565361 558.582960331 6.12747304203 c 0
 552.571082435 1.80043133919 545.123960589 0 537 0 c 2
 502 0 l 2
 480.824752745 0 468.85559435 11.9043687555 464.303500313 28.20432156 c 2
 416.209405487 210 l 1
 159.790594513 210 l 1
 111.663480659 28.0829033632 l 2
 107.155139201 11.9450901906 95.1174242004 0 74 0 c 2
 39 0 l 2
 30.8760394109 0 23.4289175655 1.80043133919 17.4170396687 6.12747304203 c 0
 9.68711854111 11.5373565361 5.99054230104 20.2027199561 5.99054230104 29.2598044885 c 0
 5.99054230104 32.5752708859 6.38985946907 35.9448085543 7.2968037054 39.4783029049 c 2
 155.317554666 616.17361265 l 2
 171.589406632 677.353072645 225.436811698 710 288 710 c 0
 350.467871232 710 405.453958243 677.52413298 420.703196295 616.094202724 c 2
 420.703196295 616.094202724 568.703196295 39.4783029049 568.73473629 39.3517950039 c 0
317.234241218 595.426514731 m 2
 314.613168142 606.850437004 302.150332917 614 288 614 c 0
 273.849667083 614 261.70507344 606.777549744 258.765758782 595.426514731 c 2
 183.819677108 306 l 1
 392.180322892 306 l 1
 317.234241218 595.426514731 l 2
EndSplineSet
PickledDataWithLists: "(dp0
Vcom.schriftgestaltung.Glyphs.lastChange\\u000d\\u000d\\u000d
p1
V2016-06-09 18:44:34 +0000\\u000d\\u000d\\u000d
p2
s."
EndChar

StartChar: A.hex
Encoding: 65537 -1 1
GlifName: A_.hex
Width: 575
VWidth: 0
Flags: W
AnchorPoint: "ogonek" 517 10 basechar 0
AnchorPoint: "top" 288 700 basechar 0
LayerCount: 2
Fore
SplineSet
112.299505596 892.614380323 m 0
 120.429383125 886.024900642 124 875.92286565 124 865 c 2
 124 819 l 2
 124 807.680679758 120.49077603 797.434582054 112.147103874 790.935300585 c 0
 105.638298075 785.865283436 97.5384556952 784 89 784 c 2
 54 784 l 2
 42.6806797579 784 32.4345820537 787.50922397 25.9353005852 795.852896126 c 0
 20.8652834364 802.361701925 19 810.461544305 19 819 c 2
 19 865 l 2
 19 875.92286565 22.5706168755 886.024900642 30.700494404 892.614380323 c 0
 37.0967468189 897.798711228 45.2466187476 900 54 900 c 2
 89 900 l 2
 97.7533812524 900 105.903253181 897.798711228 112.299505596 892.614380323 c 0
404.614380323 888.299505596 m 0
 409.798711228 881.903253181 412 873.753381252 412 865 c 2
 412 819 l 2
 412 807.680679758 408.49077603 797.434582054 400.147103874 790.935300585 c 0
 393.638298075 785.865283436 385.538455695 784 377 784 c 2
 342 784 l 2
 330.680679758 784 320.434582054 787.50922397 313.935300585 795.852896126 c 0
 308.865283436 802.361701925 307 810.461544305 307 819 c 2
 307 865 l 2
 307 873.753381252 309.201288772 881.903253181 314.385619677 888.299505596 c 0
 320.975099358 896.429383125 331.07713435 900 342 900 c 2
 377 900 l 2
 387.92286565 900 398.024900642 896.429383125 404.614380323 888.299505596 c 0
111.753700532 19.7738998342 m 2
 108.136306639 2.18735431137 94.9719252401 -10 74 -10 c 2
 39 -10 l 2
 30.8760394109 -10 23.4289175655 -8.19956866081 17.4170396687 -3.87252695797 c 0
 9.68711854111 1.69107424175 5.99054230104 10.6026573418 5.99054230104 19.9170920104 c 0
 5.99054230104 23.326764852 6.38985946907 26.7920453584 7.2968037054 30.4259412509 c 2
 155.317554666 623.50760755 l 2
 171.589406632 686.425435151 225.436811698 720 288 720 c 0
 350.53378791 720 404.478599583 686.499270483 419.703196295 623.425941251 c 2
 567.656105623 30.6146221156 l 2
 568.776243109 26.744785792 569.375577146 22.9317716776 569.375577146 19.1696227449 c 0
 569.375577146 0.990785640356 554.619945701 -10 537 -10 c 2
 501 -10 l 2
 479.79755175 -10 467.859409735 2.45490630162 463.292062568 19.5931357528 c 2
 416.171171921 210 l 1
 159.790594513 210 l 1
 111.753700532 19.7738998342 l 2
317.234241218 604.823479495 m 2
 314.613168142 616.618308335 302.150332917 624 288 624 c 0
 273.849667083 624 261.70507344 616.543054606 258.765758782 604.823479495 c 2
 183.819677108 306 l 1
 392.180322892 306 l 1
 317.234241218 604.823479495 l 2
EndSplineSet
Validated: 33
PickledDataWithLists: "(dp0
Vcom.schriftgestaltung.Glyphs.lastChange\\u000d\\u000d\\u000d
p1
V2016-06-09 18:35:33 +0000\\u000d\\u000d\\u000d
p2
s."
EndChar

StartChar: AE
Encoding: 198 198 2
GlifName: A_E_
Width: 575
VWidth: 0
GlyphClass: 2
Flags: W
AnchorPoint: "mark-top" 288 700 basechar 0
LayerCount: 2
Fore
SplineSet
475 316 m 2
 383 316 l 1
 383 97 l 1
 493 97 l 2
 504.319320242 97 514.565417946 93.4907760298 521.064699415 85.1471038742 c 0
 526.134716564 78.638298075 528 70.5384556952 528 62 c 2
 528 35 l 2
 528 26.4615443048 526.134716564 18.361701925 521.064699415 11.8528961258 c 0
 514.565417946 3.50922397025 504.319320242 0 493 0 c 2
 313 0 l 2
 302.07713435 0 291.975099358 3.36058058868 285.385619677 11.0122300273 c 0
 280.201288772 17.0322323002 278 24.7026999977 278 32.9411764706 c 2
 278 160 l 1
 146.809682413 160 l 1
 111.756212627 28.0339961015 l 2
 108.142191548 11.4755323062 94.9765495907 -3.5527136788e-15 74 0 c 2
 39 0 l 2
 30.8760394109 0 23.4289175655 1.80043133919 17.4170396687 6.12747304203 c 0
 9.68711854111 11.5352032427 5.99054230104 20.197117592 5.99054230104 29.2505971371 c 0
 5.99054230104 32.5647438809 6.38985946907 35.9329403737 7.2968037054 39.4650282891 c 2
 155.317554666 615.930796262 l 2
 170.751165644 673.935512622 215.15576345 700 288 700 c 2
 482 700 l 2
 490.538455695 700 498.638298075 698.134716564 505.147103874 693.064699415 c 0
 513.49077603 686.565417946 517 676.319320242 517 665 c 2
 517 639 l 2
 517 627.680679758 513.49077603 617.434582054 505.147103874 610.935300585 c 0
 498.638298075 605.865283436 490.538455695 604 482 604 c 2
 383 604 l 1
 383 413 l 1
 475 413 l 2
 485.92286565 413 496.024900642 409.429383125 502.614380323 401.299505596 c 0
 507.798711228 394.903253181 510 386.753381252 510 378 c 2
 510 351 l 2
 510 342.246618748 507.798711228 334.096746819 502.614380323 327.700494404 c 0
 496.024900642 319.570616875 485.92286565 316 475 316 c 2
170.835525556 256 m 1
 278 256 l 1
 278 623.046342458 l 1
 266.90770349 620.695729515 261.101053676 614.086325841 258.697521185 604.55143321 c 2
 170.835525556 256 l 1
EndSplineSet
PickledDataWithLists: "(dp0
Vcom.schriftgestaltung.Glyphs.lastChange\\u000d\\u000d\\u000d
p1
V2016-06-09 18:35:33 +0000\\u000d\\u000d\\u000d
p2
s."
EndChar

StartChar: B
Encoding: 66 66 13
GlifName: B_
Width: 575
VWidth: 0
Flags: W
AnchorPoint: "mark-top" 288 700 basechar 0
AnchorPoint: "mark-bottom" 288 0 basechar 0
LayerCount: 2
Fore
SplineSet
404.131800509 371.159033468 m 1
 477.721614004 338.233046505 523 271.747199723 523 200.277777778 c 0
 523 96.6296602787 428.044903808 0 264 0 c 2
 127 0 l 2
 118.246618748 0 110.096746819 2.20128877189 103.700494404 7.38561967664 c 0
 95.5706168755 13.7613683812 92 23.5357420243 92 34.1043225327 c 2
 92 604 l 1
 64 604 l 2
 55.2466187476 604 47.0967468189 606.201288772 40.700494404 611.385619677 c 0
 32.5706168755 617.975099358 29 628.07713435 29 639 c 2
 29 665 l 2
 29 675.92286565 32.5706168755 686.024900642 40.700494404 692.614380323 c 0
 47.0967468189 697.798711228 55.2466187476 700 64 700 c 2
 244 700 l 2
 410.438371773 700 483 604.654222255 483 516.25 c 0
 483 454.201661534 447.652358957 400.643904764 404.131800509 371.159033468 c 1
197 604 m 1
 197 413 l 1
 244 413 l 2
 341.161603532 413 388 457.195250738 388 506.124378109 c 0
 388 550.439143675 350.017307488 604 244 604 c 2
 197 604 l 1
264 316 m 2
 197 316 l 1
 197 97 l 1
 264 97 l 2
 376.572903027 97 427 153.493440233 427 206.021834061 c 0
 427 258.615820309 376.477287283 316 264 316 c 2
EndSplineSet
PickledDataWithLists: "(dp0
Vcom.schriftgestaltung.Glyphs.lastChange\\u000d\\u000d\\u000d
p1
V2016-06-09 18:35:33 +0000\\u000d\\u000d\\u000d
p2
s."
EndChar

StartChar: B.hex
Encoding: 65538 -1 14
GlifName: B_.hex
Width: 575
VWidth: 0
Flags: W
LayerCount: 2
Fore
SplineSet
112.299505596 892.614380323 m 0
 120.429383125 886.024900642 124 875.92286565 124 865 c 2
 124 819 l 2
 124 807.680679758 120.49077603 797.434582054 112.147103874 790.935300585 c 0
 105.638298075 785.865283436 97.5384556952 784 89 784 c 2
 54 784 l 2
 42.6806797579 784 32.4345820537 787.50922397 25.9353005852 795.852896126 c 0
 20.8652834364 802.361701925 19 810.461544305 19 819 c 2
 19 865 l 2
 19 875.92286565 22.5706168755 886.024900642 30.700494404 892.614380323 c 0
 37.0967468189 897.798711228 45.2466187476 900 54 900 c 2
 89 900 l 2
 97.7533812524 900 105.903253181 897.798711228 112.299505596 892.614380323 c 0
404.614380323 888.299505596 m 0
 409.798711228 881.903253181 412 873.753381252 412 865 c 2
 412 819 l 2
 412 807.680679758 408.49077603 797.434582054 400.147103874 790.935300585 c 0
 393.638298075 785.865283436 385.538455695 784 377 784 c 2
 342 784 l 2
 330.680679758 784 320.434582054 787.50922397 313.935300585 795.852896126 c 0
 308.865283436 802.361701925 307 810.461544305 307 819 c 2
 307 865 l 2
 307 873.753381252 309.201288772 881.903253181 314.385619677 888.299505596 c 0
 320.975099358 896.429383125 331.07713435 900 342 900 c 2
 377 900 l 2
 387.92286565 900 398.024900642 896.429383125 404.614380323 888.299505596 c 0
548.614380323 888.299505596 m 0
 553.798711228 881.903253181 556 873.753381252 556 865 c 2
 556 819 l 2
 556 807.680679758 552.49077603 797.434582054 544.147103874 790.935300585 c 0
 537.638298075 785.865283436 529.538455695 784 521 784 c 2
 486 784 l 2
 474.680679758 784 464.434582054 787.50922397 457.935300585 795.852896126 c 0
 452.865283436 802.361701925 451 810.461544305 451 819 c 2
 451 865 l 2
 451 873.753381252 453.201288772 881.903253181 458.385619677 888.299505596 c 0
 464.975099358 896.429383125 475.07713435 900 486 900 c 2
 521 900 l 2
 531.92286565 900 542.024900642 896.429383125 548.614380323 888.299505596 c 0
404.131800509 371.763577281 m 1
 477.721614004 337.896847834 523 269.511405429 523 196 c 0
 523 89.3905077152 428.044903808 -10 264 -10 c 2
 127 -10 l 2
 118.246618748 -10 110.096746819 -7.79871122811 103.700494404 -2.61438032336 c 0
 95.5706168755 3.97509935764 92 14.07713435 92 25 c 2
 92 614 l 1
 64 614 l 2
 52.6806797579 614 42.4345820537 617.50922397 35.9353005852 625.852896126 c 0
 30.8652834364 632.361701925 29 640.461544305 29 649 c 2
 29 675 l 2
 29 683.538455695 30.8652834364 691.638298075 35.9353005852 698.147103874 c 0
 42.4345820537 706.49077603 52.6806797579 710 64 710 c 2
 244 710 l 2
 410.438371773 710 483 611.930057176 483 521 c 0
 483 457.178851864 447.652358957 402.090873471 404.131800509 371.763577281 c 1
197 614 m 1
 197 413 l 1
 244 413 l 2
 341.161603532 413 388 459.509138211 388 511 c 0
 388 557.634910359 350.017307488 614 244 614 c 2
 197 614 l 1
264 316 m 2
 197 316 l 1
 197 87 l 1
 264 87 l 2
 376.572903027 87 427 146.073049376 427 201 c 0
 427 255.995538132 376.477287283 316 264 316 c 2
EndSplineSet
Validated: 1
PickledDataWithLists: "(dp0
Vcom.schriftgestaltung.Glyphs.lastChange\\u000d\\u000d\\u000d
p1
V2016-06-09 18:35:33 +0000\\u000d\\u000d\\u000d
p2
s."
EndChar

StartChar: C
Encoding: 67 67 16
GlifName: C_
Width: 575
VWidth: 0
Flags: W
AnchorPoint: "mark-top" 288 700 basechar 0
AnchorPoint: "mark-bottom" 288 0 basechar 0
LayerCount: 2
Fore
SplineSet
445.446188623 589.649687073 m 0
 402.256393947 605.342106525 367.424414158 611.999998834 338 612 c 0
 226.165139741 612 181 522.141687377 181 388.529411765 c 2
 181 311.470588235 l 2
 181 177.713656286 226.009821201 88 338 88 c 0
 367.424414121 88 402.256393227 94.6578920835 445.44618647 110.350312109 c 0
 450.446344666 112.333097395 455.448867897 113.475216648 460.49229045 113.475217796 c 0
 474.59206726 113.475217796 484.979745217 103.923089597 490.260993177 90.7776276658 c 2
 490.260993177 90.7776276658 500.235222386 66.8394775648 500.288869569 66.7080891091 c 0
 502.426800155 61.3632626423 503.673589889 55.9868201862 503.673589889 50.5607300001 c 0
 503.673589889 37.0422925531 495.133723979 26.1211996674 481.814294156 20.7537690187 c 0
 433.797253476 0.333777430261 386.487668605 -9.99999879316 340 -10 c 0
 285.837592595 -10 227.29475945 3.87351677382 178.831345688 41.909628758 c 0
 118.081782708 89.5884239791 75 174.011357989 75 311.081081081 c 2
 75 388.918918919 l 2
 75 525.988642011 118.081782708 610.411576021 178.831345688 658.090371242 c 0
 227.29475945 696.126483226 285.837592595 710 340 710 c 0
 386.487668076 710 433.797251896 699.666224228 481.814290975 679.246232298 c 0
 495.133723126 673.878803318 503.673589889 662.957709763 503.673589889 649.43927 c 0
 503.673589889 644.013179814 502.503864519 638.605263556 500.235222386 633.160522435 c 2
 490.260993177 609.222372334 l 2
 484.979745217 596.076910403 474.59206726 586.524782204 460.49229045 586.524782204 c 0
 455.448868189 586.524782204 450.446345656 587.666901137 445.446188623 589.649687073 c 0
EndSplineSet
EndChar

StartChar: C.hex
Encoding: 65539 -1 17
GlifName: C_.hex
Width: 575
VWidth: 0
Flags: W
AnchorPoint: "top" 288 700 basechar 0
AnchorPoint: "bottom" 328 0 basechar 0
LayerCount: 2
Fore
SplineSet
112.299505596 892.614380323 m 0
 120.429383125 886.024900642 124 875.92286565 124 865 c 2
 124 809 l 2
 124 797.680679758 120.49077603 787.434582054 112.147103874 780.935300585 c 0
 105.638298075 775.865283436 97.5384556952 774 89 774 c 2
 54 774 l 2
 42.6806797579 774 32.4345820537 777.50922397 25.9353005852 785.852896126 c 0
 20.8652834364 792.361701925 19 800.461544305 19 809 c 2
 19 865 l 2
 19 875.92286565 22.5706168755 886.024900642 30.700494404 892.614380323 c 0
 37.0967468189 897.798711228 45.2466187476 900 54 900 c 2
 89 900 l 2
 97.7533812524 900 105.903253181 897.798711228 112.299505596 892.614380323 c 0
256.299505596 892.614380323 m 0
 264.429383125 886.024900642 268 875.92286565 268 865 c 2
 268 819 l 2
 268 807.680679758 264.49077603 797.434582054 256.147103874 790.935300585 c 0
 249.638298075 785.865283436 241.538455695 784 233 784 c 2
 198 784 l 2
 186.680679758 784 176.434582054 787.50922397 169.935300585 795.852896126 c 0
 164.865283436 802.361701925 163 810.461544305 163 819 c 2
 163 865 l 2
 163 875.92286565 166.570616875 886.024900642 174.700494404 892.614380323 c 0
 181.096746819 897.798711228 189.246618748 900 198 900 c 2
 233 900 l 2
 241.753381252 900 249.903253181 897.798711228 256.299505596 892.614380323 c 0
445.446188623 609.649687073 m 0
 402.256393947 625.342106525 367.424414158 631.999998834 338 632 c 0
 226.165139741 632 181 538.711980788 181 400 c 2
 181 320 l 2
 181 181.137841641 226.009821201 88 338 88 c 0
 367.424414121 88 402.256393227 94.6578920835 445.44618647 110.350312109 c 0
 450.446344666 112.333097395 455.448867897 113.475216648 460.49229045 113.475217796 c 0
 474.59206726 113.475217796 484.979745217 103.923089597 490.260993177 90.7776276658 c 2
 490.260993177 90.7776276658 500.235222386 66.8394775648 500.288869569 66.7080891091 c 0
 502.426800155 61.3632626423 503.673589889 55.9868201862 503.673589889 50.5607300001 c 0
 503.673589889 37.0422925531 495.133723979 26.1211996674 481.814294156 20.7537690187 c 0
 433.797253476 0.333777430261 386.487668605 -9.99999879316 340 -10 c 0
 285.837592595 -10 227.29475945 4.25889223976 178.831345688 43.3515628901 c 0
 118.081782708 92.3547690897 75 179.1227846 75 320 c 2
 75 400 l 2
 75 540.8772154 118.081782708 627.64523091 178.831345688 676.64843711 c 0
 227.29475945 715.74110776 285.837592595 730 340 730 c 0
 386.487668076 730 433.797251896 719.666224228 481.814290975 699.246232298 c 0
 495.133723126 693.878803318 503.673589889 682.957709763 503.673589889 669.43927 c 0
 503.673589889 664.013179814 502.503864519 658.605263556 500.235222386 653.160522435 c 2
 490.260993177 629.222372334 l 2
 484.979745217 616.076910403 474.59206726 606.524782204 460.49229045 606.524782204 c 0
 455.448868189 606.524782204 450.446345656 607.666901137 445.446188623 609.649687073 c 0
EndSplineSet
Validated: 33
PickledDataWithLists: "(dp0
Vcom.schriftgestaltung.Glyphs.lastChange\\u000d\\u000d\\u000d
p1
V2016-06-09 18:35:33 +0000\\u000d\\u000d\\u000d
p2
s."
EndChar

StartChar: D
Encoding: 68 68 23
GlifName: D_
Width: 575
VWidth: 0
Flags: W
AnchorPoint: "mark-top" 288 700 basechar 0
AnchorPoint: "mark-bottom" 288 0 basechar 0
LayerCount: 2
Fore
SplineSet
40.700494404 692.614380323 m 0
 47.0967468189 697.798711228 55.2466187476 700 64 700 c 2
 144 700 l 2
 255.359173712 700 343.249645153 686.894145753 407.273207684 648.294930434 c 0
 487.926303005 599.669923182 526.954763237 512.026218039 526.999960698 369.692039275 c 0
 527.666640465 356.728821576 528.333320233 343.765603876 529 330.802386177 c 2
 529 330.555555556 l 2
 529 231.130841891 512.623508596 154.501028052 470.356897563 99.7184453674 c 0
 417.252884611 30.8892937194 325.641110519 1.42108547152e-14 185 0 c 2
 127 0 l 2
 118.246618748 0 110.096746819 2.20128877189 103.700494404 7.38561967664 c 0
 95.5706168755 13.7613683812 92 23.5357420243 92 34.1043225327 c 2
 92 604 l 1
 64 604 l 2
 55.2466187476 604 47.0967468189 606.201288772 40.700494404 611.385619677 c 0
 32.5706168755 617.975099358 29 628.07713435 29 639 c 2
 29 665 l 2
 29 675.92286565 32.5706168755 686.024900642 40.700494404 692.614380323 c 0
378.843662004 155.260064758 m 0
 407.813476789 193.088036436 422 249.698120865 422 330 c 2
 422 370 l 2
 422 442.72087135 409.216686068 498.655157074 380.96440435 537.991819393 c 0
 347.121767847 585.112132627 289.50556652 611.173392113 197 612.907444499 c 1
 197 87.0810901016 l 1
 286.206223442 88.54836003 344.163331447 109.975461738 378.843662004 155.260064758 c 0
EndSplineSet
PickledDataWithLists: "(dp0
Vcom.schriftgestaltung.Glyphs.lastChange\\u000d\\u000d\\u000d
p1
V2016-06-09 18:46:00 +0000\\u000d\\u000d\\u000d
p2
s."
EndChar

StartChar: D.hex
Encoding: 65540 -1 24
GlifName: D_.hex
Width: 575
VWidth: 0
Flags: W
AnchorPoint: "center" 288 350 basechar 0
AnchorPoint: "top" 288 700 basechar 0
LayerCount: 2
Fore
SplineSet
112.299505596 892.614380323 m 0
 120.429383125 886.024900642 124 875.92286565 124 865 c 2
 124 819 l 2
 124 807.680679758 120.49077603 797.434582054 112.147103874 790.935300585 c 0
 105.638298075 785.865283436 97.5384556952 784 89 784 c 2
 54 784 l 2
 42.6806797579 784 32.4345820537 787.50922397 25.9353005852 795.852896126 c 0
 20.8652834364 802.361701925 19 810.461544305 19 819 c 2
 19 865 l 2
 19 875.92286565 22.5706168755 886.024900642 30.700494404 892.614380323 c 0
 37.0967468189 897.798711228 45.2466187476 900 54 900 c 2
 89 900 l 2
 97.7533812524 900 105.903253181 897.798711228 112.299505596 892.614380323 c 0
256.299505596 892.614380323 m 0
 264.429383125 886.024900642 268 875.92286565 268 865 c 2
 268 819 l 2
 268 807.680679758 264.49077603 797.434582054 256.147103874 790.935300585 c 0
 249.638298075 785.865283436 241.538455695 784 233 784 c 2
 198 784 l 2
 186.680679758 784 176.434582054 787.50922397 169.935300585 795.852896126 c 0
 164.865283436 802.361701925 163 810.461544305 163 819 c 2
 163 865 l 2
 163 875.92286565 166.570616875 886.024900642 174.700494404 892.614380323 c 0
 181.096746819 897.798711228 189.246618748 900 198 900 c 2
 233 900 l 2
 241.753381252 900 249.903253181 897.798711228 256.299505596 892.614380323 c 0
548.614380323 888.299505596 m 0
 553.798711228 881.903253181 556 873.753381252 556 865 c 2
 556 819 l 2
 556 807.680679758 552.49077603 797.434582054 544.147103874 790.935300585 c 0
 537.638298075 785.865283436 529.538455695 784 521 784 c 2
 486 784 l 2
 474.680679758 784 464.434582054 787.50922397 457.935300585 795.852896126 c 0
 452.865283436 802.361701925 451 810.461544305 451 819 c 2
 451 865 l 2
 451 873.753381252 453.201288772 881.903253181 458.385619677 888.299505596 c 0
 464.975099358 896.429383125 475.07713435 900 486 900 c 2
 521 900 l 2
 531.92286565 900 542.024900642 896.429383125 548.614380323 888.299505596 c 0
35.9353005852 698.147103874 m 0
 42.4345820537 706.49077603 52.6806797579 710 64 710 c 2
 144 710 l 2
 255.359173712 710 343.249645153 696.519692774 407.273207684 656.817642732 c 0
 487.973058798 606.774355533 527 516.551005027 527 370 c 2
 527 330 l 2
 527 227.734580231 510.623508596 148.915343139 468.356897563 92.5675438065 c 0
 415.252884611 21.7718449685 323.641110519 -10 183 -10 c 2
 127 -10 l 2
 118.246618748 -10 110.096746819 -7.79871122811 103.700494404 -2.61438032336 c 0
 95.5706168755 3.97509935764 92 14.07713435 92 25 c 2
 92 614 l 1
 64 614 l 2
 52.6806797579 614 42.4345820537 617.50922397 35.9353005852 625.852896126 c 0
 30.8652834364 632.361701925 29 640.461544305 29 649 c 2
 29 675 l 2
 29 683.538455695 30.8652834364 691.638298075 35.9353005852 698.147103874 c 0
378.843662004 155.260064758 m 0
 407.813476789 193.088036436 422 249.698120865 422 330 c 2
 422 370 l 2
 422 442.725037389 409.225701524 497.614891582 381.008745306 536.284479393 c 0
 347.206866008 582.607857773 289.531369837 608.408056707 197 612.627864658 c 1
 197 87.0810901016 l 1
 286.206223442 88.54836003 344.163331447 109.975461738 378.843662004 155.260064758 c 0
EndSplineSet
Validated: 1
PickledDataWithLists: "(dp0
Vcom.schriftgestaltung.Glyphs.lastChange\\u000d\\u000d\\u000d
p1
V2016-06-09 18:35:33 +0000\\u000d\\u000d\\u000d
p2
s."
EndChar

StartChar: E
Encoding: 69 69 27
GlifName: E_
Width: 575
VWidth: 0
Flags: W
AnchorPoint: "mark-top" 288 700 basechar 0
AnchorPoint: "mark-ogonek" 483 0 basechar 0
AnchorPoint: "mark-bottom" 288 -0 basechar 0
LayerCount: 2
Fore
SplineSet
448 316 m 2
 180 316 l 1
 180 97 l 1
 491 97 l 2
 501.92286565 97 512.024900642 93.4293831245 518.614380323 85.299505596 c 0
 523.798711228 78.9032531811 526 70.7533812524 526 62 c 2
 526 35 l 2
 526 26.2466187476 523.798711228 18.0967468189 518.614380323 11.700494404 c 0
 512.024900642 3.57061687548 501.92286565 -1.7763568394e-15 491 0 c 2
 110 0 l 2
 101.246618748 0 93.0967468189 2.20128877189 86.700494404 7.38561967664 c 0
 78.5706168755 13.7882244016 75 23.6037698021 75 34.2168674375 c 2
 75 665.783132562 l 2
 75 676.396230198 78.5706168755 686.211775598 86.700494404 692.614380323 c 0
 93.0967468189 697.798711228 101.246618748 700 110 700 c 2
 469 700 l 2
 479.92286565 700 490.024900642 696.429383125 496.614380323 688.299505596 c 0
 501.798711228 681.903253181 504 673.753381252 504 665 c 2
 504 639 l 2
 504 630.246618748 501.798711228 622.096746819 496.614380323 615.700494404 c 0
 490.024900642 607.570616875 479.92286565 604 469 604 c 2
 180 604 l 1
 180 413 l 1
 448 413 l 2
 458.92286565 413 469.024900642 409.429383125 475.614380323 401.299505596 c 0
 480.798711228 394.903253181 483 386.753381252 483 378 c 2
 483 351 l 2
 483 342.246618748 480.798711228 334.096746819 475.614380323 327.700494404 c 0
 469.024900642 319.570616875 458.92286565 316 448 316 c 2
EndSplineSet
PickledDataWithLists: "(dp0
Vcom.schriftgestaltung.Glyphs.lastChange\\u000d\\u000d\\u000d
p1
V2016-06-09 18:35:33 +0000\\u000d\\u000d\\u000d
p2
s."
EndChar

StartChar: E.hex
Encoding: 65541 -1 28
GlifName: E_.hex
Width: 575
VWidth: 0
Flags: W
AnchorPoint: "ogonek" 518 1 basechar 0
AnchorPoint: "bottom" 288 0 basechar 0
AnchorPoint: "top" 288 700 basechar 0
LayerCount: 2
Fore
SplineSet
19.0134745117 864.469190184 m 2
 18.9589976388 865.372410067 18.9313411796 866.269361583 18.9313411796 867.160333138 c 0
 18.9313411796 877.847456411 23.2199143349 887.454793867 31.3962123987 893.393845247 c 0
 37.782854803 898.032937058 45.6446973558 900 54 900 c 2
 89 900 l 2
 99.9632191279 900 109.86914695 896.310029826 116.278464135 888.205069659 c 0
 121.26800181 881.895504544 123.615614028 874.061773411 123.990432578 865.440946748 c 2
 125.987257186 819.513980769 l 2
 126.041203833 818.571559337 126.06865882 817.638584908 126.06865882 816.714233512 c 0
 126.06865882 805.732761369 121.81391621 796.003445202 113.436246079 790.176377683 c 0
 106.957184011 785.669882256 99.1580358694 784 91 784 c 2
 56 784 l 2
 44.6436082876 784 34.5900170888 787.62834668 28.2708250106 795.951719261 c 0
 23.3995833315 802.367912808 21.3753942045 810.145037251 21.0095674218 818.559053252 c 2
 19.0134745117 864.469190184 l 2
256.299505596 892.614380323 m 0
 264.429383125 886.024900642 268 875.92286565 268 865 c 2
 268 819 l 2
 268 807.680679758 264.49077603 797.434582054 256.147103874 790.935300585 c 0
 249.638298075 785.865283436 241.538455695 784 233 784 c 2
 198 784 l 2
 186.680679758 784 176.434582054 787.50922397 169.935300585 795.852896126 c 0
 164.865283436 802.361701925 163 810.461544305 163 819 c 2
 163 865 l 2
 163 875.92286565 166.570616875 886.024900642 174.700494404 892.614380323 c 0
 181.096746819 897.798711228 189.246618748 900 198 900 c 2
 233 900 l 2
 241.753381252 900 249.903253181 897.798711228 256.299505596 892.614380323 c 0
404.614380323 888.299505596 m 0
 409.798711228 881.903253181 412 873.753381252 412 865 c 2
 412 819 l 2
 412 807.680679758 408.49077603 797.434582054 400.147103874 790.935300585 c 0
 393.638298075 785.865283436 385.538455695 784 377 784 c 2
 342 784 l 2
 330.680679758 784 320.434582054 787.50922397 313.935300585 795.852896126 c 0
 308.865283436 802.361701925 307 810.461544305 307 819 c 2
 307 865 l 2
 307 873.753381252 309.201288772 881.903253181 314.385619677 888.299505596 c 0
 320.975099358 896.429383125 331.07713435 900 342 900 c 2
 377 900 l 2
 387.92286565 900 398.024900642 896.429383125 404.614380323 888.299505596 c 0
448 316 m 2
 180 316 l 1
 180 87 l 1
 491 87 l 2
 501.92286565 87 512.024900642 83.4293831245 518.614380323 75.299505596 c 0
 523.798711228 68.9032531811 526 60.7533812524 526 52 c 2
 526 25 l 2
 526 16.2466187476 523.798711228 8.09674681893 518.614380323 1.70049440398 c 0
 512.024900642 -6.42938312452 501.92286565 -10 491 -10 c 2
 110 -10 l 2
 101.246618748 -10 93.0967468189 -7.79871122811 86.700494404 -2.61438032336 c 0
 78.5706168755 3.97509935764 75 14.07713435 75 25 c 2
 75 675 l 2
 75 685.92286565 78.5706168755 696.024900642 86.700494404 702.614380323 c 0
 93.0967468189 707.798711228 101.246618748 710 110 710 c 2
 469 710 l 2
 477.538455695 710 485.638298075 708.134716564 492.147103874 703.064699415 c 0
 500.49077603 696.565417946 504 686.319320242 504 675 c 2
 504 649 l 2
 504 637.680679758 500.49077603 627.434582054 492.147103874 620.935300585 c 0
 485.638298075 615.865283436 477.538455695 614 469 614 c 2
 180 614 l 1
 180 413 l 1
 448 413 l 2
 458.92286565 413 469.024900642 409.429383125 475.614380323 401.299505596 c 0
 480.798711228 394.903253181 483 386.753381252 483 378 c 2
 483 351 l 2
 483 342.246618748 480.798711228 334.096746819 475.614380323 327.700494404 c 0
 469.024900642 319.570616875 458.92286565 316 448 316 c 2
EndSplineSet
Validated: 33
PickledDataWithLists: "(dp0
Vcom.schriftgestaltung.Glyphs.lastChange\\u000d\\u000d\\u000d
p1
V2016-06-09 18:35:33 +0000\\u000d\\u000d\\u000d
p2
s."
EndChar

StartChar: Eth
Encoding: 208 208 39
GlifName: E_th
Width: 575
VWidth: 0
Flags: W
LayerCount: 2
Fore
SplineSet
35.9353005852 688.147103874 m 0
 42.4345820537 696.49077603 52.6806797579 700 64 700 c 2
 144 700 l 2
 255.359173712 700 343.249645153 686.894145753 407.273207684 648.294930434 c 0
 487.973058798 599.641734546 527 511.924588221 527 369.444444444 c 2
 527 330.555555556 l 2
 527 231.130841891 510.623508596 154.501028052 468.356897563 99.7184453674 c 0
 415.252884611 30.8892937194 323.641110519 1.42108547152e-14 183 0 c 2
 127 0 l 2
 118.246618748 0 110.096746819 2.20128877189 103.700494404 7.38561967664 c 0
 95.5706168755 13.7587773418 92 23.5291787789 92 34.0934643238 c 2
 92 302 l 1
 67 302 l 2
 58.2466187476 302 50.0967468189 304.201288772 43.700494404 309.385619677 c 0
 35.5706168755 315.975099358 32 326.07713435 32 337 c 2
 32 363 l 2
 32 372.087652508 34.1277328296 380.429674001 39.2866813476 387.003983395 c 0
 45.8724350712 395.396542929 56.0775920563 399 67 399 c 2
 92 399 l 1
 92 604 l 1
 64 604 l 2
 52.6806797579 604 42.4345820537 607.50922397 35.9353005852 615.852896126 c 0
 30.8652834364 622.361701925 29 630.461544305 29 639 c 2
 29 665 l 2
 29 673.538455695 30.8652834364 681.638298075 35.9353005852 688.147103874 c 0
290 302 m 2
 197 302 l 1
 197 87.0810901016 l 1
 286.206223442 88.54836003 344.163331447 109.975461738 378.843662004 155.260064758 c 0
 407.813476789 193.088036436 422 249.698120865 422 330 c 2
 422 370 l 2
 422 442.725037389 409.225701524 497.614891582 381.008745306 536.284479393 c 0
 347.206866008 582.607857773 289.531369837 608.408056707 197 612.627864658 c 1
 197 399 l 1
 290 399 l 2
 300.92286565 399 311.024900642 395.429383125 317.614380323 387.299505596 c 0
 322.798711228 380.903253181 325 372.753381252 325 364 c 2
 325 337 l 2
 325 328.246618748 322.798711228 320.096746819 317.614380323 313.700494404 c 0
 311.024900642 305.570616875 300.92286565 302 290 302 c 2
EndSplineSet
PickledDataWithLists: "(dp0
Vcom.schriftgestaltung.Glyphs.lastChange\\u000d\\u000d\\u000d
p1
V2016-06-09 18:35:33 +0000\\u000d\\u000d\\u000d
p2
s."
EndChar

StartChar: Euro
Encoding: 8364 8364 40
GlifName: E_uro
Width: 575
VWidth: 0
Flags: HMW
LayerCount: 2
Fore
SplineSet
448 375 m 2
 68 375 l 2
 59.2466187476 375 51.0967468189 377.201288772 44.700494404 382.385619677 c 0
 36.5706168755 388.975099358 33 399.07713435 33 410 c 2
 33 431 l 2
 33 442.319320242 36.5092239702 452.565417946 44.8528961258 459.064699415 c 0
 51.361701925 464.134716564 59.4615443048 466 68 466 c 2
 76.7267938311 466 l 1
 80.8864500491 516.140133147 91.5554629084 569.894162497 120.221832755 615.389033826 c 0
 158.573555118 676.255013144 228.534808987 720 351 720 c 0
 384.416681273 720 438.950281981 717.991306996 500.746802208 706.847672201 c 0
 508.251266371 705.523354996 514.908270212 702.917150378 520.128637142 698.289730003 c 0
 526.817622577 692.360501674 529.740988809 683.976551984 529.740988809 675.370414634 c 0
 529.740988809 672.271284007 529.457498274 668.953060104 528.762232454 665.824363912 c 0
 526.738401202 656.717123279 525.06473198 647.424876932 522.663480659 638.420184476 c 0
 518.45867835 622.652175817 506.818537275 611.318093403 489.893741179 611.318093403 c 0
 487.046059621 611.318093403 484.156508248 611.610748774 481.208734008 612.160121581 c 0
 424.988238046 622.019052924 353.21623632 623.994525283 351 624 c 0
 271.963462966 624.195242126 231.422177952 599.839099268 208.913608434 564.38466919 c 0
 192.181989748 538.029817794 184.883051968 503.842626829 181.749600905 466 c 1
 448 466 l 2
 456.538455695 466 464.638298075 464.134716564 471.147103874 459.064699415 c 0
 479.49077603 452.565417946 483 442.319320242 483 431 c 2
 483 410 l 2
 483 401.246618748 480.798711228 393.096746819 475.614380323 386.700494404 c 0
 469.024900642 378.570616875 458.92286565 375 448 375 c 2
351 77 m 0
 378.510719351 77 427.01079302 78.9803633741 481.267182476 87.8507525902 c 0
 484.260592817 88.4059877589 490.246794255 88.7454686433 490.436317047 88.7454335052 c 0
 499.005488475 88.7438447533 507.210134407 85.9166427477 513.247825324 79.6901813933 c 0
 517.984475185 74.8054385808 520.930973619 68.5148351735 522.744403957 61.2543520212 c 0
 524.769933662 52.4770566357 527.16708865 43.712991032 528.828657273 34.8512917091 c 0
 529.417001505 31.7134558059 529.740988809 28.6221825891 529.740988809 25.5579744621 c 0
 529.740988809 16.8858229702 526.922473617 8.38752661986 520.337202008 2.21219516277 c 0
 515.170684051 -2.63270156326 508.431029957 -5.48372462695 500.801367142 -6.83801563546 c 0
 435.96221098 -18.990707956 382.253061377 -19.9999993185 351 -20 c 0
 227.383421918 -20 157.229802649 24.7093279009 119.124154489 85.8897814346 c 0
 90.6972500247 131.530545775 80.4220939013 185.04907741 76.6656396586 234 c 1
 68 234 l 2
 57.07713435 234 46.9750993576 237.570616875 40.3856196766 245.700494404 c 0
 35.2012887719 252.096746819 33 260.246618748 33 269 c 2
 33 290 l 2
 33 301.319320242 36.5092239702 311.565417946 44.8528961258 318.064699415 c 0
 51.361701925 323.134716564 59.4615443048 325 68 325 c 2
 448 325 l 2
 456.538455695 325 464.638298075 323.134716564 471.147103874 318.064699415 c 0
 479.49077603 311.565417946 483 301.319320242 483 290 c 2
 483 269 l 2
 483 260.246618748 480.798711228 252.096746819 475.614380323 245.700494404 c 0
 469.024900642 237.570616875 458.92286565 234 448 234 c 2
 182.842699963 234 l 1
 187.477654634 183.70289795 199.008443063 147.941554706 218.330647338 123.747773086 c 0
 243.892047831 91.7417486878 285.048863576 77 351 77 c 0
EndSplineSet
Validated: 33
PickledDataWithLists: "(dp0
Vcom.schriftgestaltung.Glyphs.lastChange\\u000d\\u000d\\u000d
p1
V2015-12-22 14:04:06 +0000\\u000d\\u000d\\u000d
p2
s."
EndChar

StartChar: F
Encoding: 70 70 41
GlifName: F_
Width: 575
VWidth: 0
Flags: W
AnchorPoint: "mark-top" 288 700 basechar 0
AnchorPoint: "mark-bottom" 288 0 basechar 0
LayerCount: 2
Fore
SplineSet
86.700494404 692.614380323 m 0
 93.0967468189 697.798711228 101.246618748 700 110 700 c 2
 491 700 l 2
 501.92286565 700 512.024900642 696.429383125 518.614380323 688.299505596 c 0
 523.798711228 681.903253181 526 673.753381252 526 665 c 2
 526 639 l 2
 526 628.07713435 522.429383125 617.975099358 514.299505596 611.385619677 c 0
 507.903253181 606.201288772 499.753381252 604 491 604 c 2
 180 604 l 1
 180 379 l 1
 469 379 l 2
 479.92286565 379 490.024900642 375.429383125 496.614380323 367.299505596 c 0
 501.798711228 360.903253181 504 352.753381252 504 344 c 2
 504 317 l 2
 504 308.246618748 501.798711228 300.096746819 496.614380323 293.700494404 c 0
 490.024900642 285.570616875 479.92286565 282 469 282 c 2
 180 282 l 1
 180 34.0297615921 l 2
 180 23.490673657 176.429383125 13.7435762816 168.299505596 7.38561967664 c 0
 161.903253181 2.20128877189 153.753381252 0 145 0 c 2
 110 0 l 2
 101.246618748 0 93.0967468189 2.20128877189 86.700494404 7.38561967664 c 0
 78.5706168755 13.7882244016 75 23.6037698021 75 34.2168674375 c 2
 75 665.783132562 l 2
 75 676.396230198 78.5706168755 686.211775598 86.700494404 692.614380323 c 0
EndSplineSet
PickledDataWithLists: "(dp0
Vcom.schriftgestaltung.Glyphs.lastChange\\u000d\\u000d\\u000d
p1
V2016-06-09 18:35:33 +0000\\u000d\\u000d\\u000d
p2
s."
EndChar

StartChar: F.hex
Encoding: 65542 -1 42
GlifName: F_.hex
Width: 575
VWidth: 0
Flags: W
LayerCount: 2
Fore
SplineSet
138.299505596 892.614380323 m 0
 146.429383125 886.024900642 150 875.92286565 150 865 c 2
 150 819 l 2
 150 807.680679758 146.49077603 797.434582054 138.147103874 790.935300585 c 0
 131.638298075 785.865283436 123.538455695 784 115 784 c 2
 80 784 l 2
 68.6806797579 784 58.4345820537 787.50922397 51.9353005852 795.852896126 c 0
 46.8652834364 802.361701925 45 810.461544305 45 819 c 2
 45 865 l 2
 45 875.92286565 48.5706168755 886.024900642 56.700494404 892.614380323 c 0
 63.0967468189 897.798711228 71.2466187476 900 80 900 c 2
 115 900 l 2
 123.753381252 900 131.903253181 897.798711228 138.299505596 892.614380323 c 0
262.299505596 892.614380323 m 0
 270.429383125 886.024900642 274 875.92286565 274 865 c 2
 274 819 l 2
 274 807.680679758 270.49077603 797.434582054 262.147103874 790.935300585 c 0
 255.638298075 785.865283436 247.538455695 784 239 784 c 2
 204 784 l 2
 192.680679758 784 182.434582054 787.50922397 175.935300585 795.852896126 c 0
 170.865283436 802.361701925 169 810.461544305 169 819 c 2
 169 865 l 2
 169 875.92286565 172.570616875 886.024900642 180.700494404 892.614380323 c 0
 187.096746819 897.798711228 195.246618748 900 204 900 c 2
 239 900 l 2
 247.753381252 900 255.903253181 897.798711228 262.299505596 892.614380323 c 0
390.614380323 888.299505596 m 0
 395.798711228 881.903253181 398 873.753381252 398 865 c 2
 398 819 l 2
 398 807.680679758 394.49077603 797.434582054 386.147103874 790.935300585 c 0
 379.638298075 785.865283436 371.538455695 784 363 784 c 2
 328 784 l 2
 316.680679758 784 306.434582054 787.50922397 299.935300585 795.852896126 c 0
 294.865283436 802.361701925 293 810.461544305 293 819 c 2
 293 865 l 2
 293 873.753381252 295.201288772 881.903253181 300.385619677 888.299505596 c 0
 306.975099358 896.429383125 317.07713435 900 328 900 c 2
 363 900 l 2
 373.92286565 900 384.024900642 896.429383125 390.614380323 888.299505596 c 0
514.614380323 888.299505596 m 0
 519.798711228 881.903253181 522 873.753381252 522 865 c 2
 522 819 l 2
 522 807.680679758 518.49077603 797.434582054 510.147103874 790.935300585 c 0
 503.638298075 785.865283436 495.538455695 784 487 784 c 2
 452 784 l 2
 440.680679758 784 430.434582054 787.50922397 423.935300585 795.852896126 c 0
 418.865283436 802.361701925 417 810.461544305 417 819 c 2
 417 865 l 2
 417 873.753381252 419.201288772 881.903253181 424.385619677 888.299505596 c 0
 430.975099358 896.429383125 441.07713435 900 452 900 c 2
 487 900 l 2
 497.92286565 900 508.024900642 896.429383125 514.614380323 888.299505596 c 0
86.700494404 702.614380323 m 0
 93.0967468189 707.798711228 101.246618748 710 110 710 c 2
 491 710 l 2
 499.538455695 710 507.638298075 708.134716564 514.147103874 703.064699415 c 0
 522.49077603 696.565417946 526 686.319320242 526 675 c 2
 526 649 l 2
 526 637.680679758 522.49077603 627.434582054 514.147103874 620.935300585 c 0
 507.638298075 615.865283436 499.538455695 614 491 614 c 2
 180 614 l 1
 180 378 l 1
 469 378 l 2
 479.92286565 378 490.024900642 374.429383125 496.614380323 366.299505596 c 0
 501.798711228 359.903253181 504 351.753381252 504 343 c 2
 504 316 l 2
 504 305.072680658 500.351393588 295.064392012 492.04159304 288.766437911 c 0
 485.572173511 283.8632989 477.54567858 282 469 282 c 2
 180 282 l 1
 180 25 l 2
 180 16.4615443048 178.134716564 8.36170192496 173.064699415 1.85289612578 c 0
 166.565417946 -6.49077602975 156.319320242 -10 145 -10 c 2
 110 -10 l 2
 101.246618748 -10 93.0967468189 -7.79871122811 86.700494404 -2.61438032336 c 0
 78.5706168755 3.97509935764 75 14.07713435 75 25 c 2
 75 675 l 2
 75 685.92286565 78.5706168755 696.024900642 86.700494404 702.614380323 c 0
EndSplineSet
Validated: 1
PickledDataWithLists: "(dp0
Vcom.schriftgestaltung.Glyphs.lastChange\\u000d\\u000d\\u000d
p1
V2016-06-09 18:35:33 +0000\\u000d\\u000d\\u000d
p2
s."
EndChar

StartChar: G
Encoding: 71 71 43
GlifName: G_
Width: 575
VWidth: 0
Flags: W
AnchorPoint: "mark-top" 288 700 basechar 0
AnchorPoint: "mark-bottom" 288 0 basechar 0
LayerCount: 2
Fore
SplineSet
181 388.529411765 m 2
 181 311.470588235 l 2
 181 177.713656286 226.009821201 88 338 88 c 0
 356.968060223 88 379.626483568 91.0410103232 405 97.2554237677 c 1
 405 302 l 1
 343 302 l 2
 332.07713435 302 321.975099358 305.570616875 315.385619677 313.700494404 c 0
 310.201288772 320.096746819 308 328.246618748 308 337 c 2
 308 364 l 2
 308 372.753381252 310.201288772 380.903253181 315.385619677 387.299505596 c 0
 321.975099358 395.429383125 332.07713435 399 343 399 c 2
 475 399 l 2
 485.92286565 399 496.024900642 395.514600711 502.614380323 387.578753672 c 0
 507.798711228 381.335156446 510 373.379792201 510 364.835322196 c 2
 510 59.3054892601 l 2
 510 42.5998985974 501.440512775 27.9510567032 484.931953192 21.0448164682 c 0
 434.868536087 0.101136690962 386.517945723 -10 340 -10 c 0
 285.837592595 -10 227.29475945 3.87351677382 178.831345688 41.909628758 c 0
 118.081782708 89.5884239791 75 174.011357989 75 311.081081081 c 2
 75 388.918918919 l 2
 75 525.988642011 118.081782708 610.411576021 178.831345688 658.090371242 c 0
 227.29475945 696.126483226 285.837592595 710 340 710 c 0
 386.487668076 710 433.797251896 699.666224228 481.814290975 679.246232298 c 0
 495.133723126 673.878803318 503.673589889 662.957709763 503.673589889 649.43927 c 0
 503.673589889 644.013179814 502.503864519 638.605263556 500.235222386 633.160522435 c 2
 490.260993177 609.222372334 l 2
 484.979745217 596.076910403 474.59206726 586.524782204 460.49229045 586.524782204 c 0
 455.448868189 586.524782204 450.446345656 587.666901137 445.446188623 589.649687073 c 0
 402.256393947 605.342106525 367.424414158 611.999998834 338 612 c 0
 226.165139741 612 181 522.141687377 181 388.529411765 c 2
EndSplineSet
EndChar

StartChar: Gamma
Encoding: 915 915 44
GlifName: G_amma
Width: 575
VWidth: 0
Flags: W
AnchorPoint: "mark-top" 288 700 basechar 0
LayerCount: 2
Fore
SplineSet
71.8528961258 693.064699415 m 0
 78.361701925 698.134716564 86.4615443048 700 95 700 c 2
 480 700 l 2
 488.8687789 700 497.098627045 698.198617029 503.63518419 693.004466922 c 0
 512.021078242 686.340776615 515 676.020940777 515 665 c 2
 515 639 l 2
 515 627.979059223 512.021078242 617.659223385 503.63518419 610.995533078 c 0
 497.098627045 605.801382971 488.8687789 604 480 604 c 2
 165 604 l 1
 165 33.8782051282 l 2
 165 25.6134178848 163.134716564 17.7731858376 158.064699415 11.4729956089 c 0
 151.565417946 3.396748843 141.319320242 -1.7763568394e-15 130 0 c 2
 95 0 l 2
 86.2466187476 0 78.0967468189 2.20128877189 71.700494404 7.38561967664 c 0
 63.5706168755 13.7883436532 60 23.604071873 60 34.2173671824 c 2
 60 665.795395534 l 2
 60 676.79390932 63.5092239702 686.749617298 71.8528961258 693.064699415 c 0
EndSplineSet
PickledDataWithLists: "(dp0
Vcom.schriftgestaltung.Glyphs.lastChange\\u000d\\u000d\\u000d
p1
V2015-12-22 16:32:37 +0000\\u000d\\u000d\\u000d
p2
s."
EndChar

StartChar: H
Encoding: 72 72 46
GlifName: H_
Width: 575
VWidth: 0
Flags: W
AnchorPoint: "mark-bottom" 288 -0 basechar 0
AnchorPoint: "mark-top" 288 700 basechar 0
LayerCount: 2
Fore
SplineSet
419.385619677 688.70297092 m 0
 425.975099358 696.552507844 436.07713435 700 447 700 c 2
 482 700 l 2
 492.92286565 700 503.024900642 696.528566927 509.614380323 688.624519329 c 0
 514.798711228 682.405940593 517 674.482453995 517 665.972222222 c 2
 517 34.0277777778 l 2
 517 25.5175460046 514.798711228 17.5940594073 509.614380323 11.3754806705 c 0
 503.024900642 3.47143307338 492.92286565 0 482 0 c 2
 447 0 l 2
 436.07713435 0 425.975099358 3.46339114348 419.385619677 11.3491282057 c 0
 414.201288772 17.5533009685 412 25.4584319984 412 33.9489489489 c 2
 412 323 l 1
 163 323 l 1
 163 34.1519299517 l 2
 163 23.564518333 159.429383125 13.7727286984 151.299505596 7.38561967664 c 0
 144.903253181 2.20128877189 136.753381252 0 128 0 c 2
 93 0 l 2
 84.2466187476 0 76.0967468189 2.20128877189 69.700494404 7.38561967664 c 0
 61.5706168755 13.7882244016 58 23.6037698021 58 34.2168674375 c 2
 58 665.783132562 l 2
 58 676.396230198 61.5706168755 686.211775598 69.700494404 692.614380323 c 0
 76.0967468189 697.798711228 84.2466187476 700 93 700 c 2
 128 700 l 2
 136.753381252 700 144.903253181 697.798711228 151.299505596 692.614380323 c 0
 159.429383125 686.258062156 163 676.513476597 163 665.977104572 c 2
 163 420 l 1
 412 420 l 1
 412 666.206896552 l 2
 412 674.658437071 414.201288772 682.527278933 419.385619677 688.70297092 c 0
EndSplineSet
PickledDataWithLists: "(dp0
Vcom.schriftgestaltung.Glyphs.lastChange\\u000d\\u000d\\u000d
p1
V2016-06-09 18:35:33 +0000\\u000d\\u000d\\u000d
p2
s."
EndChar

StartChar: I
Encoding: 73 73 48
GlifName: I_
Width: 575
VWidth: 0
Flags: W
AnchorPoint: "mark-bottom" 288 0 basechar 0
AnchorPoint: "mark-top" 288 700 basechar 0
AnchorPoint: "mark-ogonek" 456 0 basechar 0
LayerCount: 2
Fore
SplineSet
96.700494404 692.614380323 m 0
 103.096746819 697.798711228 111.246618748 700 120 700 c 2
 455 700 l 2
 465.92286565 700 476.024900642 696.429383125 482.614380323 688.299505596 c 0
 487.798711228 681.903253181 490 673.753381252 490 665 c 2
 490 639 l 2
 490 630.246618748 487.798711228 622.096746819 482.614380323 615.700494404 c 0
 476.024900642 607.570616875 465.92286565 604 455 604 c 2
 340 604 l 1
 340 97 l 1
 465 97 l 2
 475.92286565 97 486.024900642 93.4293831245 492.614380323 85.299505596 c 0
 497.798711228 78.9032531811 500 70.7533812524 500 62 c 2
 500 35 l 2
 500 26.2466187476 497.798711228 18.0967468189 492.614380323 11.700494404 c 0
 486.024900642 3.57061687548 475.92286565 -1.7763568394e-15 465 0 c 2
 110 0 l 2
 101.246618748 0 93.0967468189 2.20128877189 86.700494404 7.38561967664 c 0
 78.5706168755 13.9750993576 75 24.07713435 75 35 c 2
 75 62 l 2
 75 72.92286565 78.5706168755 83.0249006424 86.700494404 89.6143803234 c 0
 93.0967468189 94.7987112281 101.246618748 97 110 97 c 2
 235 97 l 1
 235 604 l 1
 120 604 l 2
 111.246618748 604 103.096746819 606.201288772 96.700494404 611.385619677 c 0
 88.5706168755 617.975099358 85 628.07713435 85 639 c 2
 85 665 l 2
 85 675.92286565 88.5706168755 686.024900642 96.700494404 692.614380323 c 0
EndSplineSet
PickledDataWithLists: "(dp0
Vcom.schriftgestaltung.Glyphs.lastChange\\u000d\\u000d\\u000d
p1
V2016-06-09 18:35:33 +0000\\u000d\\u000d\\u000d
p2
s."
EndChar

StartChar: IJ
Encoding: 306 306 49
GlifName: I_J_
Width: 575
VWidth: 0
Flags: W
LayerCount: 2
Fore
SplineSet
66.8528961258 693.064699415 m 0
 73.361701925 698.134716564 81.4615443048 700 90 700 c 2
 225 700 l 2
 233.538455695 700 241.638298075 698.134716564 248.147103874 693.064699415 c 0
 256.49077603 686.565417946 260 676.319320242 260 665 c 2
 260 639 l 2
 260 627.680679758 256.49077603 617.434582054 248.147103874 610.935300585 c 0
 241.638298075 605.865283436 233.538455695 604 225 604 c 2
 210 604 l 1
 210 97 l 1
 235 97 l 2
 246.319320242 97 256.565417946 93.4907760298 263.064699415 85.1471038742 c 0
 268.134716564 78.638298075 270 70.5384556952 270 62 c 2
 270 35 l 2
 270 26.4615443048 268.134716564 18.361701925 263.064699415 11.8528961258 c 0
 256.565417946 3.50922397025 246.319320242 0 235 0 c 2
 80 0 l 2
 71.2466187476 0 63.0967468189 2.20128877189 56.700494404 7.38561967664 c 0
 48.5706168755 13.9750993576 45 24.07713435 45 35 c 2
 45 62 l 2
 45 70.7533812524 47.2012887719 78.9032531811 52.3856196766 85.299505596 c 0
 58.9750993576 93.4293831245 69.07713435 97 80 97 c 2
 105 97 l 1
 105 604 l 1
 90 604 l 2
 81.2466187476 604 73.0967468189 606.201288772 66.700494404 611.385619677 c 0
 58.5706168755 617.975099358 55 628.07713435 55 639 c 2
 55 665 l 2
 55 676.319320242 58.5092239702 686.565417946 66.8528961258 693.064699415 c 0
324.385619677 688.299505596 m 0
 330.975099358 696.429383125 341.07713435 700 352 700 c 2
 465 700 l 2
 473.8687789 700 482.098627045 698.198617029 488.63518419 693.004466922 c 0
 497.021078242 686.527957753 500 676.498003125 500 665.786637394 c 2
 500 131.235978671 l 2
 500 74.9109140591 482.54373832 39.2733546706 447.523049797 20.1765074249 c 0
 420.137294774 5.24300376039 384.266873025 1 341 1 c 0
 332.106267962 1 323.893797466 2.80185676418 317.254793071 7.67327909706 c 0
 308.68658766 13.9602680357 305 24.0711424227 305 35 c 2
 305 62 l 2
 305 70.7533812524 307.201288772 78.9032531811 312.385619677 85.299505596 c 0
 318.975099358 93.4293831245 329.07713435 97 340 97 c 0
 355.774784503 97 369.03372208 98.8055437015 378.00527192 102.95858839 c 0
 388.553120929 107.841322041 395 115.589029767 395 133.557874763 c 2
 395 604 l 1
 352 604 l 2
 343.461544305 604 335.361701925 605.865283436 328.852896126 610.935300585 c 0
 320.50922397 617.434582054 317 627.680679758 317 639 c 2
 317 665 l 2
 317 673.753381252 319.201288772 681.903253181 324.385619677 688.299505596 c 0
EndSplineSet
Validated: 1
PickledDataWithLists: "(dp0
Vcom.schriftgestaltung.Glyphs.lastChange\\u000d\\u000d\\u000d
p1
V2016-06-09 18:35:33 +0000\\u000d\\u000d\\u000d
p2
s."
EndChar

StartChar: J
Encoding: 74 74 57
GlifName: J_
Width: 575
VWidth: 0
Flags: W
AnchorPoint: "mark-top" 288 700 basechar 0
AnchorPoint: "mark-bottom" 288 0 basechar 0
LayerCount: 2
Fore
SplineSet
161.700494404 692.614380323 m 0
 168.096746819 697.798711228 176.246618748 700 185 700 c 2
 465 700 l 2
 475.92286565 700 486.024900642 696.527208244 492.614380323 688.620067087 c 0
 497.798711228 682.399054464 500 674.472466698 500 665.95890411 c 2
 500 272.054794521 l 2
 500 156.49686554 461.397085666 81.6438788255 403.532342392 38.3358023349 c 0
 357.403017935 3.81093971587 300.179086872 -10 243 -10 c 0
 194.612998917 -10 141.480826598 0.218743188015 93.1857111891 20.7537683704 c 0
 79.8662781194 26.1211971197 71.326410148 37.0422910097 71.3264101108 50.5607300001 c 0
 71.3264101108 55.9868201862 72.496135481 61.3947364443 74.7647776145 66.8394775648 c 2
 84.7390068232 90.7776276658 l 2
 90.0202547827 103.923089597 100.40793274 113.475217796 114.50770955 113.475217796 c 0
 119.551131811 113.475217796 124.553654344 112.333098863 129.553811377 110.350312927 c 0
 172.743606053 94.6578934752 207.575585842 88.0000011657 237 88 c 0
 270.424583784 88 305.015138159 96.3546857803 332.963726193 117.585485864 c 0
 367.712268954 143.981787661 394 191.392637447 394 272.835820896 c 2
 394 604 l 1
 185 604 l 2
 176.246618748 604 168.096746819 606.201288772 161.700494404 611.385619677 c 0
 153.570616875 617.975099358 150 628.07713435 150 639 c 2
 150 665 l 2
 150 675.92286565 153.570616875 686.024900642 161.700494404 692.614380323 c 0
EndSplineSet
EndChar

StartChar: K
Encoding: 75 75 59
GlifName: K_
Width: 575
VWidth: 0
Flags: W
AnchorPoint: "mark-bottom" 288 -0 basechar 0
AnchorPoint: "mark-top" 288 700 basechar 0
LayerCount: 2
Fore
SplineSet
526.560189959 24.3306658 m 0
 526.560189959 8.12973847298 511.178381745 0 495 0 c 2
 443 0 l 2
 425.982624003 0 414.128537667 7.44833878704 404.891467666 20.149310038 c 2
 185.891945935 323 l 1
 180 323 l 1
 180 35 l 2
 180 24.07713435 176.429383125 13.9750993576 168.299505596 7.38561967664 c 0
 161.903253181 2.20128877189 153.753381252 0 145 0 c 2
 110 0 l 2
 101.246618748 0 93.0967468189 2.20128877189 86.700494404 7.38561967664 c 0
 78.5706168755 13.7882244016 75 23.6037698021 75 34.2168674375 c 2
 75 665.783132562 l 2
 75 676.396230198 78.5706168755 686.211775598 86.700494404 692.614380323 c 0
 93.0967468189 697.798711228 101.246618748 700 110 700 c 2
 145 700 l 2
 153.753381252 700 161.903253181 697.798711228 168.299505596 692.614380323 c 0
 176.429383125 686.024900642 180 675.92286565 180 665 c 2
 180 399 l 1
 186.865519922 399 l 1
 388.90748533 680.872777263 l 2
 398.639591027 694.254422596 411.578496542 700 427 700 c 2
 480 700 l 2
 495.713570464 700 511.560189959 692.668936827 511.560189959 676.377395425 c 0
 511.560189959 668.937942288 508.283115026 661.996843647 503.0109783 655.294020246 c 2
 275.49588797 359.731432831 l 1
 517.948050643 45.7590723779 l 2
 523.269475937 38.993585092 526.560189959 31.8265918598 526.560189959 24.3306658 c 0
EndSplineSet
EndChar

StartChar: L
Encoding: 76 76 61
GlifName: L_
Width: 575
VWidth: 0
Flags: W
AnchorPoint: "mark-centerright" 370 400 basechar 0
AnchorPoint: "mark-bottom" 288 0 basechar 0
AnchorPoint: "mark-topright" 390 700 basechar 0
AnchorPoint: "mark-top" 288 700 basechar 0
LayerCount: 2
Fore
SplineSet
180 665.8971324 m 2
 180 97 l 1
 529 97 l 2
 539.92286565 97 550.024900642 93.4293831245 556.614380323 85.299505596 c 0
 561.798711228 78.9032531811 564 70.7533812524 564 62 c 2
 564 35 l 2
 564 26.2466187476 561.798711228 18.0967468189 556.614380323 11.700494404 c 0
 550.024900642 3.57061687548 539.92286565 -1.7763568394e-15 529 0 c 2
 110 0 l 2
 101.246618748 0 93.0967468189 2.20128877189 86.700494404 7.38561967664 c 0
 78.5706168755 13.7882244016 75 23.6037698021 75 34.2168674375 c 2
 75 665.783132562 l 2
 75 676.396230198 78.5706168755 686.211775598 86.700494404 692.614380323 c 0
 93.0967468189 697.798711228 101.246618748 700 110 700 c 2
 145 700 l 2
 153.753381252 700 161.903253181 697.798711228 168.299505596 692.614380323 c 0
 176.429383125 686.238978802 180 676.46513741 180 665.8971324 c 2
EndSplineSet
PickledDataWithLists: "(dp0
Vcom.schriftgestaltung.Glyphs.lastChange\\u000d\\u000d\\u000d
p1
V2016-06-09 18:35:33 +0000\\u000d\\u000d\\u000d
p2
s."
EndChar

StartChar: Lambda
Encoding: 923 923 63
GlifName: L_ambda
Width: 575
VWidth: 0
Flags: W
AnchorPoint: "mark-top" 288 700 basechar 0
LayerCount: 2
Back
SplineSet
288 710 m 256
 352 710 396 679 410 621 c 258
 558 28 l 258
 563 11 554 0 537 0 c 258
 501 0 l 258
 486 0 477 7 473 22 c 258
 327 607 l 258
 323 624 309 634 288 634 c 256
 267 634 253 624 249 607 c 258
 102 22 l 258
 99 7 89 0 74 0 c 258
 39 0 l 258
 21 0 13 11 17 28 c 258
 165 621 l 258
 180 679 223 710 288 710 c 256
EndSplineSet
Fore
SplineSet
73 0 m 2
 39 0 l 2
 31.0213968408 0 23.6635261352 1.72229084123 17.6243607796 5.80523173904 c 0
 9.85755750029 10.9115732593 5.63078735709 19.3860457115 5.63078735709 28.5825129881 c 0
 5.63078735709 32.2981130738 6.26944211422 36.1044915763 7.42034866785 39.9098043607 c 2
 185.407130755 616.534909219 l 2
 204.113644421 678.183274578 244.011651908 712 287 712 c 0
 330.021120576 712 370.846859277 677.293222761 389.579651332 616.556665641 c 2
 567.595355756 39.7074436512 l 2
 568.754559801 35.8738355186 569.375577146 32.0976043208 569.375577146 28.3726385169 c 0
 569.375577146 10.6904909507 554.619945701 0 537 0 c 2
 502 0 l 2
 483.290818119 0 468.508176856 10.2794952354 463.379433063 29.2603179729 c 2
 287.998369356 612.203058138 l 1
 111.618427714 29.252403558 l 2
 106.487713537 10.2766377646 91.7065813326 1.42108547152e-14 73 0 c 2
EndSplineSet
PickledDataWithLists: "(dp0
Vcom.schriftgestaltung.Glyphs.lastChange\\u000d\\u000d\\u000d
p1
V2015-12-22 12:18:02 +0000\\u000d\\u000d\\u000d
p2
s."
EndChar

StartChar: Lslash
Encoding: 321 321 66
GlifName: L_slash
Width: 575
VWidth: 0
Flags: W
LayerCount: 2
Fore
SplineSet
180 339.859272019 m 1
 180 97 l 1
 529 97 l 2
 539.92286565 97 550.024900642 93.4293831245 556.614380323 85.299505596 c 0
 561.798711228 78.9032531811 564 70.7533812524 564 62 c 2
 564 35 l 2
 564 26.2466187476 561.798711228 18.0967468189 556.614380323 11.700494404 c 0
 550.024900642 3.57061687548 539.92286565 -1.7763568394e-15 529 0 c 2
 110 0 l 2
 101.246618748 0 93.0967468189 2.20128877189 86.700494404 7.38561967664 c 0
 78.5706168755 13.7882244016 75 23.6037698021 75 34.2168674375 c 2
 75 262.324826327 l 1
 68.6333528476 257.594285664 60.7453364151 254.841076801 52.9341474549 254.841076801 c 0
 42.9212936321 254.841076801 33.0252585669 258.983327841 26.3283415901 267.00768985 c 0
 19.6615278536 274.457097311 12.8191317755 281.789993899 6.31483031901 289.373804443 c 0
 0.692982649227 295.928701679 -2.01979415206 303.776564611 -2.01979415206 311.531115894 c 0
 -2.01979415206 322.620004807 3.38707400163 333.276721906 12.9696323018 340.259822547 c 2
 75 385.919831465 l 1
 75 665.783132562 l 2
 75 676.396230198 78.5706168755 686.211775598 86.700494404 692.614380323 c 0
 93.0967468189 697.798711228 101.246618748 700 110 700 c 2
 145 700 l 2
 153.8687789 700 162.098627045 698.198617029 168.63518419 693.004466922 c 0
 177.021078242 686.557128628 180 676.572349964 180 665.909229346 c 2
 180 463.693399683 l 1
 252.127222737 516.031171355 l 2
 258.212146026 520.312889375 265.222706301 522.306129298 272.098876178 522.306129298 c 0
 282.691601285 522.306129298 292.929361053 517.684948824 299.758919502 509.465559516 c 0
 306.138376592 501.993787551 312.823132838 494.683935995 318.930621961 487.001981898 c 0
 324.479436804 480.022724127 327.402780991 472.000799501 327.402780991 463.955061069 c 0
 327.402780991 453.361732419 322.243649078 443.313131342 313.000977088 436.606190782 c 2
 180 339.859272019 l 1
EndSplineSet
PickledDataWithLists: "(dp0
Vcom.schriftgestaltung.Glyphs.lastChange\\u000d\\u000d\\u000d
p1
V2016-06-09 18:35:33 +0000\\u000d\\u000d\\u000d
p2
s."
EndChar

StartChar: M
Encoding: 77 77 67
GlifName: M_
Width: 575
VWidth: 0
Flags: W
AnchorPoint: "mark-top" 288 700 basechar 0
AnchorPoint: "mark-bottom" 288 0 basechar 0
LayerCount: 2
Fore
SplineSet
481 700 m 2
 498 700 l 2
 507.434691147 700 515.966089308 697.936646208 522.711855727 692.806532487 c 0
 531.31735139 686.445730352 534.96303592 676.498582241 534.99972016 665.941364651 c 2
 554.999995429 35.1423924678 l 1
 554.995182359 34.9899082469 l 2
 554.995182359 15.2185535627 539.342115893 0 519 0 c 2
 485 0 l 2
 463.886565416 0 451.26795201 16.6427326041 450.022388982 35.3261780249 c 0
 444.465431714 193.673944085 438.929485555 352.042721254 433.38058614 510.398545167 c 1
 340.016032871 323.669438629 l 2
 332.470356837 307.454001513 318.866564969 300 302 300 c 2
 274 300 l 2
 257.133435031 300 243.529643163 307.454001513 235.983967129 323.669438629 c 2
 142.61941386 510.398545167 l 1
 137.070584079 352.04265162 131.534516966 193.673995405 125.977611018 35.3261780249 c 0
 124.73204799 16.6427326041 112.113434584 0 91 0 c 2
 57 0 l 2
 36.6578841074 0 21 15.2185535627 21 34.9899082469 c 2
 20.9951857721 35.1423925372 l 1
 41.0002798395 665.941364651 l 2
 41.0369640795 676.498582241 44.6826486104 686.445730352 53.2881442727 692.806532487 c 0
 60.0339106916 697.936646208 68.5653088535 700 78 700 c 2
 95 700 l 2
 126.035925524 700 149.388387526 686.639712942 162.97503368 658.413343338 c 2
 288 411.162477108 l 1
 413.02496632 658.413343338 l 2
 426.611612474 686.639712942 449.964074476 700 481 700 c 2
EndSplineSet
EndChar

StartChar: N
Encoding: 78 78 69
GlifName: N_
Width: 575
VWidth: 0
Flags: W
AnchorPoint: "mark-top" 288 700 basechar 0
AnchorPoint: "mark-bottom" 288 0 basechar 0
LayerCount: 2
Fore
SplineSet
418.385619677 688.299505596 m 0
 424.975099358 696.429383125 435.07713435 700 446 700 c 2
 481 700 l 2
 491.92286565 700 502.024900642 696.528566927 508.614380323 688.624519329 c 0
 513.798711228 682.405940593 516 674.482453995 516 665.972222222 c 2
 516 34.0277777778 l 2
 516 25.5175460046 513.798711228 17.5940594073 508.614380323 11.3754806705 c 0
 502.024900642 3.47143307338 491.92286565 0 481 0 c 2
 463 0 l 2
 431.791453469 0 409.543414811 13.663500683 395.082700468 41.472566727 c 2
 164 495.318990447 l 1
 164 35 l 2
 164 24.07713435 160.429383125 13.9750993576 152.299505596 7.38561967664 c 0
 145.903253181 2.20128877189 137.753381252 0 129 0 c 2
 94 0 l 2
 85.2466187476 0 77.0967468189 2.20128877189 70.700494404 7.38561967664 c 0
 62.5706168755 13.7882244016 59 23.6037698021 59 34.2168674375 c 2
 59 665.783132562 l 2
 59 676.396230198 62.5706168755 686.211775598 70.700494404 692.614380323 c 0
 77.0967468189 697.798711228 85.2466187476 700 94 700 c 2
 112 700 l 2
 141.395432067 700 165.893520967 692.675690523 179.984903021 663.392821072 c 2
 411 201.362627113 l 1
 411 665 l 2
 411 673.753381252 413.201288772 681.903253181 418.385619677 688.299505596 c 0
EndSplineSet
EndChar

StartChar: O
Encoding: 79 79 74
GlifName: O_
Width: 575
VWidth: 0
Flags: W
AnchorPoint: "mark-top" 288 700 basechar 0
AnchorPoint: "mark-bottom" 288 0 basechar 0
LayerCount: 2
Fore
SplineSet
65 245.891891892 m 2
 65 454.108108108 l 2
 65 620.779325116 164.069074608 710 288 710 c 0
 412.053460483 710 510 618.754846742 510 454.108108108 c 2
 510 245.891891892 l 2
 510 81.2451532579 412.053460483 -10 288 -10 c 0
 164.069074608 -10 65 79.2206748845 65 245.891891892 c 2
170 453.106032907 m 2
 170 247.893967093 l 2
 170 143.193240342 230.408277586 87 288 87 c 0
 345.524922907 87 405 143.101591102 405 247.893967093 c 2
 405 453.106032907 l 2
 405 557.898408898 345.524922907 614 288 614 c 0
 230.408277586 614 170 557.806759658 170 453.106032907 c 2
EndSplineSet
PickledDataWithLists: "(dp0
Vcom.schriftgestaltung.Glyphs.lastChange\\u000d\\u000d\\u000d
p1
V2016-06-09 18:35:33 +0000\\u000d\\u000d\\u000d
p2
s."
EndChar

StartChar: OE
Encoding: 338 338 75
GlifName: O_E_
Width: 575
VWidth: 0
Flags: W
LayerCount: 2
Fore
SplineSet
475 316 m 2
 383 316 l 1
 383 97 l 1
 493 97 l 2
 504.319320242 97 514.565417946 93.4907760298 521.064699415 85.1471038742 c 0
 526.134716564 78.638298075 528 70.5384556952 528 62 c 2
 528 35 l 2
 528 26.4615443048 526.134716564 18.361701925 521.064699415 11.8528961258 c 0
 514.565417946 3.50922397025 504.319320242 0 493 0 c 2
 288 0 l 2
 204.933244574 0 147.364967898 34.5968583349 113.611152013 90.6039403907 c 0
 86.7725526679 135.136731615 75 192.323738155 75 255.694444444 c 2
 75 444.305555556 l 2
 75 508.986973039 87.1760426079 566.350488492 114.305014345 610.654649237 c 0
 148.422546359 666.37178578 206.105294415 700 288 700 c 2
 482 700 l 2
 490.538455695 700 498.638298075 698.134716564 505.147103874 693.064699415 c 0
 513.49077603 686.565417946 517 676.319320242 517 665 c 2
 517 639 l 2
 517 627.680679758 513.49077603 617.434582054 505.147103874 610.935300585 c 0
 498.638298075 605.865283436 490.538455695 604 482 604 c 2
 383 604 l 1
 383 413 l 1
 475 413 l 2
 485.92286565 413 496.024900642 409.429383125 502.614380323 401.299505596 c 0
 507.798711228 394.903253181 510 386.753381252 510 378 c 2
 510 351 l 2
 510 342.246618748 507.798711228 334.096746819 502.614380323 327.700494404 c 0
 496.024900642 319.570616875 485.92286565 316 475 316 c 2
278 613.616382317 m 1
 203.188963746 607.736112482 180 535.00011031 180 447 c 2
 180 253 l 2
 180 165.045157493 203.131026486 93.1819438268 278 87.3782778044 c 1
 278 613.616382317 l 1
EndSplineSet
Validated: 1
PickledDataWithLists: "(dp0
Vcom.schriftgestaltung.Glyphs.lastChange\\u000d\\u000d\\u000d
p1
V2016-06-09 18:35:33 +0000\\u000d\\u000d\\u000d
p2
s."
EndChar

StartChar: Oslash
Encoding: 216 216 83
GlifName: O_slash
Width: 575
VWidth: 0
Flags: W
LayerCount: 2
Fore
SplineSet
524.46242045 765.950103332 m 2
 536.283770304 760.039428404 544.373841463 749.667387721 544.373841463 736.83602134 c 0
 544.373841463 730.939070027 542.7529908 725.143354487 539.950103332 719.53757955 c 2
 474.038425693 591.231682474 l 1
 490.522268322 553.60845897 500 507.918302119 500 454.272152511 c 2
 500 245.982339854 l 2
 500 81.8781755267 412.480303064 -10 288 -10 c 0
 247.556699606 -10 210.859680705 -0.61041334195 179.867338643 18.4595622807 c 1
 126.950103332 -86.46242045 l 2
 121.039428404 -98.2837703044 110.667387721 -106.373841463 97.8360213396 -106.373841463 c 0
 91.9390700267 -106.373841463 86.1433544866 -104.7529908 80.53757955 -101.950103332 c 2
 48.53757955 -85.9501033315 l 2
 36.7162296956 -80.0394284043 28.6261585369 -69.6673877209 28.6261585369 -56.8360213396 c 0
 28.6261585369 -50.9390700267 30.2470092002 -45.1433544866 33.0498966685 -39.53757955 c 2
 104.820952622 100.273925414 l 1
 85.3815936074 139.257316004 75 187.965073914 75 245.397055392 c 2
 75 453.835273728 l 2
 75 620.0880146 163.643677429 710 288 710 c 0
 330.527951029 710 369.219998337 698.827521444 401.336066539 677.034760191 c 1
 446.049896668 766.46242045 l 2
 451.960571596 778.283770304 462.332612279 786.373841463 475.16397866 786.373841463 c 0
 481.060929973 786.373841463 486.856645513 784.7529908 492.46242045 781.950103332 c 2
 524.46242045 765.950103332 l 2
288 614 m 0
 231.086218568 614 180 556.660598454 180 447 c 2
 180 234.362627113 l 1
 354.101174152 582.564975417 l 1
 335.429430114 603.41459397 312.834629148 614 288 614 c 0
288 86 m 0
 344.844845625 86 395 143.236376929 395 253 c 2
 395 449.637372887 l 1
 226.110318472 111.858009831 l 1
 243.598824095 94.9127498521 265.065556629 86 288 86 c 0
EndSplineSet
PickledDataWithLists: "(dp0
Vcom.schriftgestaltung.Glyphs.lastChange\\u000d\\u000d\\u000d
p1
V2016-06-09 18:35:33 +0000\\u000d\\u000d\\u000d
p2
s."
EndChar

StartChar: P
Encoding: 80 80 85
GlifName: P_
Width: 575
VWidth: 0
Flags: W
AnchorPoint: "mark-top" 288 700 basechar 0
AnchorPoint: "mark-bottom" 288 0 basechar 0
LayerCount: 2
Fore
SplineSet
86.700494404 692.614380323 m 0
 93.0967468189 697.798711228 101.246618748 700 110 700 c 2
 245 700 l 2
 431.210682281 700 527 594.473439403 527 475 c 0
 527 352.499775785 429.082675583 250 245 250 c 2
 180 250 l 1
 180 33.90685636 l 2
 180 23.4163835784 176.429383125 13.7142480287 168.299505596 7.38561967664 c 0
 161.903253181 2.20128877189 153.753381252 0 145 0 c 2
 110 0 l 2
 101.246618748 0 93.0967468189 2.20128877189 86.700494404 7.38561967664 c 0
 78.5706168755 13.7882244016 75 23.6037698021 75 34.2168674375 c 2
 75 665.783132562 l 2
 75 676.396230198 78.5706168755 686.211775598 86.700494404 692.614380323 c 0
245 604 m 2
 180 604 l 1
 180 347 l 1
 245 347 l 2
 369.235821981 347 422 408.050057246 422 475.018726592 c 0
 422 541.990163903 368.166708532 604 245 604 c 2
EndSplineSet
PickledDataWithLists: "(dp0
Vcom.schriftgestaltung.Glyphs.lastChange\\u000d\\u000d\\u000d
p1
V2016-06-09 18:35:33 +0000\\u000d\\u000d\\u000d
p2
s."
EndChar

StartChar: Phi
Encoding: 934 934 86
GlifName: P_hi
Width: 575
VWidth: 0
Flags: W
AnchorPoint: "mark-top" 288 700 basechar 0
LayerCount: 2
Back
SplineSet
288 658 m 3
 352 658 413 632 457 588 c 0
 501 544 526 485 526 424 c 3
 526 363 501 304 457 260 c 0
 413 216 352 190 288 190 c 3
 224 190 163 216 119 260 c 0
 75 304 51 363 51 424 c 3
 51 485 75 544 119 588 c 0
 163 632 224 658 288 658 c 3
288 580 m 3
 250 580 209 564 181 536 c 0
 153 508 136 465 136 424 c 3
 136 383 153 340 181 312 c 0
 209 284 250 268 288 268 c 3
 326 268 367 284 395 312 c 0
 423 340 441 383 441 424 c 3
 441 465 423 508 395 536 c 0
 367 564 326 580 288 580 c 3
270 700 m 258
 305 700 l 258
 321 700 330 691 330 675 c 256
 330 25 l 258
 330 9 321 0 305 0 c 258
 270 0 l 258
 254 0 245 9 245 25 c 258
 245 675 l 258
 245 691 254 700 270 700 c 258
554 649 m 258
 554 633 545 624 529 624 c 258
 330 624 l 257
 330 550 l 257
 454 537 530 463 530 350 c 256
 530 239 454 165 330 150 c 257
 330 76 l 257
 529 76 l 258
 545 76 554 67 554 51 c 258
 554 25 l 258
 554 8 545 0 529 0 c 258
 47 0 l 258
 30 0 22 9 22 25 c 258
 22 51 l 258
 22 67 30 76 46 76 c 258
 245 76 l 257
 245 150 l 257
 121 163 45 238 45 350 c 256
 45 461 120 535 245 549 c 257
 245 624 l 257
 46 624 l 258
 30 624 22 633 22 649 c 258
 22 675 l 258
 22 691 30 700 47 700 c 258
 529 700 l 258
 545 700 554 692 554 675 c 258
 554 649 l 258
245 472 m 257
 173 459 130 415 130 350 c 256
 130 285 173 240 245 228 c 257
 245 472 l 257
330 228 m 257
 402 241 445 285 445 350 c 256
 445 415 402 460 330 472 c 257
 330 228 l 257
EndSplineSet
Fore
SplineSet
287 59 m 0
 166.424443904 59 33 159.788697335 33 350 c 0
 33 540.260657095 167.461752581 641 288 641 c 0
 408.725863205 641 538 540.011339429 538 350 c 0
 538 159.93828532 407.688125921 59 287 59 c 0
286 545 m 0
 217.940767821 545 138 473.912842936 138 350 c 0
 138 226.010314492 216.996688567 155 285 155 c 0
 353.059232179 155 433 226.087157064 433 350 c 0
 433 473.989685508 354.003311433 545 286 545 c 0
246.700494404 692.614380323 m 0
 253.096746819 697.798711228 261.246618748 700 270 700 c 2
 305 700 l 2
 315.92286565 700 326.024900642 696.528566927 332.614380323 688.624519329 c 0
 337.798711228 682.405940593 340 674.482453995 340 665.972222222 c 2
 340 34.0277777778 l 2
 340 25.5175460046 337.798711228 17.5940594073 332.614380323 11.3754806705 c 0
 326.024900642 3.47143307338 315.92286565 0 305 0 c 2
 270 0 l 2
 261.246618748 0 253.096746819 2.20128877189 246.700494404 7.38561967664 c 0
 238.570616875 13.7882244016 235 23.6037698021 235 34.2168674375 c 2
 235 665.783132562 l 2
 235 676.396230198 238.570616875 686.211775598 246.700494404 692.614380323 c 0
EndSplineSet
PickledDataWithLists: "(dp0
Vcom.schriftgestaltung.Glyphs.lastChange\\u000d\\u000d\\u000d
p1
V2015-12-22 12:22:42 +0000\\u000d\\u000d\\u000d
p2
s."
EndChar

StartChar: Pi
Encoding: 928 928 87
GlifName: P_i
Width: 575
VWidth: 0
Flags: W
AnchorPoint: "mark-top" 288 700 basechar 0
LayerCount: 2
Fore
SplineSet
47 700 m 2
 529 700 l 2
 539.92286565 700 550.024900642 696.429383125 556.614380323 688.299505596 c 0
 561.798711228 681.903253181 564 673.753381252 564 665 c 2
 564 639 l 2
 564 628.07713435 560.429383125 617.975099358 552.299505596 611.385619677 c 0
 545.903253181 606.201288772 537.753381252 604 529 604 c 2
 480 604 l 1
 480 33.8782051282 l 2
 480 25.4053809672 477.798711228 17.5167228824 472.614380323 11.3254785577 c 0
 466.024900642 3.4561740269 455.92286565 0 445 0 c 2
 410 0 l 2
 399.07713435 0 388.975099358 3.4561740269 382.385619677 11.3254785577 c 0
 377.201288772 17.5167228824 375 25.4053809672 375 33.8782051282 c 2
 375 604 l 1
 200 604 l 1
 200 34.1043225327 l 2
 200 23.5357420243 196.429383125 13.7613683812 188.299505596 7.38561967664 c 0
 181.903253181 2.20128877189 173.753381252 0 165 0 c 2
 130 0 l 2
 121.246618748 0 113.096746819 2.20128877189 106.700494404 7.38561967664 c 0
 98.5706168755 13.7613683812 95 23.5357420243 95 34.1043225327 c 2
 95 604 l 1
 47 604 l 2
 38.2466187476 604 30.0967468189 606.201288772 23.700494404 611.385619677 c 0
 15.5706168755 617.975099358 12 628.07713435 12 639 c 2
 12 665 l 2
 12 675.92286565 15.5706168755 686.024900642 23.700494404 692.614380323 c 0
 30.0967468189 697.798711228 38.2466187476 700 47 700 c 2
EndSplineSet
PickledDataWithLists: "(dp0
Vcom.schriftgestaltung.Glyphs.lastChange\\u000d\\u000d\\u000d
p1
V2015-12-22 12:20:26 +0000\\u000d\\u000d\\u000d
p2
s."
EndChar

StartChar: Psi
Encoding: 936 936 88
GlifName: P_si
Width: 575
VWidth: 0
Flags: W
AnchorPoint: "mark-top" 288 700 basechar 0
LayerCount: 2
Back
SplineSet
460 700 m 258
 495 700 l 258
 512 700 520 692 520 675 c 258
 520 433 l 258
 520 309 456 235 330 222 c 257
 330 25 l 258
 330 9 322 0 305 0 c 258
 270 0 l 258
 254 0 245 9 245 25 c 258
 245 222 l 257
 119 236 55 310 55 433 c 258
 55 675 l 258
 55 691 64 700 80 700 c 258
 115 700 l 258
 131 700 140 692 140 675 c 258
 140 433 l 258
 140 363 173 314 245 301 c 257
 245 675 l 258
 245 691 254 700 270 700 c 258
 305 700 l 258
 322 700 330 691 330 675 c 258
 330 301 l 257
 402 314 435 363 435 433 c 258
 435 675 l 258
 435 691 444 700 460 700 c 258
EndSplineSet
Fore
SplineSet
456.852896126 693.064699415 m 0
 463.361701925 698.134716564 471.461544305 700 480 700 c 2
 515 700 l 2
 523.8687789 700 532.098627045 698.198617029 538.63518419 693.004466922 c 0
 547.021078242 686.529547323 550 676.502054409 550 665.793317636 c 2
 550 408.300304794 l 2
 550 326.660956761 530.877932937 268.86856834 485.043794418 234.0201665 c 0
 450.429260851 207.702203202 402.412087712 195.753475443 340 194.621827609 c 1
 340 34.2066823639 l 2
 340 23.4979455908 337.021078242 13.4704526772 328.63518419 6.99553307848 c 0
 322.098627045 1.80138297116 313.8687789 0 305 0 c 2
 270 0 l 2
 261.461544305 0 253.361701925 1.86528343639 246.852896126 6.93530058523 c 0
 238.50922397 13.2505001708 235 23.2063933396 235 34.2051117129 c 2
 235 194.62105481 l 1
 172.587912288 195.752708272 124.570739149 207.70149546 89.9562055817 234.019589655 c 0
 44.122067063 268.86816482 25 326.66084068 25 408.300594761 c 2
 25 665.794888287 l 2
 25 676.79360666 28.5092239702 686.749499829 36.8528961258 693.064699415 c 0
 43.361701925 698.134716564 51.4615443048 700 60 700 c 2
 95 700 l 2
 103.8687789 700 112.098627045 698.198617029 118.63518419 693.004466922 c 0
 127.021078242 686.340776615 130 676.020940777 130 665 c 2
 130 400 l 2
 130 359.234542051 137.088230577 330.608610671 150.898183632 311.754938729 c 0
 166.666465521 290.227710311 192.855470997 278.710771835 235 277.176794979 c 1
 235 665 l 2
 235 676.319320242 238.50922397 686.565417946 246.852896126 693.064699415 c 0
 253.361701925 698.134716564 261.461544305 700 270 700 c 2
 305 700 l 2
 313.8687789 700 322.098627045 698.198617029 328.63518419 693.004466922 c 0
 337.021078242 686.340776615 340 676.020940777 340 665 c 2
 340 277.176794979 l 1
 382.144529003 278.710771835 408.333534479 290.227710311 424.101816368 311.754938729 c 0
 437.911769423 330.608610671 445 359.234542051 445 400 c 2
 445 665 l 2
 445 676.319320242 448.50922397 686.565417946 456.852896126 693.064699415 c 0
EndSplineSet
PickledDataWithLists: "(dp0
Vcom.schriftgestaltung.Glyphs.lastChange\\u000d\\u000d\\u000d
p1
V2015-12-22 12:24:48 +0000\\u000d\\u000d\\u000d
p2
s."
EndChar

StartChar: Q
Encoding: 81 81 89
GlifName: Q_
Width: 575
VWidth: 0
Flags: W
AnchorPoint: "mark-top" 288 700 basechar 0
LayerCount: 2
Fore
SplineSet
235 5 m 2
 235 15 l 1
 341 15 l 1
 341 5 l 2
 341 -42.0483098987 348.529049704 -72.528181593 360.389393188 -91.2295401909 c 0
 374.843139386 -114.020169409 396.568062101 -122 427 -122 c 0
 450.847240186 -122 472.385163543 -118.290340941 498.417770227 -108.660964668 c 0
 503.427620311 -106.671192457 508.44717987 -105.524782289 513.513359553 -105.524782204 c 0
 527.419023818 -105.524782204 538.67418709 -115.015878457 544.214255262 -128.110585047 c 2
 544.214255262 -128.110585047 555.214255262 -154.110585047 555.288869569 -154.291910891 c 0
 557.396526583 -159.561053427 558.648293678 -164.87059849 558.648293678 -170.25377367 c 0
 558.648293678 -184.064366534 549.433751026 -194.945231142 535.211880087 -199.474563221 c 0
 501.367136599 -211.759785648 463.45866464 -219.999999531 427 -220 c 0
 372.195695293 -220 318.524131275 -202.570627101 281.839794407 -157.192102396 c 0
 252.574482743 -120.990911868 235 -68.1247054581 235 5 c 2
EndSplineSet
Refer: 74 79 N 1 0 0 1 0 0 2
EndChar

StartChar: R
Encoding: 82 82 90
GlifName: R_
Width: 575
VWidth: 0
Flags: W
AnchorPoint: "mark-bottom" 288 0 basechar 0
AnchorPoint: "mark-top" 288 700 basechar 0
LayerCount: 2
Fore
SplineSet
308.818686443 302 m 1
 180 302 l 1
 180 34.0934643238 l 2
 180 23.5291787789 176.429383125 13.7587773418 168.299505596 7.38561967664 c 0
 161.903253181 2.20128877189 153.753381252 0 145 0 c 2
 110 0 l 2
 101.246618748 0 93.0967468189 2.20128877189 86.700494404 7.38561967664 c 0
 78.5706168755 13.7882244016 75 23.6037698021 75 34.2168674375 c 2
 75 665.783132562 l 2
 75 676.396230198 78.5706168755 686.211775598 86.700494404 692.614380323 c 0
 93.0967468189 697.798711228 101.246618748 700 110 700 c 2
 268 700 l 2
 425.179977883 700 510 613.475483653 510 501.666666667 c 0
 510 431.63375331 474.542207252 365.690931786 411.336733493 331.253464748 c 1
 559.950103332 43.2273532153 l 2
 562.960373345 37.3740504115 564.693432413 31.5731688541 564.693432413 25.7558813888 c 0
 564.693432413 8.88065457792 549.56082767 -3.5527136788e-15 533 0 c 2
 491 0 l 2
 473.562003677 0 460.472092532 8.41456000908 453.049896668 22.783169949 c 2
 308.818686443 302 l 1
268 604 m 2
 180 604 l 1
 180 399 l 1
 268 399 l 2
 364.627635003 399 405 451.470435591 405 501.023255814 c 0
 405 551.452157429 362.627831914 604 268 604 c 2
EndSplineSet
EndChar

StartChar: S
Encoding: 83 83 94
GlifName: S_
Width: 575
VWidth: 0
Flags: W
AnchorPoint: "mark-bottom" 288 0 basechar 0
AnchorPoint: "mark-top" 288 700 basechar 0
LayerCount: 2
Back
SplineSet
467 652 m 258
 458 625 l 258
 453 610 442 605 427 611 c 256
 392 624 354 634 316 634 c 256
 239 634 168 593 168 524 c 256
 168 474 206 421 292 403 c 256
 441 372 514 291 514 195 c 256
 514 69 387 -10 250 -10 c 256
 202 -10 147 0 101 20 c 256
 86 26 82 38 88 53 c 258
 98 77 l 258
 104 92 115 97 130 91 c 256
 169 75 221 69 255 69 c 256
 348 69 428 113 428 190 c 256
 428 246 385 297 284 318 c 256
 138 349 82 434 82 521 c 256
 82 646 196 710 316 710 c 256
 359 710 415 701 456 683 c 256
 471 676 472 668 467 652 c 258
EndSplineSet
Fore
SplineSet
97.1478955852 20.7690271986 m 0
 83.8501163916 26.1418772959 75.3264101108 37.0550887868 75.3264101108 50.5607300001 c 0
 75.3264101108 55.9868201862 76.5731998446 61.3632626423 78.7111304313 66.7080891091 c 2
 88.7111304313 91.7080891091 l 2
 93.9836505527 104.889389413 104.383082429 114.475217796 118.50770955 114.475217796 c 0
 123.603002777 114.475217796 128.737669582 113.276622107 133.789208039 111.256006724 c 0
 170.966634644 96.0037291422 222.276453956 89 255 89 c 0
 346.228065436 89 418 130.338314057 418 196.536661466 c 0
 418 265.509509331 355.243452546 286.425775755 275.664494799 311.69674333 c 0
 182.85153337 341.170280118 72 376.379487439 72 517.209048362 c 0
 72 645.848752572 193.340544228 710 316 710 c 0
 360.386032139 710 417.275265615 700.923888008 460.116673751 682.115464924 c 0
 471.768674647 676.677864505 480.149105056 667.777988959 480.149105056 655.344713459 c 0
 480.149105056 649.627541884 478.630668161 644.199100238 476.399743454 638.570361282 c 0
 473.385930058 629.528921094 470.822624735 620.126298805 467.288869569 611.291910891 c 0
 462.168877032 598.491929548 452.440246899 588.524782204 438.305578111 588.524782204 c 0
 433.269522111 588.524782204 428.301734971 589.707200799 423.291910891 591.711130431 c 0
 389.5579486 605.204715347 352.377242409 614 316 614 c 0
 241.288030557 614 178 575.876169447 178 517.105590062 c 0
 178 446.630603344 242.538894514 424.632312727 323.167829281 398.410737362 c 0
 415.13692856 368.501193413 524 333.23732868 524 198.322981366 c 0
 524 63.684418268 391.566710842 -10 250 -10 c 0
 200.672038036 -10 144.634031146 0.148319939277 97.1478955852 20.7690271986 c 0
EndSplineSet
EndChar

StartChar: Sigma
Encoding: 931 931 99
GlifName: S_igma
Width: 575
VWidth: 0
Flags: W
AnchorPoint: "mark-top" 288 700 basechar 0
LayerCount: 2
Back
SplineSet
525 674 m 257
 525 647 l 257
 525 631 516 622 500 622 c 258
 173 622 l 257
 429 367 l 258
 441 356 441 344 429 332 c 258
 173 77 l 257
 500 77 l 258
 516 77 525 68 525 52 c 258
 525 25 l 258
 525 9 516 0 500 0 c 258
 77 0 l 258
 61 0 52 9 52 26 c 258
 52 43 l 258
 52 57 54 65 61 73 c 257
 337 349 l 257
 61 626 l 257
 54 634 52 642 52 656 c 258
 52 673 l 258
 52 690 61 699 77 699 c 258
 500 699 l 258
 516 699 525 690 525 674 c 257
469 624 m 258
 106 624 l 258
 90 624 81 632 81 649 c 258
 81 675 l 258
 81 692 90 700 106 700 c 258
 469 700 l 258
 485 700 494 692 494 675 c 258
 494 649 l 258
 494 632 485 624 469 624 c 258
127 403 m 258
 448 403 l 258
 464 403 473 394 473 378 c 258
 473 351 l 258
 473 335 464 326 448 326 c 258
 127 326 l 258
 111 326 102 335 102 351 c 258
 102 378 l 258
 102 394 111 403 127 403 c 258
84 77 m 258
 491 77 l 258
 507 77 516 68 516 52 c 258
 516 25 l 258
 516 9 507 0 491 0 c 258
 84 0 l 258
 68 0 59 9 59 25 c 258
 59 52 l 258
 59 68 68 77 84 77 c 258
EndSplineSet
Fore
SplineSet
527.614380323 688.299505596 m 0
 532.798711228 681.903253181 535 673.753381252 535 665 c 2
 535 638 l 2
 535 629.246618748 532.798711228 621.096746819 527.614380323 614.700494404 c 0
 521.024900642 606.570616875 510.92286565 603 500 603 c 2
 190.08586842 603 l 1
 391.175223876 382.689492591 l 2
 398.223248238 376.336185151 403 368.478984844 403 359.499524715 c 0
 403 350.548123038 398.336655022 342.611568425 391.429696253 335.85260195 c 2
 187.173225521 97 l 1
 500 97 l 2
 510.92286565 97 521.024900642 93.4293831245 527.614380323 85.299505596 c 0
 532.798711228 78.9032531811 535 70.7533812524 535 62 c 2
 535 35 l 2
 535 26.2466187476 532.798711228 18.0967468189 527.614380323 11.700494404 c 0
 521.024900642 3.57061687548 510.92286565 -1.7763568394e-15 500 0 c 2
 77 0 l 2
 66.0775920563 0 55.8724350712 3.50336104116 49.2866813476 11.6627939215 c 0
 44.1277328296 18.0544836101 42 26.1647822835 42 35 c 2
 42 51.5277777778 l 2
 42 65.9282270029 44.5283527528 77.0905518582 53.3710561088 86.9789232057 c 2
 283.863288386 358.545218533 l 1
 53.4723131055 612.908208403 l 2
 44.5476383195 622.824513721 42 634.016956034 42 648.472222222 c 2
 42 665 l 2
 42 673.835217717 44.1277328296 681.94551639 49.2866813476 688.337206078 c 0
 55.8724350712 696.496638959 66.0775920563 700 77 700 c 2
 500 700 l 2
 510.92286565 700 521.024900642 696.429383125 527.614380323 688.299505596 c 0
EndSplineSet
PickledDataWithLists: "(dp0
Vcom.schriftgestaltung.Glyphs.lastChange\\u000d\\u000d\\u000d
p1
V2016-05-30 08:32:22 +0000\\u000d\\u000d\\u000d
p2
s."
EndChar

StartChar: T
Encoding: 84 84 100
GlifName: T_
Width: 575
VWidth: 0
Flags: W
AnchorPoint: "mark-bottom" 288 -0 basechar 0
AnchorPoint: "mark-top" 288 700 basechar 0
LayerCount: 2
Fore
SplineSet
556.614380323 688.299505596 m 0
 561.798711228 681.903253181 564 673.753381252 564 665 c 2
 564 639 l 2
 564 628.07713435 560.429383125 617.975099358 552.299505596 611.385619677 c 0
 545.903253181 606.201288772 537.753381252 604 529 604 c 2
 340 604 l 1
 340 33.8782051282 l 2
 340 25.4053809672 337.798711228 17.5167228824 332.614380323 11.3254785577 c 0
 326.024900642 3.4561740269 315.92286565 0 305 0 c 2
 270 0 l 2
 261.246618748 0 253.096746819 2.20128877189 246.700494404 7.38561967664 c 0
 238.570616875 13.7613683812 235 23.5357420243 235 34.1043225327 c 2
 235 604 l 1
 47 604 l 2
 38.2466187476 604 30.0967468189 606.201288772 23.700494404 611.385619677 c 0
 15.5706168755 617.975099358 12 628.07713435 12 639 c 2
 12 665 l 2
 12 675.92286565 15.5706168755 686.024900642 23.700494404 692.614380323 c 0
 30.0967468189 697.798711228 38.2466187476 700 47 700 c 2
 529 700 l 2
 539.92286565 700 550.024900642 696.429383125 556.614380323 688.299505596 c 0
EndSplineSet
PickledDataWithLists: "(dp0
Vcom.schriftgestaltung.Glyphs.lastChange\\u000d\\u000d\\u000d
p1
V2016-06-09 18:35:33 +0000\\u000d\\u000d\\u000d
p2
s."
EndChar

StartChar: Theta
Encoding: 920 920 104
GlifName: T_heta
Width: 575
VWidth: 0
Flags: W
AnchorPoint: "mark-top" 288 700 basechar 0
LayerCount: 2
Fore
SplineSet
227.700494404 309.385619677 m 0
 219.570616875 315.975099358 216 326.07713435 216 337 c 2
 216 364 l 2
 216 374.92286565 219.570616875 385.024900642 227.700494404 391.614380323 c 0
 234.096746819 396.798711228 242.246618748 399 251 399 c 2
 320 399 l 2
 330.92286565 399 341.024900642 395.429383125 347.614380323 387.299505596 c 0
 352.798711228 380.903253181 355 372.753381252 355 364 c 2
 355 337 l 2
 355 328.246618748 352.798711228 320.096746819 347.614380323 313.700494404 c 0
 341.024900642 305.570616875 330.92286565 302 320 302 c 2
 251 302 l 2
 242.246618748 302 234.096746819 304.201288772 227.700494404 309.385619677 c 0
EndSplineSet
Refer: 74 79 N 1 0 0 1 0 0 2
PickledDataWithLists: "(dp0
Vcom.schriftgestaltung.Glyphs.lastChange\\u000d\\u000d\\u000d
p1
V2016-05-30 08:32:14 +0000\\u000d\\u000d\\u000d
p2
s."
EndChar

StartChar: Thorn
Encoding: 222 222 105
GlifName: T_horn
Width: 575
VWidth: 0
Flags: W
LayerCount: 2
Fore
SplineSet
180 121.62045347 m 1
 180 34.2168674375 l 2
 180 23.6037698021 176.429383125 13.7882244016 168.299505596 7.38561967664 c 0
 161.903253181 2.20128877189 153.753381252 0 145 0 c 2
 110 0 l 2
 101.246618748 0 93.0967468189 2.20128877189 86.700494404 7.38561967664 c 0
 78.5706168755 13.7882244016 75 23.6037698021 75 34.2168674375 c 2
 75 665.783132562 l 2
 75 676.396230198 78.5706168755 686.211775598 86.700494404 692.614380323 c 0
 93.0967468189 697.798711228 101.246618748 700 110 700 c 2
 145 700 l 2
 153.753381252 700 161.903253181 697.798711228 168.299505596 692.614380323 c 0
 176.429383125 686.211775598 180 676.396230198 180 665.783132562 c 2
 180 639.643241996 l 1
 211.705257905 642.644422953 238.992796183 643.435403181 259 643.435403181 c 0
 352.676983254 643.435403181 417.924594991 620.377750366 456.560147441 565.917806958 c 0
 487.19743773 522.732062494 500 461.875189253 500 381.092493052 c 0
 500 300.325177277 487.403728573 239.298262425 456.915329395 195.898773683 c 0
 418.458635425 141.156612664 353.248604268 117.777942516 259 117.777942516 c 0
 240.653066958 117.777942516 213.358102217 118.579868059 180 121.62045347 c 1
372.37304044 254.790644606 m 0
 388.075702561 281.368595879 395 322.612914026 395 382 c 0
 395 440.080041316 388.462889719 481.009677491 372.99556899 507.619050136 c 0
 354.159579207 540.023749054 320.923207602 555 259 555 c 0
 242.486901326 555 214.403662812 552.693351615 180 552.693351615 c 1
 180 211.255429339 l 1
 212.804639004 208.830594178 258.258234788 208.000367752 259 208 c 0
 319.86030579 207.969826724 353.240411192 222.407212804 372.37304044 254.790644606 c 0
EndSplineSet
Validated: 1
PickledDataWithLists: "(dp0
Vcom.schriftgestaltung.Glyphs.lastChange\\u000d\\u000d\\u000d
p1
V2016-06-09 18:35:33 +0000\\u000d\\u000d\\u000d
p2
s."
EndChar

StartChar: U
Encoding: 85 85 106
GlifName: U_
Width: 575
VWidth: 0
Flags: W
AnchorPoint: "mark-top" 288 700 basechar 0
AnchorPoint: "mark-bottom" 288 0 basechar 0
AnchorPoint: "mark-ogonek" 355 5 basechar 0
AnchorPoint: "topright" 555 700 basechar 0
LayerCount: 2
Fore
SplineSet
381.590294018 121.144543703 m 0
 396.540129234 141.132441741 405 172.34247503 405 218.678233438 c 2
 405 666.104100946 l 2
 405 674.581350298 407.201288772 682.474128475 412.385619677 688.668606366 c 0
 418.975099358 696.542020881 429.07713435 700 440 700 c 2
 475 700 l 2
 485.92286565 700 496.024900642 696.527208244 502.614380323 688.620067087 c 0
 507.798711228 682.399054464 510 674.472466698 510 665.95890411 c 2
 510 216.616438356 l 2
 510 124.389777283 480.066257495 63.8768880014 430.86373354 28.8453900644 c 0
 391.721672958 0.976799099986 341.794774794 -10 288 -10 c 0
 234.204054114 -10 184.095844756 0.972747273239 144.742217899 28.8179114565 c 0
 95.271358372 63.8216535717 65 124.320871395 65 216.551193933 c 2
 65 665.764290916 l 2
 65 676.384841363 68.5706168755 686.207279512 76.700494404 692.614380323 c 0
 83.0967468189 697.798711228 91.2466187476 700 100 700 c 2
 135 700 l 2
 143.753381252 700 151.903253181 697.798711228 158.299505596 692.614380323 c 0
 166.429383125 686.235220734 170 676.455618016 170 665.881383549 c 2
 170 218.627294735 l 2
 170 172.307117008 178.461142362 141.122564024 193.482883399 121.150531449 c 0
 211.96521108 96.5775042892 242.169223681 86 288 86 c 0
 333.246705596 86 363.199826953 96.5565281654 381.590294018 121.144543703 c 0
EndSplineSet
EndChar

StartChar: V
Encoding: 86 86 117
GlifName: V_
Width: 575
VWidth: 0
Flags: W
AnchorPoint: "mark-bottom" 288 0 basechar 0
AnchorPoint: "mark-top" 288 700 basechar 0
LayerCount: 2
Fore
SplineSet
258.765876537 104.571613239 m 2
 261.386949612 93.1488610181 273.849667083 86 288 86 c 0
 302.150332917 86 314.308776974 93.2183505893 317.234535159 104.571507706 c 2
 463.336519341 671.507897054 l 2
 467.844860799 687.88085637 479.8825758 700 501 700 c 2
 537 700 l 2
 554.619945701 700 569.375577146 689.310331774 569.375577146 671.629545002 c 0
 569.375577146 667.970467873 568.776242857 664.261919109 567.656104917 660.498104884 c 2
 419.721488211 84.0006690396 l 2
 404.4968915 22.6553762246 350.53378791 -10 288 -10 c 0
 225.436811698 -10 171.568655671 22.7263372811 155.296803705 83.9057972762 c 2
 155.296803705 83.9057972762 7.2968037054 660.521697095 7.26526370961 660.648204996 c 0
 6.43808921254 664.066566479 5.99054230104 667.424729114 5.99054230104 670.740195511 c 0
 5.99054230104 679.797280044 9.68711854111 688.462643464 17.4170396687 693.872526958 c 0
 23.4289175655 698.199568661 30.8760394109 700 39 700 c 2
 74 700 l 2
 94.9575836487 700 108.139332937 688.193919939 111.754937282 671.159515029 c 2
 258.765876537 104.571613239 l 2
EndSplineSet
EndChar

StartChar: W
Encoding: 87 87 118
GlifName: W_
Width: 575
VWidth: 0
Flags: W
AnchorPoint: "mark-top" 288 700 basechar 0
AnchorPoint: "mark-bottom" 288 0 basechar 0
LayerCount: 2
Back
SplineSet
545 675 m 262
 525 20 l 262
 525 4 516 -5 498 -5 c 262
 482 -5 l 262
 454 -5 435 6 423 31 c 262
 288 301 l 261
 153 31 l 262
 141 6 122 -5 94 -5 c 262
 78 -5 l 262
 60 -5 51 4 51 20 c 262
 31 675 l 262
 31 690 42 700 57 700 c 262
 91 700 l 262
 106 700 115 690 116 675 c 262
 134 160 l 261
 245 382 l 262
 251 395 260 400 274 400 c 262
 302 400 l 262
 316 400 325 395 331 382 c 262
 442 160 l 261
 460 675 l 262
 461 690 470 700 485 700 c 262
 519 700 l 262
 534 700 545 690 545 675 c 262
EndSplineSet
Fore
Refer: 67 77 N 1 0 0 -1 0 700 2
EndChar

StartChar: X
Encoding: 88 88 123
GlifName: X_
Width: 575
VWidth: 0
Flags: W
AnchorPoint: "mark-top" 288 700 basechar 0
AnchorPoint: "mark-bottom" 288 0 basechar 0
LayerCount: 2
Fore
SplineSet
439.980860351 677.087593594 m 2
 447.713013383 693.165314707 462.346832418 700 479 700 c 2
 510 700 l 2
 526.448573128 700 541.693432413 691.288071188 541.693432413 674.614682652 c 0
 541.693432413 668.921890076 539.946624016 663.300105452 536.93924626 657.728824269 c 2
 536.93924626 657.728824269 402.019303351 384.752646329 401.950103332 384.615422524 c 0
 396.37962611 373.786170851 387.408747784 364.404041618 376.455790013 357.120451206 c 1
 387.605137235 349.791802583 396.371528654 340.188871269 401.918074693 330.176337749 c 2
 544.147247643 42.9670996969 l 2
 546.756558598 37.2604080813 548.259293918 31.6581302446 548.259293918 26.0689380883 c 0
 548.259293918 17.7395791526 544.365880065 9.82267877351 536.981552085 5.15524808594 c 0
 531.291556993 1.45523940898 524.457440313 0 517 0 c 2
 486 0 l 2
 468.77613301 0 454.66730343 8.04731885676 447.04346508 22.8258362726 c 2
 309.049896668 291.29026941 l 2
 299.120957539 310.53713603 290.937976399 315 288 315 c 0
 283.759437134 315 275.813711199 310.361546887 267.038022513 291.460061872 c 2
 127.950103332 22.8133463331 l 2
 120.527907468 8.42570512167 107.437996323 -3.5527136788e-15 90 0 c 2
 59 0 l 2
 51.3967940439 0 44.4129015985 1.51809837046 38.6025357272 5.26330321486 c 0
 31.0908401349 9.96869404807 26.9169034682 17.9881291082 26.9169034682 26.6359208584 c 0
 26.9169034682 32.0938390489 28.4031962463 37.5950938675 30.9238810694 43.1068080738 c 2
 173.956923972 329.859816061 l 2
 178.930030425 340.277451267 188.047601686 349.851596395 198.963508429 357.049429406 c 1
 188.189549326 364.235864778 178.923070654 373.59463414 173.899106846 384.840401683 c 2
 37.9463839704 657.828082989 l 2
 35.3142700615 663.263704896 33.7610251933 668.700453144 33.7610251933 674.206424973 c 0
 33.7610251933 682.57230707 37.937838926 690.440065565 45.4803975939 694.974857084 c 0
 51.29041689 698.569291616 58.2581612008 700 66 700 c 2
 97 700 l 2
 113.864059053 700 127.466314453 692.788593467 135.012669219 677.101085469 c 2
 267.045166857 422.522296035 l 2
 275.819633542 404.595966249 283.717866526 400 288 400 c 0
 291.392642249 400 299.273188598 403.782882415 309.043122989 422.692432849 c 2
 439.980860351 677.087593594 l 2
EndSplineSet
EndChar

StartChar: Xi
Encoding: 926 926 124
GlifName: X_i
Width: 575
VWidth: 0
Flags: W
AnchorPoint: "mark-top" 288 700 basechar 0
LayerCount: 2
Fore
SplineSet
492.147103874 610.935300585 m 0
 485.638298075 605.865283436 477.538455695 604 469 604 c 2
 106 604 l 2
 97.4615443048 604 89.361701925 605.865283436 82.8528961258 610.935300585 c 0
 74.5092239702 617.434582054 71 627.680679758 71 639 c 2
 71 665 l 2
 71 676.319320242 74.5092239702 686.565417946 82.8528961258 693.064699415 c 0
 89.361701925 698.134716564 97.4615443048 700 106 700 c 2
 469 700 l 2
 477.538455695 700 485.638298075 698.134716564 492.147103874 693.064699415 c 0
 500.49077603 686.565417946 504 676.319320242 504 665 c 2
 504 639 l 2
 504 627.680679758 500.49077603 617.434582054 492.147103874 610.935300585 c 0
103.700494404 391.614380323 m 0
 110.096746819 396.798711228 118.246618748 399 127 399 c 2
 448 399 l 2
 458.92286565 399 469.024900642 395.429383125 475.614380323 387.299505596 c 0
 480.798711228 380.903253181 483 372.753381252 483 364 c 2
 483 337 l 2
 483 328.246618748 480.798711228 320.096746819 475.614380323 313.700494404 c 0
 469.024900642 305.570616875 458.92286565 302 448 302 c 2
 127 302 l 2
 118.246618748 302 110.096746819 304.201288772 103.700494404 309.385619677 c 0
 95.5706168755 315.975099358 92 326.07713435 92 337 c 2
 92 364 l 2
 92 374.92286565 95.5706168755 385.024900642 103.700494404 391.614380323 c 0
56.3856196766 85.299505596 m 0
 62.9750993576 93.4293831245 73.07713435 97 84 97 c 2
 491 97 l 2
 501.92286565 97 512.024900642 93.4293831245 518.614380323 85.299505596 c 0
 523.798711228 78.9032531811 526 70.7533812524 526 62 c 2
 526 35 l 2
 526 26.2466187476 523.798711228 18.0967468189 518.614380323 11.700494404 c 0
 512.024900642 3.57061687548 501.92286565 -1.7763568394e-15 491 0 c 2
 84 0 l 2
 75.2466187476 0 67.0967468189 2.20128877189 60.700494404 7.38561967664 c 0
 52.5706168755 13.9750993576 49 24.07713435 49 35 c 2
 49 62 l 2
 49 70.7533812524 51.2012887719 78.9032531811 56.3856196766 85.299505596 c 0
EndSplineSet
PickledDataWithLists: "(dp0
Vcom.schriftgestaltung.Glyphs.lastChange\\u000d\\u000d\\u000d
p1
V2015-12-22 12:18:54 +0000\\u000d\\u000d\\u000d
p2
s."
EndChar

StartChar: Y
Encoding: 89 89 125
GlifName: Y_
Width: 575
VWidth: 0
Flags: W
AnchorPoint: "mark-top" 288 700 basechar 0
AnchorPoint: "mark-bottom" 288 0 basechar 0
LayerCount: 2
Fore
SplineSet
456.984241953 676.331111019 m 2
 464.717279535 692.939550604 479.349259817 700 496 700 c 2
 532 700 l 2
 548.726295334 700 563.866405033 691.554619604 563.866405033 675.033973032 c 0
 563.866405033 669.149330616 562.007944037 663.38480923 558.903966245 657.654828562 c 2
 414.003778016 374.934180175 l 2
 398.024560714 342.892520481 372.258454371 320.357942251 340 308.962852987 c 1
 340 34.0277777778 l 2
 340 25.5175460046 337.798711228 17.5940594073 332.614380323 11.3754806705 c 0
 326.024900642 3.47143307338 315.92286565 0 305 0 c 2
 270 0 l 2
 261.246618748 0 253.096746819 2.20128877189 246.700494404 7.38561967664 c 0
 238.570616875 13.7901611958 235 23.6086758082 235 34.224983916 c 2
 235 309.07763933 l 1
 202.747413925 320.458393599 177.022889241 342.904446625 161.043774279 374.936413064 c 2
 16.0958184777 657.66778717 l 2
 13.0669582725 663.259789175 11.3065675868 668.902602551 11.3065675868 674.616969554 c 0
 11.3065675868 691.288856025 26.5514268715 700 43 700 c 2
 80 700 l 2
 96.8665649694 700 110.470356837 692.545998487 118.016032871 676.330561371 c 2
 253.902284214 404.558058685 l 2
 262.747849207 387.803357312 274.582767269 380 288 380 c 0
 301.459955801 380 312.806692784 387.976012681 320.955129719 404.272886551 c 2
 456.984241953 676.331111019 l 2
EndSplineSet
EndChar

StartChar: Z
Encoding: 90 90 130
GlifName: Z_
Width: 575
VWidth: 0
Flags: W
AnchorPoint: "mark-top" 288 700 basechar 0
AnchorPoint: "mark-bottom" 288 0 basechar 0
LayerCount: 2
Fore
SplineSet
160.610893897 97 m 1
 485 97 l 2
 495.92286565 97 506.024900642 93.4293831245 512.614380323 85.299505596 c 0
 517.798711228 78.9032531811 520 70.7533812524 520 62 c 2
 520 35 l 2
 520 26.2466187476 517.798711228 18.0967468189 512.614380323 11.700494404 c 0
 506.024900642 3.57061687548 495.92286565 -1.7763568394e-15 485 0 c 2
 90 0 l 2
 81.2466187476 0 73.0967468189 2.20128877189 66.700494404 7.38561967664 c 0
 58.5706168755 13.7613683812 55 23.5357420243 55 34.1043225327 c 2
 55 63.1312670557 l 2
 55 149.263189968 82.6014111776 223.49620848 133.93031875 273.160253564 c 2
 372.93031875 504.40824493 l 2
 393.904767911 524.702384003 408.89399797 559.22367563 413.224568086 604 c 1
 121 604 l 2
 112.246618748 604 104.096746819 606.201288772 97.700494404 611.385619677 c 0
 89.5706168755 617.975099358 86 628.07713435 86 639 c 2
 86 665 l 2
 86 675.92286565 89.5706168755 686.024900642 97.700494404 692.614380323 c 0
 104.096746819 697.798711228 112.246618748 700 121 700 c 2
 485 700 l 2
 495.92286565 700 506.024900642 696.544009669 512.614380323 688.675123394 c 0
 517.798711228 682.484208135 520 674.595969334 520 666.123595506 c 2
 520 637.086677368 l 2
 520 564.034681986 492.085009736 495.721067871 441.06968125 446.343470636 c 2
 203.06968125 215.983920074 l 2
 180.271218315 193.91735001 164.761998751 152.657872143 160.610893897 97 c 1
EndSplineSet
EndChar

StartChar: a
Encoding: 97 97 135
GlifName: a
Width: 575
VWidth: 0
Flags: HW
AnchorPoint: "mark-bottom" 288 0 basechar 0
AnchorPoint: "mark-ogonek" 445 5 basechar 0
AnchorPoint: "mark-top" 288 500 basechar 0
LayerCount: 2
Fore
SplineSet
417.095438751 476.458286078 m 0
 462.323920992 445.060113775 486 392.269287772 486 316.661424374 c 2
 486 37.6063163373 l 2
 486 29.3612640937 484.089917074 21.6876507773 479.35177393 15.4185846063 c 0
 473.333557891 7.45584616055 463.812773418 3.34792873207 453.208571717 2.0724301755 c 0
 394.990521933 -4.9538861778 337.680325827 -10 288 -10 c 0
 147.792291114 -10 67 76.7423376885 67 158.941860465 c 0
 67 241.366488314 140.1796875 314 291 314 c 2
 380.9453125 314 l 1
 379.97265625 353.475585938 366.081776984 386.157595004 342.54712557 399.5019745 c 0
 322.591736235 410.816877091 293.854350258 416 257 416 c 0
 226.871897266 416 195.46911968 412.094172469 165.851291709 406.171342727 c 0
 162.446551177 405.532953877 159.108545317 405.175050354 155.80706159 405.175050354 c 0
 149.220153491 405.175050354 142.705233227 406.640943592 137.13416205 410.457117576 c 0
 130.056659602 415.305194339 125.871030664 423.084286854 124.179951386 432.103376338 c 2
 119.171342727 458.148708291 l 2
 118.580041368 461.302315539 118.254566495 464.38618248 118.254566495 467.431812546 c 0
 118.254566495 475.970276115 121.067956101 484.233589143 127.484851335 490.164728793 c 0
 132.49812117 494.798496746 138.92741001 497.466309443 146.087199021 498.817088604 c 0
 191.791440037 507.953641942 238.294870477 511.999999969 276 512 c 0
 333.220482126 512 381.167569612 501.399857623 417.095438751 476.458286078 c 0
381 89.8013124332 m 1
 381 237 l 1
 291 237 l 2
 205.876953125 237 173 186.814868016 173 157.868421053 c 0
 173 128.65463372 211.24501458 85 294 85 c 0
 319.73183105 85 350.820442513 87.284949464 381 89.8013124332 c 1
EndSplineSet
EndChar

StartChar: a.hex
Encoding: 65543 -1 136
GlifName: a.hex
Width: 575
VWidth: 0
Flags: W
AnchorPoint: "ogonek" 518 5 basechar 0
AnchorPoint: "top" 288 550 basechar 0
LayerCount: 2
Fore
SplineSet
112.299505596 892.614380323 m 0
 120.429383125 886.024900642 124 875.92286565 124 865 c 2
 124 819 l 2
 124 807.680679758 120.49077603 797.434582054 112.147103874 790.935300585 c 0
 105.638298075 785.865283436 97.5384556952 784 89 784 c 2
 54 784 l 2
 42.6806797579 784 32.4345820537 787.50922397 25.9353005852 795.852896126 c 0
 20.8652834364 802.361701925 19 810.461544305 19 819 c 2
 19 865 l 2
 19 875.92286565 22.5706168755 886.024900642 30.700494404 892.614380323 c 0
 37.0967468189 897.798711228 45.2466187476 900 54 900 c 2
 89 900 l 2
 97.7533812524 900 105.903253181 897.798711228 112.299505596 892.614380323 c 0
404.614380323 888.299505596 m 0
 409.798711228 881.903253181 412 873.753381252 412 865 c 2
 412 819 l 2
 412 807.680679758 408.49077603 797.434582054 400.147103874 790.935300585 c 0
 393.638298075 785.865283436 385.538455695 784 377 784 c 2
 342 784 l 2
 330.680679758 784 320.434582054 787.50922397 313.935300585 795.852896126 c 0
 308.865283436 802.361701925 307 810.461544305 307 819 c 2
 307 865 l 2
 307 873.753381252 309.201288772 881.903253181 314.385619677 888.299505596 c 0
 320.975099358 896.429383125 331.07713435 900 342 900 c 2
 377 900 l 2
 387.92286565 900 398.024900642 896.429383125 404.614380323 888.299505596 c 0
412.921039072 485.008460178 m 0
 457.35132433 452.781664969 480 398.716262548 480 321.382022472 c 2
 480 37.8988764045 l 2
 480 29.5229919209 478.089917074 21.7276139399 473.35177393 15.3590704162 c 0
 467.333557891 7.26997947715 457.812773418 3.09687773892 447.208571717 1.80113960976 c 0
 389.036527843 -5.06185433051 334.689066923 -10 285 -10 c 0
 146.115112633 -10 67 58.1676645558 67 139.01618123 c 0
 67 219.819504046 145.117047376 289 288 289 c 2
 375 289 l 1
 375 319 l 2
 375 365.868920513 360.956418888 392.061800094 337.050709763 407.132531433 c 0
 317.508464422 419.45243074 289.520360135 425 254 425 c 0
 223.879822294 425 194.555621858 421.198855536 164.851291709 415.392211429 c 0
 161.643861397 414.804332699 158.480551788 414.491573034 155.361111111 414.491573034 c 0
 139.350601083 414.491573034 125.434482142 424.225234479 123.088095797 441.66808192 c 0
 121.832146791 450.670757591 121.073035367 459.781935812 120.068835142 468.819737834 c 0
 119.755764163 471.344096691 119.582429649 473.81594699 119.582429649 476.255308316 c 0
 119.582429649 483.068918683 120.951755674 489.776867701 124.832992817 495.546713405 c 0
 129.77073682 502.887161816 137.821336687 507.067888879 147.086751126 508.817000099 c 0
 190.767659476 517.549714068 269.916925123 522.025688602 273.131246944 522.020200123 c 0
 330.286551263 522.003363578 377.648319662 510.96541296 412.921039072 485.008460178 c 0
375 89.6940919624 m 1
 375 192 l 1
 288 192 l 2
 206.055914518 192 173 163.464921445 173 138.042735043 c 0
 173 112.80007487 205.742355349 85 291 85 c 0
 316.699773806 85 345.253016371 87.2286075684 375 89.6940919624 c 1
EndSplineSet
Validated: 33
PickledDataWithLists: "(dp0
Vcom.schriftgestaltung.Glyphs.lastChange\\u000d\\u000d\\u000d
p1
V2016-06-09 18:35:34 +0000\\u000d\\u000d\\u000d
p2
s."
EndChar

StartChar: ae
Encoding: 230 230 142
GlifName: ae
Width: 575
VWidth: 0
Flags: W
AnchorPoint: "mark-top" 288 500 basechar 0
LayerCount: 2
Fore
SplineSet
135.132765813 498.825654596 m 0
 172.799275161 505.951750959 215.257415018 510 252 510 c 0
 413.973039852 510 494 420.682128167 494 268.116883117 c 2
 494 245.863636364 l 2
 494 237.394455801 491.798711228 229.509190104 486.614380323 223.320608222 c 0
 480.024900642 215.454687756 469.92286565 212 459 212 c 2
 335 212 l 1
 335 83.6201514921 l 1
 356.580099735 84.882558188 382.355966757 87.5318601596 410.32772659 91.5738780244 c 0
 413.301445471 92.0975502907 419.248643318 92.417386291 419.436317047 92.4173538167 c 0
 428.005488714 92.415871041 436.210134407 89.7166595926 442.247825324 83.7721519714 c 0
 446.984475185 79.1086056609 450.061662236 73.1328363971 451.744403957 66.1711548773 c 2
 457.725154846 41.4281521877 l 2
 458.612348705 38.0144299009 459.096995376 34.6412011656 459.096995376 31.2932084663 c 0
 459.096995376 15.1845836463 446.973904308 4.05576028199 429.829418329 1.1672667902 c 0
 376.188937689 -8.76615555066 359.301419096 -9.05678648993 290 -10 c 0
 215.737450755 -10 161.728769455 0.534827031999 123.794045224 22.2574357991 c 0
 75.8133094803 49.7327047522 56.1528915522 94.4828004336 55 151.21646517 c 1
 55 203.503984842 75.6125157741 243.031054153 114.933142961 268.372170286 c 0
 144.216598966 287.244592027 182.935819554 298.037358138 230 302.15134296 c 1
 230 412.506812767 l 1
 208.747370365 411.378628335 182.644711671 409.321731411 156.720741826 405.147010391 c 0
 153.583755744 404.565797756 150.519536902 404.250000785 147.5 404.25 c 0
 131.253194416 404.25 119.525373859 414.712903966 115.319042722 430.48664573 c 2
 108.297757807 457.570239124 l 2
 107.392640525 461.190708248 106.89676158 464.740890226 106.89676158 468.254611813 c 0
 106.89676158 484.975245659 119.105117891 495.820470611 135.132765813 498.825654596 c 0
335 400.960509462 m 1
 335 309 l 1
 388.119612907 309 l 1
 383.91915064 348.000796788 369.575821915 385.52231367 335 400.960509462 c 1
230 78.5560758349 m 1
 230 208.595740313 l 1
 188.78117299 201.97028547 160.939307989 184.834996468 160.000083737 139.899858397 c 0
 160.055378602 108.253850124 186.325279282 86.2959320784 230 78.5560758349 c 1
EndSplineSet
PickledDataWithLists: "(dp0
Vcom.schriftgestaltung.Glyphs.lastChange\\u000d\\u000d\\u000d
p1
V2016-06-09 18:35:33 +0000\\u000d\\u000d\\u000d
p2
s."
EndChar

StartChar: alpha
Encoding: 945 945 144
GlifName: alpha
Width: 575
VWidth: 0
Flags: W
AnchorPoint: "mark-top" 288 500 basechar 0
LayerCount: 2
Back
SplineSet
610 250 m 259
 610 430 716 510 826 510 c 259
 930 510 1007 430 1014 250 c 257
 1010 64.9775390625 924 -10 826 -10 c 259
 716 -10 610 70 610 250 c 259
695 250 m 259
 695 132 753 66 823 66 c 259
 893 66 950 132 950 250 c 259
 950 368 893 434 823 434 c 259
 753 434 695 368 695 250 c 259
1096 0 m 259
 950 0 950 128 950 250 c 3
 950 291.122070312 962.838867188 370.517578125 976 410 c 0
 982 430 991 458 997 478 c 1
 1002 495 1011 500 1027 500 c 258
 1065 500 l 258
 1082 500 1088 487 1083 471 c 0
 1066.1796875 417.950195312 1026 334.5546875 1026 250 c 3
 1026 127 1026 77 1096 77 c 259
 1112 77 1121 68 1121 52 c 258
 1121 25 l 258
 1121 9 1112 0 1096 0 c 259
38 250 m 259
 38 430 144 510 254 510 c 259
 358 510 435 430 442 250 c 257
 429 69.9777791494 349 -10 254 -10 c 259
 144 -10 38 70 38 250 c 259
123 250 m 259
 123 132 181 66 251 66 c 259
 321 66 378 132 378 250 c 259
 378 368 321 434 251 434 c 259
 181 434 123 368 123 250 c 259
533 0 m 259
 425 0 378 72 378 179 c 3
 378 243 383 301 397 354 c 0
 402 374 407 392 413 410 c 0
 419 430 428 458 434 478 c 1
 439 495 448 500 464 500 c 258
 502 500 l 258
 519 500 525 487 520 471 c 1
 507 430 494 388 483 346 c 0
 471 299 463 237 463 179 c 3
 463 120 474 77 533 77 c 259
 549 77 558 68 558 52 c 258
 558 25 l 258
 558 9 549 0 533 0 c 259
378 250 m 0
 378 132 320 66 250 66 c 3
 180 66 123 132 123 250 c 3
 123 368 180 434 250 434 c 3
 320 434 378 368 378 250 c 0
378 59 m 1
 378 -210 l 2
 378 -226 387 -235 403 -235 c 2
 438 -235 l 2
 454 -235 463 -226 463 -210 c 2
 463 250 l 2
 463 430 357 510 247 510 c 3
 137 510 38 430 38 250 c 3
 38 70 137 -10 247 -10 c 3
 310 -10 349 22 378 59 c 1
-46 471 m 0
 -60.037109375 393.008789062 -74.765625 341.299804688 -94.3740234375 272.5625 c 1
 -70.775390625 194.745117188 -48.66796875 99.5849609375 -41 29 c 8
 -39.47265625 14.9423828125 -46 -0 -64 0 c 258
 -101 0 l 258
 -116 0 -124.448242188 4.609375 -126 22 c 0
 -129.022460938 55.865234375 -132.98046875 83.62890625 -142.4765625 125.8125 c 1
 -167.209960938 78.8828125 -204.672851562 33.2919921875 -254.8828125 8.9453125 c 0
 -278.813476562 -2.658203125 -304.767578125 -9.5341796875 -333.92578125 -9.5341796875 c 0
 -366.174804688 -9.5341796875 -396.971679688 -0.5908203125 -423.497070312 14.8408203125 c 0
 -450.946289062 30.810546875 -472.624023438 52.740234375 -489.09375 76.6748046875 c 0
 -524.106445312 127.557617188 -537.5 187.587890625 -537.5 245.196289062 c 0
 -537.5 312.912109375 -519.712890625 384.479492188 -473.061523438 441.017578125 c 0
 -443.3125 477.071289062 -394.451171875 511.942382812 -330.66796875 511.499023438 c 0
 -296.962890625 511.264648438 -265.637695312 500.865234375 -239.25 484.620117188 c 0
 -213.092773438 468.517578125 -192.629882812 447.584960938 -176.038085938 425.883789062 c 0
 -166.569335938 413.499023438 -157.92578125 400.739257812 -149.994140625 387.689453125 c 1
 -141.502929688 427.077148438 -132 478 -132 478 c 2
 -128.668945312 494.670898438 -122 500 -106 500 c 258
 -69 500 l 258
 -52 500 -43.166015625 486.747070312 -46 471 c 0
-294.908203125 76.87890625 m 0
 -282.631835938 82.83203125 -268.569335938 91.720703125 -257.560546875 102.774414062 c 0
 -220.252929688 140.232421875 -192.858398438 199.11328125 -175.765625 258.03125 c 1
 -191.189453125 303.661132812 -215.439453125 347.118164062 -242.961914062 383.116210938 c 0
 -255.424804688 399.416015625 -272.36328125 412.915039062 -286.94140625 420.889648438 c 0
 -314.267578125 435.836914062 -341.807617188 439.485351562 -369.716796875 424.658203125 c 0
 -382.247070312 418.000976562 -394.403320312 407.75 -404.938476562 394.982421875 c 0
 -462.071289062 325.740234375 -470.233398438 194.823242188 -416.90625 117.325195312 c 0
 -405.842773438 101.24609375 -392.188476562 88.1337890625 -377.654296875 79.6787109375 c 0
 -351.4765625 64.44921875 -322.55859375 63.4716796875 -294.908203125 76.87890625 c 0
-671 500 m 258
 -644 500 l 258
 -626 500 -617 492 -621 471 c 256
 -624 455 -632 355 -667 250 c 257
 -632 145 -624 45 -621 29 c 256
 -617 8 -626 0 -644 0 c 258
 -671 0 l 258
 -686 0 -693 5 -697 22 c 256
 -699 32 -703 71 -712 121 c 257
 -753 47 -812 -10 -898 -10 c 259
 -991 -10 -1105 39 -1105 250 c 259
 -1105 461 -991 510 -898 510 c 259
 -812 510 -753 453 -712 379 c 257
 -703 429 -699 468 -697 478 c 256
 -693 495 -686 500 -671 500 c 258
  Spiro
    -671 500 [
    -644 500 ]
    -629.16 497.154 o
    -621.181 487.839 o
    -621 471 o
    -626.473 429.989 o
    -640.205 350.315 o
    -667 250 v
    -640.205 149.685 o
    -626.473 70.0109 o
    -621 29 o
    -621.181 12.161 o
    -629.16 2.84597 o
    -644 0 [
    -671 0 ]
    -683.508 1.92182 o
    -691.821 8.75052 o
    -697 22 o
    -699.774 40.9727 o
    -704.562 75.374 o
    -712 121 v
    -759.279 54.2064 o
    -820.736 7.48498 o
    -898 -10 o
    -992.908 10.4733 o
    -1072.06 88.9304 o
    -1105 250 o
    -1072.06 411.07 o
    -992.908 489.527 o
    -898 510 o
    -820.736 492.515 o
    -759.279 445.794 o
    -712 379 v
    -704.562 424.626 o
    -699.774 459.027 o
    -697 478 o
    -691.821 491.249 o
    -683.508 498.078 o
    0 0 z
  EndSpiro
-1020 250 m 259
 -1020 96 -944 67 -898 67 c 259
 -819 67 -771 155 -729 250 c 257
 -771 345 -819 433 -898 433 c 259
 -944 433 -1020 404 -1020 250 c 259
  Spiro
    -1020 250 o
    -998.631 134.192 o
    -950.02 80.1922 o
    -898 67 o
    -828.469 93.2837 o
    -773.877 160.415 o
    -729 250 v
    -773.877 339.585 o
    -828.469 406.716 o
    -898 433 o
    -950.02 419.808 o
    -998.631 365.808 o
    0 0 z
  EndSpiro
EndSplineSet
Fore
SplineSet
457.824197513 494.788205426 m 0
 464.181894525 498.961825718 471.440971917 500 479 500 c 2
 506 500 l 2
 513.782041633 500 521.159323899 498.831874509 527.512863469 494.859320263 c 0
 535.916632963 489.811029646 539.93818527 480.843490843 539.93818527 470.959382906 c 0
 539.93818527 467.633229449 539.553797748 464.207508917 538.828657273 460.549897462 c 0
 538.422375477 458.46808209 537.710898846 453.211307519 536.765892391 446.016419632 c 0
 532.328967873 412.235513366 521.969083146 333.134835765 493.535453826 250.000005263 c 1
 521.969084071 166.865170343 532.328969486 87.7644874913 536.765892391 53.9835803682 c 0
 537.710898846 46.7886924807 538.417069041 41.5588944093 538.823350838 39.4770790375 c 0
 539.548491312 35.8194675823 539.93818527 32.3667705512 539.93818527 29.0406170941 c 0
 539.93818527 19.1565091567 535.916632963 10.1889703539 527.512863469 5.14067973741 c 0
 521.159323899 1.16812549061 513.782041633 0 506 0 c 2
 479 0 l 2
 471.440971917 0 464.181894525 1.03817428206 457.824197513 5.21179457405 c 0
 449.807971117 10.4741851986 445.285759631 19.5729445103 443.194124059 30.0311223724 c 0
 442.357170488 34.2158902253 441.45713187 41.1158736053 440.137912396 50.9535738941 c 0
 438.395316479 63.9484823852 436.008952128 81.7402847136 432.678732741 102.577220267 c 1
 391.440229801 38.4910747016 333.383974271 -10 252 -10 c 0
 209.159446225 -10 161.362915232 -0.378655806425 121.289357662 29.5287923935 c 0
 70.9796579158 67.0756145455 35 135.251451476 35 250 c 0
 35 364.748548524 70.9796579158 432.924385454 121.289357662 470.471207607 c 0
 161.362915232 500.378655806 209.159446225 510 252 510 c 0
 333.383974426 510 391.440230023 461.508925113 432.678732813 397.42277926 c 1
 436.008952248 418.259715063 438.395316627 436.0515176 440.137912396 449.046426106 c 0
 441.486768097 459.10513004 442.230864388 465.899641607 443.26526371 470.295838725 c 0
 445.703280867 480.657411644 449.696149734 489.452407718 457.824197513 494.788205426 c 0
173.721646985 375.949717333 m 0
 154.727203995 352.204628211 140 313.152095368 140 250 c 0
 140 186.847904632 154.727203995 147.795371789 173.721646985 124.050282667 c 0
 197.32274999 94.5463748914 228.681891579 87 252 87 c 0
 321.783839727 87 368.02307577 161.073163893 410.058310375 250.000001681 c 1
 368.0230754 338.926837641 321.783839642 412.999999667 252 413 c 0
 228.681891579 413 197.32274999 405.453625109 173.721646985 375.949717333 c 0
EndSplineSet
PickledDataWithLists: "(dp0
Vcom.schriftgestaltung.Glyphs.lastChange\\u000d\\u000d\\u000d
p1
V2015-12-22 12:26:38 +0000\\u000d\\u000d\\u000d
p2
s."
EndChar

StartChar: ampersand
Encoding: 38 38 146
GlifName: ampersand
Width: 575
VWidth: 0
Flags: HMW
LayerCount: 2
Fore
SplineSet
503 -10 m 2
 471 -10 l 2
 460.925554712 -10 451.894533556 -7.19317886568 445.0298248 -0.879651104691 c 0
 439.675286531 4.04496073308 435.619576861 10.793565842 433.419907734 18.1257962628 c 0
 428.749421647 33.6940832201 422.165702066 49.9761869695 413.08296427 67.5405385637 c 1
 360.001099987 9.19543619139 295.244170297 -17 233 -17 c 0
 115.507723568 -17 42 63.2626090299 42 180 c 0
 42 249.536747654 74.183853123 323.515415654 149.906956756 381.293162196 c 1
 98.1993507823 436.542139801 73 490.857738315 73 541 c 0
 73 635.86723587 149.087875918 707 248 707 c 0
 349.133929455 707 426 632.633955354 426 534 c 0
 426 489.277673978 407.906239613 443.766877113 372.06968125 407.93031875 c 0
 365.958239164 401.818876664 358.223374932 397.732930994 349.534138012 397.732930994 c 0
 340.042020954 397.732930994 331.378090337 402.482547163 323.93031875 409.93031875 c 2
 303.93031875 429.93031875 l 2
 296.482547163 437.378090337 291.732930994 446.042020954 291.732930994 455.534138012 c 0
 291.732930994 464.223374932 295.818876664 471.958239164 301.93031875 478.06968125 c 0
 317.103489392 493.242851892 325 512.752844239 325 532 c 0
 325 575.399012801 291.804461859 608 247 608 c 0
 207.100535417 608 178 579.286311365 178 542 c 0
 178 514.988284541 193.972730756 479.166631744 238.06968125 435.06968125 c 0
 297.098853269 376.040509231 354.495972708 315.267080412 401.003833278 258.005195663 c 1
 403.575462123 267.051782802 405.655449193 276.525802467 408.336519341 286.579815524 c 0
 412.54132165 302.347824183 424.181462725 313.681906597 441.106258821 313.681906597 c 0
 443.973266977 313.681906597 446.828972125 313.39518943 449.797548635 312.838581335 c 2
 482.851291709 306.828657273 l 2
 499.352187032 303.7347394 511.10323842 291.964784515 511.10323842 275.344557618 c 0
 511.10323842 271.795880458 510.62547867 268.263860627 509.715912868 264.625597417 c 0
 500.096641838 225.186586196 487.720878146 190.206054624 473.40438006 159.685244522 c 1
 502.244922493 113.847535163 522.696671876 71.4692993776 534.681089351 29.5238382159 c 0
 535.475568608 26.1473013767 535.94214294 22.7462531889 535.94214294 19.4476810187 c 0
 535.94214294 9.87674650552 531.836040019 1.07800719207 524.08929095 -4.22165505149 c 0
 518.08046494 -8.33237918327 510.797522355 -10 503 -10 c 2
233 79 m 0
 270.657773301 79 315.899652821 100.091016471 354.683569954 156.566720863 c 1
 319.810911115 201.275996526 275.315639792 252.186082437 218.807631444 310.844348372 c 1
 168.114624634 273.068574025 146 223.511829389 146 180 c 0
 146 149.448806558 152.827590737 126.133052342 164.49192189 109.911134844 c 0
 178.907565345 89.8628889803 201.518014463 79 233 79 c 0
EndSplineSet
Validated: 33
EndChar

StartChar: asciicircum
Encoding: 94 94 150
GlifName: asciicircum
Width: 575
VWidth: 0
Flags: HMW
LayerCount: 2
Fore
SplineSet
288 729 m 0
 322.51294083 729 344.237378008 707.914307054 363.953869679 689.183639967 c 2
 553.070592627 506.070622508 l 2
 560.145583746 498.995631389 564.878751001 490.490659179 564.878751001 480.992794234 c 0
 564.878751001 471.082882138 559.617868517 462.322883192 551.597524709 455.485676043 c 2
 529.753542808 435.627626227 l 2
 522.738535192 429.197202579 514.553824314 424.870922628 505.391489449 424.870922628 c 0
 495.788762863 424.870922628 487.117271882 429.744645517 479.835473559 437.02644384 c 0
 418.335463155 500.225929065 356.779515639 563.369477178 295.314830319 626.604287487 c 0
 291.150745933 631.60118875 290.927336063 632.016508809 289.232251082 632.016508809 c 0
 288.89429685 632.016508809 288.497844112 632 288 632 c 0
 286.492681778 632 282.420822651 629.28274005 279.164526441 626.02644384 c 2
 95.2644849255 437.129118588 l 2
 88.4509182537 429.741354843 80.0189544381 424.870922628 70.4914904781 424.870922628 c 0
 61.4443645783 424.870922628 53.3329271707 429.162198484 46.3484226062 435.534379028 c 0
 38.6559141067 442.223516853 30.7604692928 448.739781802 23.2464571922 455.627626227 c 0
 15.6472754196 462.593542852 10.4843930376 471.392954983 10.4843930376 481.38992219 c 0
 10.4843930376 490.578172835 14.7725267573 499.140962693 21.9294073003 506.070622586 c 2
 211.106133714 689.241260388 l 2
 231.973163569 709.114622155 253.67512266 729 288 729 c 0
EndSplineSet
PickledDataWithLists: "(dp0
Vcom.schriftgestaltung.Glyphs.lastChange\\u000d\\u000d\\u000d
p1
V2015-12-22 14:26:04 +0000\\u000d\\u000d\\u000d
p2
s."
EndChar

StartChar: asciitilde
Encoding: 126 126 151
GlifName: asciitilde
Width: 575
VWidth: 0
Flags: HMW
LayerCount: 2
Fore
SplineSet
486 378 m 2
 515 378 l 2
 525.559637953 378 535.416578074 374.154573077 541.493261865 365.63636455 c 0
 546.196902648 359.042868095 548 350.901898772 548 342 c 0
 548 299.701354542 538.850478149 264.932840419 520.244071782 239.090609354 c 0
 496.807845261 206.540294742 459.306078237 190 412 190 c 0
 363.695337186 190 308.784310708 221.076326792 253.93031875 275.93031875 c 0
 214.32829631 315.53234119 181.633267576 334 164 334 c 0
 149.933779682 334 140.876514053 328.647391314 134.527084539 317.390111947 c 0
 129.279606742 308.086547995 126 293.914695601 126 275 c 0
 126 264.77687638 121.928787916 255.098519974 113.231991076 249.257708268 c 0
 106.528650375 244.755711551 98.2708376211 243 89 243 c 2
 61 243 l 2
 50.4562340276 243 40.5033057395 246.746395553 34.1204646335 255.097279333 c 0
 29.1257099693 261.632083352 27 269.90582566 27 279 c 0
 27 320.872434875 36.1596331144 355.591114519 54.8483761874 381.504329931 c 0
 78.3833637447 414.137193462 116.115667618 431 164 431 c 0
 211.446830263 431 267.236271602 398.903090898 322.06968125 344.06968125 c 0
 360.732891521 305.406470979 393.427820774 286 412 286 c 0
 434.024186458 286 449 302.777705896 449 346 c 0
 449 356.563653175 453.636618262 366.109576558 462.250167167 371.789298502 c 0
 468.930484818 376.194259474 477.078537892 378 486 378 c 2
EndSplineSet
EndChar

StartChar: asterisk
Encoding: 42 42 152
GlifName: asterisk
Width: 575
VWidth: 0
Flags: HMW
LayerCount: 2
Fore
SplineSet
541.859660852 350.649152129 m 0
 541.859660852 335.969405232 531.78617601 325.10096844 517.044917483 320.472623232 c 2
 389.060144991 278.718725824 l 1
 481.227593137 149.68243171 l 0
 485.940394718 142.875051649 488.904048981 135.393213401 488.904048981 127.496903082 c 0
 488.904048981 116.844503944 483.121983507 107.30750085 473.667612242 100.762166897 c 2
 444.68243171 80.7724068627 l 2
 437.970387409 76.1256069617 430.662576852 73.0959510192 422.814353719 73.0959510192 c 0
 412.221622375 73.0959510192 402.720002253 78.6944129644 396.065660718 87.9081166284 c 2
 287.034866903 238.873831142 l 1
 250.998753547 188.554186256 214.973771658 138.223409905 178.930621961 87.91080136 c 0
 171.69750174 78.5077450727 161.887148949 72.4772727273 150.749154771 72.4772727273 c 0
 143.187190213 72.4772727273 135.602993789 75.2181077385 129.143912389 79.8953735795 c 2
 100.224467025 100.837040912 l 2
 90.8253489986 107.380376053 85.0959510192 116.879515103 85.0959510192 127.496903082 c 0
 85.0959510192 135.393213401 87.8945725556 142.992314895 92.7700510337 149.6841481 c 2
 186.79376561 278.736305362 l 1
 58.0174368738 320.453091617 l 2
 43.2422380301 325.070341255 33.1403391485 335.948716404 33.1403391485 350.649152129 c 0
 33.1403391485 355.167231143 33.9816038892 359.572452715 35.4831948597 364.077225626 c 2
 46.5105810376 398.160612193 l 2
 51.2751041212 412.454181444 62.3602333666 422.728783283 77.6767706016 422.728783283 c 0
 82.0599612349 422.728783283 86.5088100781 422.030162329 91.1426149465 420.495398933 c 2
 235 372.848366941 l 1
 235 525 l 2
 235 535.92286565 238.570616875 546.024900642 246.700494404 552.614380323 c 0
 253.096746819 557.798711228 261.246618748 560 270 560 c 2
 305 560 l 2
 315.92286565 560 326.024900642 556.429383125 332.614380323 548.299505596 c 0
 337.798711228 541.903253181 340 533.753381252 340 525 c 2
 340 372.848366941 l 1
 484.017436874 420.546908383 l 2
 488.516117258 421.952746003 492.940038765 422.728783283 497.323229398 422.728783283 c 0
 512.639766633 422.728783283 523.752282057 412.370794877 528.51680514 398.077225626 c 2
 539.489418962 364.160612193 l 2
 540.991009933 359.655839282 541.859660852 355.167231143 541.859660852 350.649152129 c 0
EndSplineSet
EndChar

StartChar: at
Encoding: 64 64 153
GlifName: at
Width: 575
VWidth: 0
Flags: HMW
LayerCount: 2
Fore
SplineSet
41 88 m 2
 41 464 l 2
 41 537.841118774 57.0680524324 596.840381195 90.2256650749 639.767647563 c 0
 131.842584927 693.646695585 198.907961518 720 288 720 c 0
 376.553270438 720 443.372735885 693.632487687 484.870455452 639.75684931 c 0
 517.932042875 596.833668307 534 537.841929546 534 464 c 2
 534 112 l 2
 534 103.246618748 531.798711228 95.0967468189 526.614380323 88.700494404 c 0
 520.024900642 80.5706168755 509.92286565 77 499 77 c 2
 439 77 l 2
 373.570939752 77 326.869172707 98.1637341358 299.216454395 140.717863288 c 0
 277.330400561 174.397805742 268 219.842117112 268 276 c 0
 268 332.157882888 277.330400561 377.602194258 299.216454395 411.282136712 c 0
 325.418968208 451.604579676 368.724925263 472.721370316 428.860583575 474.82534634 c 1
 427.602559596 518.479997943 417.859903013 551.967992414 400.819358572 575.74985114 c 0
 378.16132879 607.371497099 341.476094079 624 288 624 c 0
 233.940481067 624 197.02449774 607.353467882 174.269881192 575.580405115 c 0
 155.891795625 549.918444825 146 512.946243874 146 464 c 2
 146 88 l 2
 146 39.0537561263 155.891795625 2.08155517512 174.269881192 -23.5804051148 c 0
 197.02449774 -55.3534678823 233.940481067 -72 288 -72 c 0
 319.664572347 -72 345.127787574 -66.3913270232 377.446184762 -54.649687665 c 0
 382.446343432 -52.6669020323 387.448867133 -51.5247825625 392.49229045 -51.5247822044 c 0
 406.616917571 -51.5247822044 416.992664168 -61.0519399567 422.265184289 -74.2332402602 c 2
 433.17666237 -101.015959185 l 2
 435.684635792 -106.459194015 437.114026314 -111.982619223 437.114026314 -117.548203435 c 0
 437.114026314 -131.438946253 427.576561424 -141.975426292 414.274776949 -146.451184769 c 0
 374.352263425 -160.77079436 335.004962735 -167.999999913 288 -168 c 0
 198.907961518 -168 131.842584927 -141.646695585 90.2256650749 -87.7676475626 c 0
 57.0680524324 -44.8403811951 41 14.1588812259 41 88 c 2
EndSplineSet
EndChar

StartChar: b
Encoding: 98 98 155
GlifName: b
Width: 575
VWidth: 0
Flags: W
AnchorPoint: "mark-bottom" 288 0 basechar 0
LayerCount: 2
Fore
SplineSet
93.8916008628 19.0709293406 m 0
 82.0584725362 23.938252353 75 35.711007417 75 48.389261745 c 2
 75 715 l 2
 75 725.92286565 78.5706168755 736.024900642 86.700494404 742.614380323 c 0
 93.0967468189 747.798711228 101.246618748 750 110 750 c 2
 145 750 l 2
 153.753381252 750 161.903253181 747.798711228 168.299505596 742.614380323 c 0
 176.429383125 736.024900642 180 725.92286565 180 715 c 2
 180 504.034367879 l 1
 201.850420758 507.79864749 224.372725779 510 247 510 c 0
 304.615066842 510 361.021385352 496.338315894 406.155368845 463.921949338 c 0
 462.788635689 423.246507128 500 353.878149271 500 250 c 0
 500 146.121850729 462.788635689 76.7534928717 406.155368845 36.0780506621 c 0
 361.021385352 3.66168410573 304.615066842 -10 247 -10 c 0
 194.517164253 -10 141.808177231 -0.638605483518 93.8916008628 19.0709293406 c 0
180 94.6310795829 m 1
 202.427425648 90.188063764 223.451242479 88 247 88 c 0
 347.826099798 88 394 145.115558665 394 250.114942529 c 0
 394 324.200403475 370.460682167 366.371704347 336.92104362 389.726892693 c 0
 309.869276537 408.564278623 274.792875191 416 237 416 c 0
 218.569299206 416 199.082606133 413.91031154 180 410.904450302 c 1
 180 94.6310795829 l 1
EndSplineSet
EndChar

StartChar: b.hex
Encoding: 65545 -1 156
GlifName: b.hex
Width: 575
VWidth: 0
Flags: W
LayerCount: 2
Fore
SplineSet
112.299505596 892.614380323 m 0
 120.429383125 886.024900642 124 875.92286565 124 865 c 2
 124 819 l 2
 124 807.680679758 120.49077603 797.434582054 112.147103874 790.935300585 c 0
 105.638298075 785.865283436 97.5384556952 784 89 784 c 2
 54 784 l 2
 42.6806797579 784 32.4345820537 787.50922397 25.9353005852 795.852896126 c 0
 20.8652834364 802.361701925 19 810.461544305 19 819 c 2
 19 865 l 2
 19 875.92286565 22.5706168755 886.024900642 30.700494404 892.614380323 c 0
 37.0967468189 897.798711228 45.2466187476 900 54 900 c 2
 89 900 l 2
 97.7533812524 900 105.903253181 897.798711228 112.299505596 892.614380323 c 0
404.614380323 888.299505596 m 0
 409.798711228 881.903253181 412 873.753381252 412 865 c 2
 412 819 l 2
 412 807.680679758 408.49077603 797.434582054 400.147103874 790.935300585 c 0
 393.638298075 785.865283436 385.538455695 784 377 784 c 2
 342 784 l 2
 330.680679758 784 320.434582054 787.50922397 313.935300585 795.852896126 c 0
 308.865283436 802.361701925 307 810.461544305 307 819 c 2
 307 865 l 2
 307 873.753381252 309.201288772 881.903253181 314.385619677 888.299505596 c 0
 320.975099358 896.429383125 331.07713435 900 342 900 c 2
 377 900 l 2
 387.92286565 900 398.024900642 896.429383125 404.614380323 888.299505596 c 0
548.614380323 888.299505596 m 0
 553.798711228 881.903253181 556 873.753381252 556 865 c 2
 556 819 l 2
 556 807.680679758 552.49077603 797.434582054 544.147103874 790.935300585 c 0
 537.638298075 785.865283436 529.538455695 784 521 784 c 2
 486 784 l 2
 474.680679758 784 464.434582054 787.50922397 457.935300585 795.852896126 c 0
 452.865283436 802.361701925 451 810.461544305 451 819 c 2
 451 865 l 2
 451 873.753381252 453.201288772 881.903253181 458.385619677 888.299505596 c 0
 464.975099358 896.429383125 475.07713435 900 486 900 c 2
 521 900 l 2
 531.92286565 900 542.024900642 896.429383125 548.614380323 888.299505596 c 0
93.8916008628 19.0995924578 m 0
 82.0584725362 23.9717145135 75 35.7560771823 75 48.4468319118 c 2
 75 715.714829572 l 2
 75 726.354944449 78.5706168755 736.195476802 86.700494404 742.614380323 c 0
 93.0967468189 747.798711228 101.246618748 750 110 750 c 2
 145 750 l 2
 153.753381252 750 161.903253181 747.798711228 168.299505596 742.614380323 c 0
 176.429383125 736.308179762 180 726.640427249 180 716.187131264 c 2
 180 514.034367879 l 1
 201.850420758 517.79864749 224.372725779 520 247 520 c 0
 304.615066842 520 361.021385352 506.0755912 406.155368845 473.035832979 c 0
 462.788635689 431.578170727 500 360.875805988 500 255 c 0
 500 149.124194012 462.788635689 78.421829273 406.155368845 36.964167021 c 0
 361.021385352 3.92440880007 304.615066842 -10 247 -10 c 0
 194.517164253 -10 141.808177231 -0.629375412302 93.8916008628 19.0995924578 c 0
180 94.8332466433 m 1
 202.427425648 90.2547730251 223.451242479 88 247 88 c 0
 347.826099798 88 394 146.856886673 394 255.057471264 c 0
 394 331.401635288 370.460682167 374.858646553 336.92104362 398.925883324 c 0
 309.869276537 418.337579801 274.792875191 426 237 426 c 0
 218.569299206 426 199.082606133 423.846601526 180 420.749098177 c 1
 180 94.8332466433 l 1
EndSplineSet
Validated: 1
PickledDataWithLists: "(dp0
Vcom.schriftgestaltung.Glyphs.lastChange\\u000d\\u000d\\u000d
p1
V2016-06-09 18:35:34 +0000\\u000d\\u000d\\u000d
p2
s."
EndChar

StartChar: backslash
Encoding: 92 92 157
GlifName: backslash
Width: 575
VWidth: 0
Flags: HMW
LayerCount: 2
Fore
SplineSet
57.8586688248 674.097490908 m 0
 57.8586688248 687.475738142 66.4912998785 698.15127436 78.6710669829 704.01560667 c 2
 105.607681762 716.98508786 l 2
 111.191667752 719.766473614 116.963647717 721.373841463 122.83602134 721.373841463 c 0
 135.667387721 721.373841463 146.083639972 713.19422832 151.994314899 701.372878466 c 2
 503.950103332 -20.53757955 l 2
 506.634590952 -25.9065547906 508.141331175 -31.4716523177 508.141331175 -37.0974909081 c 0
 508.141331175 -50.475738142 499.508700121 -61.1512743605 487.328933017 -67.01560667 c 2
 460.392318238 -79.98508786 l 2
 454.808332248 -82.7664736136 449.036352283 -84.3738414631 443.16397866 -84.3738414631 c 0
 430.332612279 -84.3738414631 419.916360028 -76.1942283202 414.005685101 -64.3728784657 c 2
 62.0498966685 657.53757955 l 2
 59.3654090482 662.906554791 57.8586688248 668.471652318 57.8586688248 674.097490908 c 0
EndSplineSet
PickledDataWithLists: "(dp0
Vcom.schriftgestaltung.Glyphs.lastChange\\u000d\\u000d\\u000d
p1
V2015-12-22 16:32:37 +0000\\u000d\\u000d\\u000d
p2
s."
EndChar

StartChar: bar
Encoding: 124 124 158
GlifName: bar
Width: 575
VWidth: 0
Flags: HMW
LayerCount: 2
Fore
SplineSet
270 710 m 2
 305 710 l 2
 315.92286565 710 326.024900642 706.429383125 332.614380323 698.299505596 c 0
 337.798711228 691.903253181 340 683.753381252 340 675 c 2
 340 -38 l 2
 340 -46.7533812524 337.798711228 -54.9032531811 332.614380323 -61.299505596 c 0
 326.024900642 -69.4293831245 315.92286565 -73 305 -73 c 2
 270 -73 l 2
 261.246618748 -73 253.096746819 -70.7987112281 246.700494404 -65.6143803234 c 0
 238.570616875 -59.0249006424 235 -48.92286565 235 -38 c 2
 235 675 l 2
 235 685.92286565 238.570616875 696.024900642 246.700494404 702.614380323 c 0
 253.096746819 707.798711228 261.246618748 710 270 710 c 2
EndSplineSet
PickledDataWithLists: "(dp0
Vcom.schriftgestaltung.Glyphs.lastChange\\u000d\\u000d\\u000d
p1
V2015-12-22 16:32:56 +0000\\u000d\\u000d\\u000d
p2
s."
EndChar

StartChar: beta
Encoding: 946 946 159
GlifName: beta
Width: 575
VWidth: 0
Flags: W
AnchorPoint: "mark-top" 288 700 basechar 0
LayerCount: 2
Back
SplineSet
102 -210 m 2
 102 510 l 2
 102 530 102 552 108 575 c 0
 128.276114013 652.725103716 200.246541383 710.102143105 286.675200309 710.102143105 c 3
 392.22473209 710.102143105 475 627.941469853 475 523 c 3
 475 431.978024631 410.66796875 393.66796875 365 372 c 1
 418.071289062 355.252929688 513.700946072 318.029003257 513.700946072 192.250873896 c 3
 513.700946072 95.9369601668 447.928997492 29.5941045591 371 8 c 0
 342 0 315 0 291 -0 c 2
 186 -0 l 1
 187 -210 l 2
 187 -226 179 -235 162 -235 c 258
 127 -235 l 258
 111 -235 102 -226 102 -210 c 2
257 404 m 2
 264 404 l 2
 343.504139322 404 390 448.547134617 390 523 c 3
 390 582.954343517 346.747668346 634.045272166 288.185464199 634.045272166 c 3
 244.262732409 634.045272166 200.244582433 601.141384688 191 558 c 0
 188 545 186 528 186 510 c 0
 186 76 l 1
 291 76 l 2
 358.341352027 76 399.640944451 98.0175641187 420 145 c 0
 427.211989023 160.866375851 430.352308901 176.973103788 430.352308901 192.701006778 c 3
 430.352308901 294.027308324 327 328 294 328 c 2
 294 328 257 328 257 328 c 2
 241 328 232 337 232 353 c 10
 232 379 l 18
 232 395 241 404 257 404 c 2
653 171 m 258
 646 144 l 257
 643 128 649 116 666 114 c 257
 703 108 752 105 802 105 c 259
 972 105 1059 152 1059 245 c 259
 1059 307 1009 348 924 367 c 257
 1009 385 1049 426 1049 488 c 259
 1049 574 960 628 802 628 c 259
 752 628 703 625 666 619 c 257
 649 617 643 605 646 589 c 257
 653 562 l 258
 657 547 667 541 683 543 c 257
 708 548 750 551 802 552 c 256
 908 552 964 527 964 488 c 259
 964 447 908 405 802 405 c 259
 786 405 777 396 777 380 c 258
 777 353 l 258
 777 337 786 328 802 328 c 259
 908 328 974 286 974 245 c 259
 974 203 916 181 802 181 c 259
 749.990234375 181 708 185 683 190 c 257
 667 192 657 186 653 171 c 258
-489 498 m 258
 -489 635 -421 704 -297 704 c 256
 -181 704 -118 648 -118 545 c 256
 -118 502 -142 463 -163 431 c 256
 -177 408 -189 389 -189 374 c 256
 -189 352 -170 336 -148 318 c 256
 -116 292 -77 260 -78 196 c 256
 -79 72 -213 -68 -404 20 c 257
 -404 -206 l 258
 -404 -222 -412 -231 -429 -231 c 258
 -464 -231 l 258
 -480 -231 -489 -222 -489 -206 c 258
 -489 498 l 258
-198 537 m 256
 -198 596 -233 628 -297 628 c 256
 -366 628 -404 585 -404 498 c 258
 -404 90 l 257
 -222 8 -159 122 -159 201 c 256
 -159 242 -188 262 -216 283 c 257
 -245 303 -274 324 -274 367 c 256
 -274 406 -250 441 -229 472 c 256
 -213 496 -198 517 -198 537 c 256
  Spiro
    -198 537 o
    -209.422 586.774 o
    -242.933 617.539 o
    -297 628 o
    -355.36 613.658 o
    -391.617 570.313 o
    -404 498 [
    -404 90 v
    -259.702 64.7548 o
    -182.026 118.966 o
    -159 201 o
    -167.54 235.785 o
    -188.803 261.541 o
    -216 283 v
    -243.9 304.088 o
    -265.424 330.586 o
    -274 367 o
    -267.013 404.63 o
    -249.98 439.7 o
    -229 472 o
    -213.866 495.052 o
    -202.473 516.613 o
    0 0 z
  EndSpiro
EndSplineSet
Fore
SplineSet
103.700494404 -227.614380323 m 0
 95.5706168755 -221.024900642 92 -210.92286565 92 -200 c 2
 92 501.243594253 l 2
 92 520.942060514 92.0646592508 543.53826233 98.3228083425 567.527833849 c 0
 119.757877977 649.695600779 195.76167126 710.102143105 286.675200309 710.102143105 c 0
 398.048273023 710.102143105 485 618.085129207 485 505 c 0
 485 422.954592948 434.396477801 379.236806675 390.531869245 354.983364601 c 1
 445.643414592 335.970648874 523.701171875 296.234676795 523.701171875 184.927129836 c 0
 523.701171875 59.8483521668 417.352107851 0 291 0 c 2
 196.047729091 0 l 1
 197 -200 l 2
 197 -208.538455695 195.134716564 -216.638298075 190.064699415 -223.147103874 c 0
 183.565417946 -231.49077603 173.319320242 -235 162 -235 c 2
 127 -235 l 2
 118.246618748 -235 110.096746819 -232.798711228 103.700494404 -227.614380323 c 0
233.700494404 391.614380323 m 0
 240.096746819 396.798711228 248.246618748 399 257 399 c 2
 264 399 l 2
 338.323878294 399 380 439.622166863 380 505 c 0
 380 563.046437843 339.589496726 614.045272166 288.185464199 614.045272166 c 0
 248.800805732 614.045272166 208.92246996 583.904112371 200.744403957 545.745647979 c 0
 197.948372981 533.629513747 196 517.241212787 196 500 c 2
 196 96 l 1
 291 96 l 2
 325.020452872 96 354.817152579 101.615177092 376.795011337 113.234573246 c 0
 403.899810067 127.5645131 420.352539062 150.813103177 420.352539062 188.244896673 c 0
 420.352539062 276.703948452 324.655220059 303 294 303 c 2
 257 303 l 2
 248.246618748 303 240.096746819 305.201288772 233.700494404 310.385619677 c 0
 225.570616875 316.975099358 222 327.07713435 222 338 c 2
 222 364 l 2
 222 374.92286565 225.570616875 385.024900642 233.700494404 391.614380323 c 0
EndSplineSet
PickledDataWithLists: "(dp0
Vcom.schriftgestaltung.Glyphs.lastChange\\u000d\\u000d\\u000d
p1
V2015-12-22 12:27:37 +0000\\u000d\\u000d\\u000d
p2
s."
EndChar

StartChar: block
Encoding: 9608 9608 160
GlifName: block
Width: 575
VWidth: 0
Flags: HMW
LayerCount: 2
Fore
SplineSet
-10 -260 m 1
 -10 910 l 1
 585 910 l 1
 585 -260 l 1
 -10 -260 l 1
EndSplineSet
Validated: 1
PickledDataWithLists: "(dp0
Vcom.schriftgestaltung.Glyphs.lastChange\\u000d\\u000d\\u000d
p1
V2016-06-10 08:26:49 +0000\\u000d\\u000d\\u000d
p2
s."
EndChar

StartChar: braceleft
Encoding: 123 123 161
GlifName: braceleft
Width: 575
VWidth: 0
Flags: HMW
LayerCount: 2
Fore
SplineSet
340 585 m 2
 340 409 l 2
 340 384.594121573 338.481653916 361.974189809 330.975138486 341.29518336 c 0
 323.173450458 319.803033166 308.797765811 301.219128493 284.949867166 286.155966369 c 1
 333.500008051 256.118517594 340 209.953229153 340 164 c 2
 340 -13 l 2
 340 -40.1447217811 344.221598258 -58.71417869 352.203432301 -70.4140082988 c 0
 361.822713423 -84.5140195847 378.605592127 -92 410 -92 c 2
 491 -92 l 2
 501.92286565 -92 512.024900642 -95.5706168755 518.614380323 -103.700494404 c 0
 523.798711228 -110.096746819 526 -118.246618748 526 -127 c 2
 526 -153 l 2
 526 -161.753381252 523.798711228 -169.903253181 518.614380323 -176.299505596 c 0
 512.024900642 -184.429383125 501.92286565 -188 491 -188 c 2
 410 -188 l 2
 343.266366776 -188 295.724797805 -173.240451145 267.070141156 -136.509561651 c 0
 244.331534475 -107.362143851 235 -66.48764443 235 -13 c 2
 235 164 l 2
 235 189.30516539 230.817608736 206.549285026 222.945607558 217.470362894 c 0
 213.415154326 230.692264099 196.484904589 238 165 238 c 2
 85 238 l 2
 74.07713435 238 63.9750993576 241.570616875 57.3856196766 249.700494404 c 0
 52.2012887719 256.096746819 50 264.246618748 50 273 c 2
 50 299 l 2
 50 309.92286565 53.5706168755 320.024900642 61.700494404 326.614380323 c 0
 68.0967468189 331.798711228 76.2466187476 334 85 334 c 2
 165 334 l 2
 196.392394325 334 213.313460472 341.534175018 222.901310402 355.050678703 c 0
 230.823490919 366.21899933 235 383.702822727 235 409 c 2
 235 585 l 2
 235 652.357484188 250.433058869 699.84772601 287.361891474 728.296604462 c 0
 316.657631935 750.865174891 357.401150752 760 410 760 c 2
 491 760 l 2
 501.92286565 760 512.024900642 756.429383125 518.614380323 748.299505596 c 0
 523.798711228 741.903253181 526 733.753381252 526 725 c 2
 526 699 l 2
 526 688.07713435 522.429383125 677.975099358 514.299505596 671.385619677 c 0
 507.903253181 666.201288772 499.753381252 664 491 664 c 2
 410 664 l 2
 378.188642069 664 361.474908796 656.018069548 351.939003412 641.687120831 c 0
 344.022096911 629.789269868 340 611.26292108 340 585 c 2
EndSplineSet
EndChar

StartChar: bracketleft
Encoding: 91 91 163
GlifName: bracketleft
Width: 575
VWidth: 0
Flags: HMW
LayerCount: 2
Fore
SplineSet
245 664 m 1
 245 -92 l 1
 470 -92 l 2
 480.92286565 -92 491.024900642 -95.5706168755 497.614380323 -103.700494404 c 0
 502.798711228 -110.096746819 505 -118.246618748 505 -127 c 2
 505 -153 l 2
 505 -161.753381252 502.798711228 -169.903253181 497.614380323 -176.299505596 c 0
 491.024900642 -184.429383125 480.92286565 -188 470 -188 c 2
 175 -188 l 2
 164.07713435 -188 153.975099358 -184.429383125 147.385619677 -176.299505596 c 0
 142.201288772 -169.903253181 140 -161.753381252 140 -153 c 2
 140 725 l 2
 140 735.92286565 143.570616875 746.024900642 151.700494404 752.614380323 c 0
 158.096746819 757.798711228 166.246618748 760 175 760 c 2
 470 760 l 2
 480.92286565 760 491.024900642 756.429383125 497.614380323 748.299505596 c 0
 502.798711228 741.903253181 505 733.753381252 505 725 c 2
 505 699 l 2
 505 690.246618748 502.798711228 682.096746819 497.614380323 675.700494404 c 0
 491.024900642 667.570616875 480.92286565 664 470 664 c 2
 245 664 l 1
EndSplineSet
PickledDataWithLists: "(dp0
Vcom.schriftgestaltung.Glyphs.lastChange\\u000d\\u000d\\u000d
p1
V2015-12-22 13:51:23 +0000\\u000d\\u000d\\u000d
p2
s."
EndChar

StartChar: breve
Encoding: 728 728 165
GlifName: breve
Width: 575
VWidth: 0
GlyphClass: 2
Flags: HMW
LayerCount: 2
Fore
SplineSet
481.48 670.872 m 0
 481.48 667.007485297 480.81334815 663.115622261 479.594931071 659.171986491 c 0
 456.257896968 575.598477727 387.3392826 528 288 528 c 0
 188.555575664 528 118.668600985 575.634564904 95.329782443 659.442140578 c 0
 94.4690863554 662.884924928 93.9806640162 666.32470931 93.9806640162 669.700576851 c 0
 93.9806640162 687.038404126 107.187291088 697.835513829 123.233242811 700.844129777 c 2
 151.13744807 705.827023574 l 2
 153.921380723 706.37765264 156.66710651 706.678413548 159.39711294 706.678413548 c 0
 176.189328563 706.678413548 186.683675918 694.544907014 191.580092266 678.874203737 c 0
 205.413019928 632.764444863 238.005200368 608 288 608 c 0
 336.809337622 608 369.519465484 632.635490265 384.381736264 678.761318672 c 0
 388.450973741 694.620537323 399.082206318 706.678413548 416.217992358 706.678413548 c 0
 419.049690563 706.678413548 421.832447859 706.394312777 424.766757189 705.844129777 c 2
 452.851291709 700.828657273 l 2
 468.186678407 697.953272268 481.48 687.819219863 481.48 670.872 c 0
EndSplineSet
PickledDataWithLists: "(dp0
Vcom.schriftgestaltung.Glyphs.lastChange\\u000d\\u000d\\u000d
p1
V2015-12-22 16:32:39 +0000\\u000d\\u000d\\u000d
p2
s."
EndChar

StartChar: brokenbar
Encoding: 166 166 166
GlifName: brokenbar
Width: 575
VWidth: 0
Flags: HMW
LayerCount: 2
Fore
SplineSet
270 203 m 2
 305 203 l 2
 315.92286565 203 326.024900642 199.429383125 332.614380323 191.299505596 c 0
 337.798711228 184.903253181 340 176.753381252 340 168 c 2
 340 -153 l 2
 340 -161.753381252 337.798711228 -169.903253181 332.614380323 -176.299505596 c 0
 326.024900642 -184.429383125 315.92286565 -188 305 -188 c 2
 270 -188 l 2
 259.07713435 -188 248.975099358 -184.429383125 242.385619677 -176.299505596 c 0
 237.201288772 -169.903253181 235 -161.753381252 235 -153 c 2
 235 168 l 2
 235 178.92286565 238.570616875 189.024900642 246.700494404 195.614380323 c 0
 253.096746819 200.798711228 261.246618748 203 270 203 c 2
270 760 m 2
 305 760 l 2
 315.92286565 760 326.024900642 756.429383125 332.614380323 748.299505596 c 0
 337.798711228 741.903253181 340 733.753381252 340 725 c 2
 340 404 l 2
 340 395.246618748 337.798711228 387.096746819 332.614380323 380.700494404 c 0
 326.024900642 372.570616875 315.92286565 369 305 369 c 2
 270 369 l 2
 261.246618748 369 253.096746819 371.201288772 246.700494404 376.385619677 c 0
 238.570616875 382.975099358 235 393.07713435 235 404 c 2
 235 725 l 2
 235 735.92286565 238.570616875 746.024900642 246.700494404 752.614380323 c 0
 253.096746819 757.798711228 261.246618748 760 270 760 c 2
EndSplineSet
PickledDataWithLists: "(dp0
Vcom.schriftgestaltung.Glyphs.lastChange\\u000d\\u000d\\u000d
p1
V2015-12-22 14:22:08 +0000\\u000d\\u000d\\u000d
p2
s."
EndChar

StartChar: bullet
Encoding: 8226 8226 167
GlifName: bullet
Width: 575
VWidth: 0
Flags: HMW
LayerCount: 2
Fore
SplineSet
470 311 m 0
 470 207.668731366 389.60564691 126 288 126 c 0
 185.43910777 126 105 207.64200859 105 311 c 0
 105 414.35799141 185.43910777 496 288 496 c 0
 389.60564691 496 470 414.331268634 470 311 c 0
EndSplineSet
PickledDataWithLists: "(dp0
Vcom.schriftgestaltung.Glyphs.lastChange\\u000d\\u000d\\u000d
p1
V2015-12-22 16:32:38 +0000\\u000d\\u000d\\u000d
p2
s."
EndChar

StartChar: c
Encoding: 99 99 168
GlifName: c
Width: 575
VWidth: 0
Flags: W
AnchorPoint: "mark-bottom" 288 -0 basechar 0
AnchorPoint: "mark-top" 288 500 basechar 0
LayerCount: 2
Fore
SplineSet
328 412 m 0
 227.173900202 412 181 354.924937335 181 250 c 0
 181 145.015509291 227.121503689 88 328 88 c 0
 368.14230514 88 401.377886259 92.7232597158 445.291910891 110.288869569 c 0
 450.343449348 112.309484951 455.396997223 113.475217796 460.49229045 113.475217796 c 0
 474.59206726 113.475217796 484.979745217 103.923089597 490.260993177 90.7776276658 c 2
 490.260993177 90.7776276658 500.235222386 66.8394775648 500.288869569 66.7080891091 c 0
 502.426800155 61.3632626423 503.673589889 55.9868201862 503.673589889 50.5607300001 c 0
 503.673589889 37.0422908181 495.133721787 26.1211968641 481.814288498 20.7537682649 c 0
 436.973260228 1.68746269276 334.16553885 -10.2149646269 327.703196734 -10.2149646269 c 1
 327.785774649 -10.1956361137 327.884611835 -10.0230708143 328 -10 c 1
 270.384933158 -10 213.978614648 3.66168410573 168.844631155 36.0780506621 c 0
 112.211364311 76.7534928717 75 146.121850729 75 250 c 0
 75 353.878149271 112.211364311 423.246507128 168.844631155 463.921949338 c 0
 213.978614648 496.338315894 270.384933158 510 328 510 c 0
 380.287141825 510 433.511735393 499.784369898 481.814288778 479.246231619 c 0
 495.133721861 473.878802874 503.673589843 462.957708979 503.673589889 449.43927 c 0
 503.673589889 444.013179814 502.503864519 438.605263556 500.235222386 433.160522435 c 2
 490.260993177 409.222372334 l 2
 484.979745217 396.076910403 474.59206726 386.524782204 460.49229045 386.524782204 c 0
 455.448868422 386.524782204 450.446346118 387.666901031 445.446189394 389.649686992 c 0
 402.261391539 405.3405488 367.751552019 411.99999864 328 412 c 0
EndSplineSet
EndChar

StartChar: c.hex
Encoding: 65548 -1 169
GlifName: c.hex
Width: 575
VWidth: 0
Flags: W
AnchorPoint: "top" 288 550 basechar 0
AnchorPoint: "bottom" 288 0 basechar 0
LayerCount: 2
Fore
SplineSet
112.299505596 892.614380323 m 0
 120.429383125 886.024900642 124 875.92286565 124 865 c 2
 124 819 l 2
 124 807.680679758 120.49077603 797.434582054 112.147103874 790.935300585 c 0
 105.638298075 785.865283436 97.5384556952 784 89 784 c 2
 54 784 l 2
 42.6806797579 784 32.4345820537 787.50922397 25.9353005852 795.852896126 c 0
 20.8652834364 802.361701925 19 810.461544305 19 819 c 2
 19 865 l 2
 19 875.92286565 22.5706168755 886.024900642 30.700494404 892.614380323 c 0
 37.0967468189 897.798711228 45.2466187476 900 54 900 c 2
 89 900 l 2
 97.7533812524 900 105.903253181 897.798711228 112.299505596 892.614380323 c 0
256.299505596 892.614380323 m 0
 264.429383125 886.024900642 268 875.92286565 268 865 c 2
 268 819 l 2
 268 807.680679758 264.49077603 797.434582054 256.147103874 790.935300585 c 0
 249.638298075 785.865283436 241.538455695 784 233 784 c 2
 198 784 l 2
 186.680679758 784 176.434582054 787.50922397 169.935300585 795.852896126 c 0
 164.865283436 802.361701925 163 810.461544305 163 819 c 2
 163 865 l 2
 163 875.92286565 166.570616875 886.024900642 174.700494404 892.614380323 c 0
 181.096746819 897.798711228 189.246618748 900 198 900 c 2
 233 900 l 2
 241.753381252 900 249.903253181 897.798711228 256.299505596 892.614380323 c 0
328 422 m 0
 227.173900202 422 181 363.163361327 181 255 c 0
 181 146.775247233 227.121503689 88 328 88 c 0
 367.731468005 88 401.212951923 94.6379713855 445.480691675 110.363984607 c 0
 450.129266676 112.203750268 460.016884457 113.475904292 460.49229045 113.475217796 c 0
 474.59161639 113.454858058 484.979745217 103.923089597 490.260993177 90.7776276658 c 2
 490.260993177 90.7776276658 500.235222386 66.8394775648 500.288869569 66.7080891091 c 0
 502.426800155 61.3632626423 503.673589889 55.9868201862 503.673589889 50.5607300001 c 0
 503.673589889 37.0422908181 495.133721787 26.1211968641 481.814288498 20.7537682649 c 0
 436.973260228 1.68746269276 334.16553885 -10.2149646269 327.703196734 -10.2149646269 c 1
 327.785774649 -10.1956361137 327.884611835 -10.0230708143 328 -10 c 1
 270.384933158 -10 213.978614648 3.92440880007 168.844631155 36.964167021 c 0
 112.211364311 78.421829273 75 149.124194012 75 255 c 0
 75 360.875805988 112.211364311 431.578170727 168.844631155 473.035832979 c 0
 213.978614648 506.0755912 270.384933158 520 328 520 c 0
 380.287141825 520 433.511735393 509.784369898 481.814288778 489.246231619 c 0
 495.133721861 483.878802874 503.673589843 472.957708979 503.673589889 459.43927 c 0
 503.673589889 454.013179814 502.503864519 448.605263556 500.235222386 443.160522435 c 2
 490.260993177 419.222372334 l 2
 484.979745217 406.076910403 474.59206726 396.524782204 460.49229045 396.524782204 c 0
 455.448868422 396.524782204 450.446346118 397.666901031 445.446189394 399.649686992 c 0
 402.261391539 415.3405488 367.751552019 421.99999864 328 422 c 0
EndSplineSet
Validated: 33
PickledDataWithLists: "(dp0
Vcom.schriftgestaltung.Glyphs.lastChange\\u000d\\u000d\\u000d
p1
V2016-06-09 18:35:34 +0000\\u000d\\u000d\\u000d
p2
s."
EndChar

StartChar: caron
Encoding: 711 711 171
GlifName: caron
Width: 575
VWidth: 0
GlyphClass: 2
Flags: HMW
LayerCount: 2
Fore
SplineSet
288 532 m 0
 262.235147475 532 240.232445759 542.191314717 218.652256554 555.550479463 c 2
 114.602839714 621.582043419 l 2
 104.346165204 628.17561989 97.1116066278 637.973514445 97.1116066278 649.777592546 c 0
 97.1116066278 657.352644104 100.075851865 664.569496488 105.007270308 671.008282958 c 2
 105.007270308 671.008282958 121.953287397 693.935247255 122.069378039 694.08919864 c 0
 129.150737084 703.294965399 138.564820757 709.522727273 149.615984222 709.522727273 c 0
 157.111223748 709.522727273 164.209967833 706.708490158 170.703405708 702.213033168 c 0
 204.798007587 678.47547703 238.904523121 654.749834549 272.991600964 631.004754376 c 0
 273.716640793 630.460974504 274.391874415 629.948665335 275.020936933 629.471434113 c 0
 281.741337004 624.373077995 281.255330809 624 288 624 c 0
 293.343086796 624 293.623910508 624.637024651 298.684046821 628.138124679 c 0
 334.295510414 652.777638025 369.799468202 677.504223522 405.31756829 702.227593137 c 0
 411.807984447 706.720958169 418.862003862 709.522727273 426.315552216 709.522727273 c 0
 437.307855902 709.522727273 446.601795184 703.185282082 453.133843551 693.817364207 c 2
 469.992458848 671.008649394 l 2
 475.083768434 664.3633394 478.25 656.926961125 478.25 649.039351852 c 0
 478.25 637.681242928 471.552433782 627.928131042 461.289404988 621.513738046 c 2
 357.364248829 556.560515447 l 2
 336.755930625 543.173931777 313.971110461 532 288 532 c 0
EndSplineSet
PickledDataWithLists: "(dp0
Vcom.schriftgestaltung.Glyphs.lastChange\\u000d\\u000d\\u000d
p1
V2016-05-18 20:16:32 +0000\\u000d\\u000d\\u000d
p2
s."
EndChar

StartChar: cedilla
Encoding: 184 184 175
GlifName: cedilla
Width: 575
VWidth: 0
GlyphClass: 2
Flags: HMW
LayerCount: 2
Fore
SplineSet
277.322827901 23 m 0
 283.304279102 23 289.285730304 23 295.267181506 23 c 2
 295.533083614 22.9860051522 l 2
 302.819981051 22.6024842345 309.436614793 21.0174177897 314.993319401 17.3929941742 c 0
 322.214808987 12.6826956718 326.259293918 4.73074600743 326.259293918 -3.83459943883 c 0
 326.259293918 -9.53925264054 324.713815123 -15.2690005176 322.120974007 -21.1028930285 c 2
 307.006940031 -54.616620541 l 1
 322.927216082 -52.0864177814 337.478967471 -51 351 -51 c 0
 428.564273822 -51 473 -88.2466062743 473 -135 c 0
 473 -195.682182462 402.033513073 -256 275 -256 c 0
 248.82257652 -256 222.798522531 -251.759313045 194.291568837 -244.632574622 c 0
 179.49541684 -240.008777123 168.717730657 -229.002506744 168.717730657 -213.840779379 c 0
 168.717730657 -204.824252535 172.891762171 -196.030543554 175.555742588 -188.704597407 c 0
 180.793619788 -173.151348839 193.100588551 -164.168990713 208.166998673 -164.168990713 c 0
 211.409244199 -164.168990713 214.580860964 -164.516947371 217.879369923 -165.176649162 c 0
 238.217508445 -169.050580309 259.812340204 -171 275 -171 c 0
 314.274568345 -171 338.861695676 -161.650995185 349.439696143 -152.534044506 c 0
 354.728721537 -147.975547482 356 -144.140000124 356 -142 c 0
 356 -138.729461218 350.701675975 -129 321 -129 c 0
 314.066804138 -129 304.265147802 -130.02252608 295.26107167 -130.924399818 c 0
 292.039532626 -131.409399641 288.85354613 -131.696938195 285.655486567 -131.696938457 c 0
 274.096778147 -131.696938457 263.122068109 -127.59193898 253.806455253 -117.943625664 c 2
 225.864640962 -89.003889434 l 2
 218.311350563 -81.4243392133 213.625 -72.174931118 213.625 -61.833984375 c 0
 213.625 -55.7060322573 215.214410004 -49.6696380199 217.927445766 -43.7913938698 c 2
 237.915120962 -0.817994576742 l 2
 244.693316264 13.8680952447 256.88475329 23.1071428571 273.876457726 23.1071428571 c 0
 275.013411511 23.1071428571 276.161591216 23.0707133849 277.322827901 23 c 0
EndSplineSet
PickledDataWithLists: "(dp0
Vcom.schriftgestaltung.Glyphs.lastChange\\u000d\\u000d\\u000d
p1
V2015-12-22 16:32:40 +0000\\u000d\\u000d\\u000d
p2
s."
EndChar

StartChar: cent
Encoding: 162 162 176
GlifName: cent
Width: 575
VWidth: 0
Flags: HMW
LayerCount: 2
Fore
SplineSet
353 39.5880611105 m 1
 353 -153 l 2
 353 -161.753381252 350.798711228 -169.903253181 345.614380323 -176.299505596 c 0
 339.024900642 -184.429383125 328.92286565 -188 318 -188 c 2
 283 -188 l 2
 272.07713435 -188 261.975099358 -184.429383125 255.385619677 -176.299505596 c 0
 250.201288772 -169.903253181 248 -161.753381252 248 -153 c 2
 248 55.6468846399 l 1
 353 39.5880611105 l 1
248 455.35311536 m 1
 248 653 l 2
 248 663.92286565 251.570616875 674.024900642 259.700494404 680.614380323 c 0
 266.096746819 685.798711228 274.246618748 688 283 688 c 2
 318 688 l 2
 328.92286565 688 339.024900642 684.429383125 345.614380323 676.299505596 c 0
 350.798711228 669.903253181 353 661.753381252 353 653 c 2
 353 471.411938889 l 1
 248 455.35311536 l 1
EndSplineSet
Refer: 168 99 N 1 0 0 1 0 0 2
PickledDataWithLists: "(dp0
Vcom.schriftgestaltung.Glyphs.lastChange\\u000d\\u000d\\u000d
p1
V2015-12-22 14:01:47 +0000\\u000d\\u000d\\u000d
p2
s."
EndChar

StartChar: chi
Encoding: 967 967 177
GlifName: chi
Width: 575
VWidth: 0
Flags: W
AnchorPoint: "mark-top" 288 500 basechar 0
LayerCount: 2
Fore
SplineSet
85.3701430065 501 m 2
 86 501 l 2
 94.817295364 501 102.823646373 502 112 502 c 0
 148.919932085 502 187.560458504 492.006185834 225.294586401 452.883604018 c 0
 255.276083588 421.798916439 284.640738989 373.005857571 314.208117746 296.917367641 c 1
 431.557169627 479.358271028 l 2
 440.374015139 493.213313974 454.176464672 500 470 500 c 2
 509 500 l 2
 525.161505203 500 540.194242927 491.748242956 540.194242927 475.716786933 c 0
 540.194242927 469.035973691 537.599891712 462.502762704 533.368744033 456.205009517 c 2
 357.193536783 197.428039425 l 1
 389.320960581 118.253143191 l 2
 435.612654997 3.88673819869 468.096182595 -22 494 -22 c 0
 500.938395184 -22 507.663916319 -20.6979693856 514.663230237 -20.6979693856 c 0
 524.286082946 -20.6979693856 533.264041834 -24.1107248657 539.448334387 -31.2253375119 c 0
 548.673645798 -41.8384378254 548.821455774 -58.9424216916 550.931120079 -75.8212202907 c 0
 551.193815074 -78.0541277495 551.333333333 -80.2328746855 551.333333333 -82.3717421125 c 0
 551.333333333 -91.8194778074 548.358516106 -100.739431444 541.284908901 -106.856549169 c 0
 535.578625661 -111.791231764 528.546703596 -114.010394175 520.629856994 -115 c 2
 520 -115 l 2
 511.182704636 -115 503.176353627 -116 494 -116 c 0
 457.080067915 -116 418.439541496 -106.006185834 380.705413599 -66.8836040177 c 0
 350.684779954 -35.7583399275 321.252885176 13.1989195969 291.646379191 89.4581016778 c 2
 287.599579781 100.126936486 l 1
 145.230110784 -116.684084929 l 2
 138.415601767 -126.52726462 128.47704469 -133.1732461 116.880275604 -133.1732461 c 0
 109.735811849 -133.1732461 102.809073803 -130.677023926 96.5023019719 -126.35484021 c 0
 90.1248630401 -122.326984042 83.516048082 -118.518848378 77.3175682899 -114.227593137 c 0
 67.4743885989 -107.41308412 60.8267538997 -97.4770446896 60.8267538997 -85.8802756035 c 0
 60.8267538997 -78.7198516189 63.3341413013 -71.778127196 67.6741534851 -65.4600446012 c 2
 244.84178096 198.019806041 l 1
 216.679039419 268.275447457 l 2
 170.387345003 382.21082459 137.903817405 408 112 408 c 0
 105.56776645 408 99.8952801059 406.916320516 93.2237858684 406.916320516 c 0
 82.8691502965 406.916320516 73.4634539539 410.074537132 66.9198250626 417.205877659 c 0
 57.2145140346 427.782864681 57.2044351962 444.735275718 55.0688799214 461.821220291 c 0
 54.8061849263 464.05412775 54.6666666667 466.232874685 54.6666666667 468.371742112 c 0
 54.6666666667 477.819477807 57.6414838942 486.739431444 64.7150910991 492.856549169 c 0
 70.4213743385 497.791231764 77.4532964043 500.010394175 85.3701430065 501 c 2
EndSplineSet
PickledDataWithLists: "(dp0
Vcom.schriftgestaltung.Glyphs.lastChange\\u000d\\u000d\\u000d
p1
V2015-12-22 12:54:05 +0000\\u000d\\u000d\\u000d
p2
s."
EndChar

StartChar: circumflex
Encoding: 710 710 178
GlifName: circumflex
Width: 575
VWidth: 0
GlyphClass: 2
Flags: HMW
LayerCount: 2
Fore
SplineSet
149.258858405 531.406825286 m 0
 138.157420102 531.406825286 128.790494969 537.432418565 121.103292095 545.818458063 c 1
 115.655176476 553.990631493 110.207060856 562.162804922 104.758945237 570.334978351 c 0
 100.03419673 576.991116918 97.1116066278 584.126778574 97.1116066278 591.655561573 c 0
 97.1116066278 603.531790695 104.604683445 612.990366396 114.652256554 619.449520537 c 2
 218.557892877 685.389635896 l 2
 240.253362274 699.840207453 262.254496464 710 288 710 c 0
 314.259766372 710 337.237839115 698.211614495 357.135927853 685.583942385 c 2
 461.397160286 619.417956581 l 2
 471.266464733 613.073403722 478.25 603.803441809 478.25 592.38599537 c 0
 478.25 584.500240378 475.194163653 577.028951225 470.046712603 570.064752745 c 2
 453.133843551 547.182635793 l 2
 446.601795184 537.814717918 437.307855902 531.477272727 426.315552216 531.477272727 c 0
 418.862003862 531.477272727 411.73298627 534.331471092 405.242570114 538.824836124 c 0
 369.746441261 563.880927078 334.449834706 589.11558525 298.684046821 613.861875321 c 0
 293.623910508 617.362975349 293.343086796 618 288 618 c 0
 282.656913204 618 282.376089492 617.362975349 277.315953179 613.861875321 c 0
 241.539330462 589.108088648 206.193101136 563.83858411 170.68243171 538.772406863 c 0
 164.054566256 534.183884625 156.842079375 531.406825286 149.258858405 531.406825286 c 0
EndSplineSet
PickledDataWithLists: "(dp0
Vcom.schriftgestaltung.Glyphs.lastChange\\u000d\\u000d\\u000d
p1
V2015-12-22 16:32:40 +0000\\u000d\\u000d\\u000d
p2
s."
EndChar

StartChar: colon
Encoding: 58 58 179
GlifName: colon
Width: 575
VWidth: 0
Flags: HMW
LayerCount: 2
Fore
SplineSet
237 560 m 2
 337 560 l 2
 347.92286565 560 358.024900642 556.429383125 364.614380323 548.299505596 c 0
 369.798711228 541.903253181 372 533.753381252 372 525 c 2
 372 435 l 2
 372 426.246618748 369.798711228 418.096746819 364.614380323 411.700494404 c 0
 358.024900642 403.570616875 347.92286565 400 337 400 c 2
 237 400 l 2
 228.246618748 400 220.096746819 402.201288772 213.700494404 407.385619677 c 0
 205.570616875 413.975099358 202 424.07713435 202 435 c 2
 202 525 l 2
 202 535.92286565 205.570616875 546.024900642 213.700494404 552.614380323 c 0
 220.096746819 557.798711228 228.246618748 560 237 560 c 2
237 150 m 2
 337 150 l 2
 347.92286565 150 358.024900642 146.429383125 364.614380323 138.299505596 c 0
 369.798711228 131.903253181 372 123.753381252 372 115 c 2
 372 25 l 2
 372 16.2466187476 369.798711228 8.09674681893 364.614380323 1.70049440398 c 0
 358.024900642 -6.42938312452 347.92286565 -10 337 -10 c 2
 237 -10 l 2
 228.246618748 -10 220.096746819 -7.79871122811 213.700494404 -2.61438032336 c 0
 205.570616875 3.97509935764 202 14.07713435 202 25 c 2
 202 115 l 2
 202 125.92286565 205.570616875 136.024900642 213.700494404 142.614380323 c 0
 220.096746819 147.798711228 228.246618748 150 237 150 c 2
EndSplineSet
PickledDataWithLists: "(dp0
Vcom.schriftgestaltung.Glyphs.lastChange\\u000d\\u000d\\u000d
p1
V2015-12-22 20:53:35 +0000\\u000d\\u000d\\u000d
p2
s."
EndChar

StartChar: comma
Encoding: 44 44 180
GlifName: comma
Width: 575
VWidth: 0
Flags: HMW
LayerCount: 2
Fore
SplineSet
372 -2 m 2
 372 -82.4855369498 358.990345354 -142.168908804 326.676579814 -183.940791401 c 0
 286.024728252 -236.491286289 217.447996263 -257 117 -257 c 0
 108.246618748 -257 100.096746819 -254.798711228 93.700494404 -249.614380323 c 0
 85.5706168755 -243.024900642 82 -232.92286565 82 -222 c 2
 82 -196 l 2
 82 -185.07713435 85.5706168755 -174.975099358 93.700494404 -168.385619677 c 0
 100.096746819 -163.201288772 108.246618748 -161 117 -161 c 0
 180.679024362 -161 218.762028117 -147.094392725 240.656732258 -117.544952153 c 0
 257.752566756 -94.4721422973 266.365006695 -59.693327714 266.981342183 -10 c 1
 237 -10 l 2
 228.246618748 -10 220.096746819 -7.79871122811 213.700494404 -2.61438032336 c 0
 205.570616875 3.97509935764 202 14.07713435 202 25 c 2
 202 115 l 2
 202 125.92286565 205.570616875 136.024900642 213.700494404 142.614380323 c 0
 220.096746819 147.798711228 228.246618748 150 237 150 c 2
 337 150 l 2
 347.92286565 150 358.024900642 146.429383125 364.614380323 138.299505596 c 0
 369.798711228 131.903253181 372 123.753381252 372 115 c 2
 372 -2 l 2
EndSplineSet
PickledDataWithLists: "(dp0
Vcom.schriftgestaltung.Glyphs.lastChange\\u000d\\u000d\\u000d
p1
V2015-12-22 20:53:49 +0000\\u000d\\u000d\\u000d
p2
s."
EndChar

StartChar: copyright
Encoding: 169 169 181
GlifName: copyright
Width: 575
VWidth: 0
Flags: HMW
LayerCount: 2
Fore
SplineSet
395.25 485.875 m 0
 395.25 476.082830708 390.074520635 467.339092265 382.685460252 460.565786914 c 2
 372.870633373 451.732442723 l 2
 366.287042431 445.226253159 358.516810636 441.370081621 350.066186436 441.370081621 c 0
 341.329626201 441.370081621 333.633772581 444.977698495 325.972014805 449.355845795 c 0
 315.644775272 455.380068857 302.223276753 459 289 459 c 2
 288 459 l 2
 268.10846914 459 246.590705716 449.240406852 232.500109421 433.38848602 c 0
 219.249582165 418.371221797 211 396.541034825 211 375 c 0
 211 354.669382952 219.112731802 332.800315639 232.489873179 316.630919193 c 0
 246.554457801 301.815168027 268.152504045 291.935555751 288.228527345 291 c 2
 289 291 l 2
 301.770641022 291 315.346374998 295.445403114 326.049303426 301.68877803 c 0
 333.489494584 305.940315834 340.901895565 309.12994566 349.178576603 309.12994566 c 0
 358.053597465 309.12994566 366.058148985 305.006387434 372.871730021 298.26655984 c 2
 382.753542808 289.372373773 l 2
 390.14260319 282.599068422 395.25 273.917169292 395.25 264.125 c 0
 395.25 254.207475458 389.743064836 245.280220971 380.902440058 238.92843044 c 0
 357.542870016 221.437990538 294.369889513 208.550516426 289.463563456 208.550516426 c 2
 287 209 l 2
 286.915277011 209 286.830554023 209 286.745831034 209 c 0
 244.13993457 210.065147412 202.59212464 228.099934871 173.622749953 260.25128277 c 0
 144.95921792 291.069034545 128.000000472 332.352881171 128 375 c 0
 128 417.644385152 144.914936899 459.914431713 173.680609505 490.810894882 c 0
 202.154605578 521.39407585 242.940258462 540.504211055 285.342609859 540.99049298 c 0
 286.352116879 541.32699532 287.361623899 541.66349766 288.371130919 542 c 2
 290 542 l 2
 322.386590217 542 355.212594342 530.30910205 380.902442355 511.071569855 c 0
 389.74306619 504.719779176 395.25 495.792525094 395.25 485.875 c 0
16 375 m 0
 16 446.752089544 44.5181950638 517.658315648 94.9299401931 568.070059807 c 0
 145.341779459 618.481898103 216.247642219 647 288 647 c 0
 358.69382355 647 430.074341504 618.065020996 480.06968125 568.06968125 c 0
 530.998630754 517.140731746 560 446.695315784 560 375 c 0
 560 304.33980422 531.076987101 232.937746992 480.070211769 182.930122794 c 0
 430.06256996 131.923138953 358.660353438 103 288 103 c 0
 216.304684216 103 145.859268254 132.001369246 94.93031875 182.93031875 c 0
 44.9349790036 232.925658496 16 304.30617645 16 375 c 0
477 375 m 0
 477 424.336928217 456.955204915 473.905432585 421.93031875 508.93031875 c 0
 386.824681263 544.035956237 337.202518432 565 288 565 c 0
 238.797481568 565 189.175318737 544.035956237 154.06968125 508.93031875 c 0
 118.964043763 473.824681263 98 424.202518432 98 375 c 0
 98 325.797481568 118.964043763 276.175318737 154.06968125 241.06968125 c 0
 189.094567415 206.044795085 238.663071783 186 288 186 c 0
 337.336928217 186 386.905432585 206.044795085 421.93031875 241.06968125 c 0
 456.955204915 276.094567415 477 325.663071783 477 375 c 0
EndSplineSet
Validated: 33
PickledDataWithLists: "(dp0
Vcom.schriftgestaltung.Glyphs.lastChange\\u000d\\u000d\\u000d
p1
V2015-12-22 14:24:21 +0000\\u000d\\u000d\\u000d
p2
s."
EndChar

StartChar: currency
Encoding: 164 164 182
GlifName: currency
Width: 575
VWidth: 0
Flags: HMW
LayerCount: 2
Fore
SplineSet
497 250 m 0
 497 212.603872069 486.077613995 174.656172167 466.707050043 142.432312457 c 1
 543.06968125 66.06968125 l 2
 550.019197574 59.1201649262 554.878751001 50.8923996986 554.878751001 41.4777902318 c 0
 554.878751001 31.6451310512 549.467432043 23.1939532007 541.605700855 16.4926137209 c 2
 518.753542808 -4.37237377264 l 2
 511.746057593 -10.7959018862 503.599695793 -15.1290773721 494.508509522 -15.1290773721 c 0
 485.003530228 -15.1290773721 476.588886453 -10.2816063183 469.783781841 -2.92314434084 c 2
 395.567687543 71.2929499574 l 1
 366.118448535 53.5902795545 292.505646757 40.648511352 287.495030131 40.648511352 c 1
 287.619167071 40.692963328 287.786977951 40.9400092498 288 41 c 1
 249.62660235 41 212.377696229 52.0080522265 179.542150647 71.3325558266 c 1
 106.06968125 -3.06968125 l 2
 98.7878829271 -10.3514795728 90.2112371365 -15.1290773721 80.6085105507 -15.1290773721 c 0
 71.446175686 -15.1290773721 63.2761222289 -10.8162068125 56.2611146128 -4.38578316439 c 2
 33.2464571922 16.6276262274 l 2
 25.7929691571 23.4599902595 20.8709226279 31.9306950474 20.8709226279 41.5085095219 c 0
 20.8709226279 50.699150549 25.3224340829 58.8751513775 31.7755313423 65.9148938423 c 2
 108.301124633 142.440487133 l 1
 88.9804320936 174.781050553 79 212.765495032 79 250 c 0
 79 288.230652034 89.0735108693 325.529250189 108.366424662 358.494212838 c 1
 31.93031875 434.93031875 l 2
 25.2079578542 441.652679646 20.8709226279 449.964602965 20.8709226279 459.108515695 c 0
 20.8709226279 468.620649573 25.7051178205 477.819268985 33.4432895011 484.548113924 c 2
 56.3485159784 504.465702165 l 2
 63.5084600599 510.997356119 71.8148132442 515.25 81 515.25 c 0
 90.3434895165 515.25 98.7185385021 510.82112772 105.938259469 504.203050167 c 2
 179.550044674 429.659470212 l 1
 212.504131825 448.935502793 249.786455969 459 288 459 c 0
 325.234504968 459 363.218949447 449.019567906 395.559512867 429.698875367 c 1
 469.93031875 504.06968125 l 2
 476.865695621 511.005058121 485.282550588 515.379465974 494.545092156 515.379465974 c 0
 503.222202115 515.379465974 512.026441496 511.514536282 518.738885387 505.385783164 c 2
 541.606185599 484.50694384 l 2
 549.609613528 477.681590479 554.878751001 468.967355433 554.878751001 459.139859889 c 0
 554.878751001 449.744393119 550.079933758 441.405398096 542.923590326 434.784227826 c 2
 466.641420017 358.502057517 l 1
 485.982064493 325.655738958 497 288.390620041 497 250 c 0
175 250 m 0
 175 187.590357083 225.402580434 138 288 138 c 0
 350.51950263 138 400 187.48049737 400 250 c 0
 400 312.597419566 350.409642917 363 288 363 c 0
 225.512565463 363 175 312.487434537 175 250 c 0
EndSplineSet
Validated: 33
PickledDataWithLists: "(dp0
Vcom.schriftgestaltung.Glyphs.lastChange\\u000d\\u000d\\u000d
p1
V2015-12-22 14:02:18 +0000\\u000d\\u000d\\u000d
p2
s."
EndChar

StartChar: d
Encoding: 100 100 183
GlifName: d
Width: 575
VWidth: 0
Flags: W
AnchorPoint: "mark-topright" 490 700 basechar 0
AnchorPoint: "mark-bottom" 288 0 basechar 0
LayerCount: 2
Back
SplineSet
490 725 m 258
 490 40 l 258
 490 31 485 23 477 19 c 257
 430 0 379 -10 328 -10 c 256
 202 -10 85 60 85 250 c 256
 85 440 202 510 328 510 c 256
 354 510 380 507 405 502 c 257
 405 725 l 258
 405 741 414 750 430 750 c 258
 465 750 l 258
 481 750 490 741 490 725 c 258
405 77 m 257
 405 429 l 257
 383 433 360 436 338 436 c 256
 250 436 171 395 171 250 c 256
 171 114 239 68 328 68 c 256
 355 68 379 71 405 77 c 257
EndSplineSet
Fore
Refer: 155 98 N -1 0 0 1 575 0 2
EndChar

StartChar: d.hex
Encoding: 65549 -1 184
GlifName: d.hex
Width: 575
VWidth: 0
Flags: W
AnchorPoint: "center" 288 250 basechar 0
AnchorPoint: "top" 409 520 basechar 0
AnchorPoint: "topright" 565 500 basechar 0
LayerCount: 2
Fore
SplineSet
112.299505596 892.614380323 m 0
 120.429383125 886.024900642 124 875.92286565 124 865 c 2
 124 819 l 2
 124 807.680679758 120.49077603 797.434582054 112.147103874 790.935300585 c 0
 105.638298075 785.865283436 97.5384556952 784 89 784 c 2
 54 784 l 2
 42.6806797579 784 32.4345820537 787.50922397 25.9353005852 795.852896126 c 0
 20.8652834364 802.361701925 19 810.461544305 19 819 c 2
 19 865 l 2
 19 875.92286565 22.5706168755 886.024900642 30.700494404 892.614380323 c 0
 37.0967468189 897.798711228 45.2466187476 900 54 900 c 2
 89 900 l 2
 97.7533812524 900 105.903253181 897.798711228 112.299505596 892.614380323 c 0
256.299505596 892.614380323 m 0
 264.429383125 886.024900642 268 875.92286565 268 865 c 2
 268 819 l 2
 268 807.680679758 264.49077603 797.434582054 256.147103874 790.935300585 c 0
 249.638298075 785.865283436 241.538455695 784 233 784 c 2
 198 784 l 2
 186.680679758 784 176.434582054 787.50922397 169.935300585 795.852896126 c 0
 164.865283436 802.361701925 163 810.461544305 163 819 c 2
 163 865 l 2
 163 875.92286565 166.570616875 886.024900642 174.700494404 892.614380323 c 0
 181.096746819 897.798711228 189.246618748 900 198 900 c 2
 233 900 l 2
 241.753381252 900 249.903253181 897.798711228 256.299505596 892.614380323 c 0
548.614380323 888.299505596 m 0
 553.798711228 881.903253181 556 873.753381252 556 865 c 2
 556 819 l 2
 556 807.680679758 552.49077603 797.434582054 544.147103874 790.935300585 c 0
 537.638298075 785.865283436 529.538455695 784 521 784 c 2
 486 784 l 2
 474.680679758 784 464.434582054 787.50922397 457.935300585 795.852896126 c 0
 452.865283436 802.361701925 451 810.461544305 451 819 c 2
 451 865 l 2
 451 873.753381252 453.201288772 881.903253181 458.385619677 888.299505596 c 0
 464.975099358 896.429383125 475.07713435 900 486 900 c 2
 521 900 l 2
 531.92286565 900 542.024900642 896.429383125 548.614380323 888.299505596 c 0
492.614380323 738.599518273 m 0
 497.798711228 732.36727233 500 724.426371477 500 715.897435897 c 2
 500 48.4615384615 l 2
 500 35.7687529575 492.941277876 23.9801561239 481.108399137 19.1069145759 c 0
 433.191812626 -0.627006930026 380.482926956 -10 328 -10 c 0
 270.384933158 -10 213.978614648 3.92440880007 168.844631155 36.964167021 c 0
 112.211364311 78.421829273 75 149.124194012 75 255 c 0
 75 360.875805988 112.211364311 431.578170727 168.844631155 473.035832979 c 0
 213.978614648 506.0755912 270.384933158 520 328 520 c 0
 350.627274221 520 373.149579242 517.79864749 395 514.034367879 c 1
 395 716.458333333 l 2
 395 724.846990367 397.201288772 732.657284299 402.385619677 738.787026196 c 0
 408.975099358 746.578158828 419.07713435 750 430 750 c 2
 465 750 l 2
 475.92286565 750 486.024900642 746.520937403 492.614380323 738.599518273 c 0
238.07895638 408.124873954 m 0
 204.539317833 383.345588759 181 338.602867101 181 260 c 0
 181 148.534985174 227.121503689 88 328 88 c 0
 351.548757521 88 372.572574352 90.3214822862 395 95.0354137038 c 1
 395 430.593746052 l 1
 375.917393867 433.782891512 339.739936172 435.992766426 338 436 c 0
 300.214557777 436.157088396 265.130723463 428.110880978 238.07895638 408.124873954 c 0
EndSplineSet
Validated: 1
PickledDataWithLists: "(dp0
Vcom.schriftgestaltung.Glyphs.lastChange\\u000d\\u000d\\u000d
p1
V2016-06-09 18:35:34 +0000\\u000d\\u000d\\u000d
p2
s."
EndChar

StartChar: dagger
Encoding: 8224 8224 185
GlifName: dagger
Width: 575
VWidth: 0
Flags: HMW
LayerCount: 2
Fore
SplineSet
534 564 m 2
 534 537 l 2
 534 528.461544305 532.134716564 520.361701925 527.064699415 513.852896126 c 0
 520.565417946 505.50922397 510.319320242 502 499 502 c 2
 340 502 l 1
 340 -124 l 2
 340 -132.538455695 338.134716564 -140.638298075 333.064699415 -147.147103874 c 0
 326.565417946 -155.49077603 316.319320242 -159 305 -159 c 2
 270 -159 l 2
 259.07713435 -159 248.975099358 -155.429383125 242.385619677 -147.299505596 c 0
 237.201288772 -140.903253181 235 -132.753381252 235 -124 c 2
 235 502 l 1
 76 502 l 2
 67.2466187476 502 59.0967468189 504.201288772 52.700494404 509.385619677 c 0
 44.5706168755 515.975099358 41 526.07713435 41 537 c 2
 41 563 l 2
 41 572.087652508 43.1277328296 580.429674001 48.2866813476 587.003983395 c 0
 54.8724350712 595.396542929 65.0775920563 599 76 599 c 2
 235 599 l 1
 235 774 l 2
 235 784.92286565 238.570616875 795.024900642 246.700494404 801.614380323 c 0
 253.096746819 806.798711228 261.246618748 809 270 809 c 2
 305 809 l 2
 313.8687789 809 322.098627045 807.198617029 328.63518419 802.004466922 c 0
 337.021078242 795.340776615 340 785.020940777 340 774 c 2
 340 599 l 1
 499 599 l 2
 510.319320242 599 520.565417946 595.49077603 527.064699415 587.147103874 c 0
 532.134716564 580.638298075 534 572.538455695 534 564 c 2
EndSplineSet
Validated: 1
PickledDataWithLists: "(dp0
Vcom.schriftgestaltung.Glyphs.lastChange\\u000d\\u000d\\u000d
p1
V2015-12-22 14:26:24 +0000\\u000d\\u000d\\u000d
p2
s."
EndChar

StartChar: daggerdbl
Encoding: 8225 8225 186
GlifName: daggerdbl
Width: 575
VWidth: 0
Flags: HMW
LayerCount: 2
Fore
SplineSet
340 599 m 1
 499 599 l 2
 510.319320242 599 520.565417946 595.49077603 527.064699415 587.147103874 c 0
 532.134716564 580.638298075 534 572.538455695 534 564 c 2
 534 537 l 2
 534 528.461544305 532.134716564 520.361701925 527.064699415 513.852896126 c 0
 520.565417946 505.50922397 510.319320242 502 499 502 c 2
 340 502 l 1
 340 148 l 1
 499 148 l 2
 510.020940777 148 520.340776615 145.021078242 527.004466922 136.63518419 c 0
 532.198617029 130.098627045 534 121.8687789 534 113 c 2
 534 87 l 2
 534 78.4615443048 532.134716564 70.361701925 527.064699415 63.8528961258 c 0
 520.565417946 55.5092239702 510.319320242 52 499 52 c 2
 340 52 l 1
 340 -124 l 2
 340 -132.8687789 338.198617029 -141.098627045 333.004466922 -147.63518419 c 0
 326.340776615 -156.021078242 316.020940777 -159 305 -159 c 2
 270 -159 l 2
 259.07713435 -159 248.975099358 -155.429383125 242.385619677 -147.299505596 c 0
 237.201288772 -140.903253181 235 -132.753381252 235 -124 c 2
 235 52 l 1
 76 52 l 2
 65.07713435 52 54.9750993576 55.5706168755 48.3856196766 63.700494404 c 0
 43.2012887719 70.0967468189 41 78.2466187476 41 87 c 2
 41 113 l 2
 41 124.319320242 44.5092239702 134.565417946 52.8528961258 141.064699415 c 0
 59.361701925 146.134716564 67.4615443048 148 76 148 c 2
 235 148 l 1
 235 502 l 1
 76 502 l 2
 67.2466187476 502 59.0967468189 504.201288772 52.700494404 509.385619677 c 0
 44.5706168755 515.975099358 41 526.07713435 41 537 c 2
 41 563 l 2
 41 572.087652508 43.1277328296 580.429674001 48.2866813476 587.003983395 c 0
 54.8724350712 595.396542929 65.0775920563 599 76 599 c 2
 235 599 l 1
 235 774 l 2
 235 784.92286565 238.570616875 795.024900642 246.700494404 801.614380323 c 0
 253.096746819 806.798711228 261.246618748 809 270 809 c 2
 305 809 l 2
 313.8687789 809 322.098627045 807.198617029 328.63518419 802.004466922 c 0
 337.021078242 795.340776615 340 785.020940777 340 774 c 2
 340 599 l 1
EndSplineSet
Validated: 1
PickledDataWithLists: "(dp0
Vcom.schriftgestaltung.Glyphs.lastChange\\u000d\\u000d\\u000d
p1
V2015-12-22 14:32:11 +0000\\u000d\\u000d\\u000d
p2
s."
EndChar

StartChar: degree
Encoding: 176 176 189
GlifName: degree
Width: 575
VWidth: 0
Flags: HMW
LayerCount: 2
Fore
SplineSet
95 528 m 0
 95 637.57801771 179.805333772 720 291 720 c 0
 398.518182624 720 480 637.255073116 480 528 c 0
 480 418.744926884 398.518182624 336 291 336 c 0
 179.805333772 336 95 418.42198229 95 528 c 0
200 528 m 0
 200 472.798696142 237.961279445 433 288 433 c 0
 336.959663908 433 375 472.750509976 375 528 c 0
 375 583.249490024 336.959663908 623 288 623 c 0
 237.961279445 623 200 583.201303858 200 528 c 0
EndSplineSet
PickledDataWithLists: "(dp0
Vcom.schriftgestaltung.Glyphs.lastChange\\u000d\\u000d\\u000d
p1
V2016-05-30 08:37:06 +0000\\u000d\\u000d\\u000d
p2
s."
EndChar

StartChar: delta
Encoding: 948 948 190
GlifName: delta
Width: 575
VWidth: 0
Flags: W
AnchorPoint: "mark-top" 288 700 basechar 0
LayerCount: 2
Back
SplineSet
-321.7734375 395.434570312 m 0
 -363.395507812 391.161132812 -392.948242188 375.365234375 -415.780273438 350.243164062 c 0
 -444.194335938 318.977539062 -460.294921875 273.19921875 -460.294921875 227.1953125 c 0
 -460.294921875 182.228515625 -445.3046875 141.59375 -419.12109375 113.504882812 c 0
 -373.051757812 64.08203125 -284.552734375 50.98828125 -227.036132812 95.0859375 c 0
 -209.563476562 108.482421875 -194.763671875 127.920898438 -185.056640625 150.32421875 c 0
 -175.258789062 172.940429688 -170.140625 198.693359375 -169.076171875 225.115234375 c 0
 -167.37890625 267.20703125 -174.9609375 305.206054688 -190.368164062 342.077148438 c 0
 -198.260742188 360.966796875 -208.329101562 379.287109375 -219.8984375 397.188476562 c 1
 -258.604492188 397.188476562 l 2
 -280.30078125 397.188476562 -302.916015625 397.37109375 -321.7734375 395.434570312 c 0
-322.260742188 624.688476562 m 1
 -303.444335938 610.592773438 -285.40625 595.586914062 -268.15625 579.538085938 c 0
 -233.427734375 547.224609375 -201.911132812 511.875976562 -173.541992188 474.440429688 c 0
 -149.537109375 442.763671875 -127.045898438 408.08203125 -110.840820312 369.299804688 c 0
 -79.0263671875 293.159179688 -72.30078125 199.787109375 -105.899414062 122.235351562 c 0
 -120.026367188 89.6279296875 -142.068359375 59.3720703125 -172.172851562 36.291015625 c 0
 -266.666015625 -36.15625 -407.998046875 -17.7548828125 -484.087890625 63.8720703125 c 0
 -526.229492188 109.081054688 -545.294921875 165.57421875 -545.294921875 227.1953125 c 0
 -545.294921875 288.478515625 -525.068359375 351.116210938 -481.428710938 399.133789062 c 0
 -462.463867188 420.001953125 -439.29296875 437.514648438 -413 450 c 0
 -372.329101562 469.311523438 -332.192382812 474.049804688 -278.950195312 474.196289062 c 1
 -306.87890625 505.997070312 -338.001953125 535.870117188 -371.96875 562.061523438 c 0
 -397.4921875 581.221679688 -425.4140625 599.184570312 -455.604492188 615.688476562 c 0
 -467.604492188 621.688476562 -473.604492188 630.688476562 -473.604492188 644.688476562 c 2
 -473.604492188 676.688476562 l 2
 -473.604492188 692.688476562 -464.604492188 701.688476562 -448.604492188 701.688476562 c 2
 -138.604492188 701.688476562 l 2
 -122.604492188 701.688476562 -113.604492188 692.688476562 -113.604492188 676.688476562 c 2
 -113.604492188 649.688476562 l 2
 -113.604492188 633.688476562 -122.604492188 624.688476562 -138.604492188 624.688476562 c 2
 -322.260742188 624.688476562 l 1
718 625 m 0
 753.813476562 603.17578125 787.295898438 577.568359375 818 549 c 0
 850.87109375 518.416015625 880.881835938 484.784179688 908 449 c 0
 930.814453125 418.893554688 951.436523438 386.853515625 966 352 c 0
 983.37890625 310.407226562 991.815429688 265.041015625 990 220 c 0
 988.79296875 190.047851562 983.04296875 160.09765625 971.125976562 132.591796875 c 0
 959.209960938 105.0859375 940.7890625 80.2392578125 917 62 c 0
 885.041992188 37.498046875 844.268554688 25.609375 804 26 c 0
 752.265625 26.501953125 700.27734375 47.1552734375 665 85 c 0
 632.795898438 119.548828125 615.89453125 166.807617188 614 214 c 0
 611.723632812 270.688476562 629.842773438 329.014648438 668 371 c 0
 683.556640625 388.1171875 702.3984375 402.267578125 723.291992188 412.188476562 c 0
 744.186523438 422.110351562 766.991210938 427.63671875 790 430 c 0
 812.568359375 432.317382812 835.313476562 432 858 432 c 2
 904 432 l 1025
  Spiro
    718 625 {
    818 549 o
    908 449 o
    966 352 o
    990 220 o
    917 62 o
    804 26 o
    665 85 o
    614 214 o
    668 371 o
    790 430 o
    858 432 [
    904 432 v
    0 0 z
  EndSpiro
150 238 m 256
 150 130 202 62 285 62 c 256
 378 62 425 123 425 243 c 256
 425 289 414 336 392 382 c 257
 356 389 321 393 285 393 c 256
 202 393 150 333 150 238 c 256
  Spiro
    150 238 o
    166.523 144.449 o
    213.171 83.5874 o
    285 62 o
    362.567 82.2188 o
    409.402 142.821 o
    425 243 o
    421.341 289.213 o
    410.319 335.787 o
    392 382 v
    356.295 387.958 o
    320.705 391.706 o
    285 393 o
    213.171 373.963 o
    166.523 320.339 o
    0 0 z
  EndSpiro
477 623 m 258
 264 623 l 257
 425 515 510 365 510 241 c 256
 510 72 434 -15 285 -15 c 256
 149 -15 65 82 65 238 c 256
 65 382 149 471 285 471 c 256
 305 471 322 470 338 467 c 257
 294 522 235 573 160 614 c 256
 148 620 142 629 142 643 c 258
 142 675 l 258
 142 691 151 700 167 700 c 258
 477 700 l 258
 493 700 502 691 502 675 c 258
 502 648 l 258
 502 632 493 623 477 623 c 258
  Spiro
    477 623 [
    264 623 v
    399.224 503.647 o
    482.056 371.014 o
    510 241 o
    484.828 99.6323 o
    409.456 13.7574 o
    285 -15 o
    167.616 15.8655 o
    91.7624 103.187 o
    65 238 o
    91.7624 362.304 o
    167.616 442.648 o
    285 471 o
    304.056 470.63 o
    321.609 469.369 o
    338 467 v
    289.017 520.393 o
    229.639 569.936 o
    160 614 o
    150.008 621.066 o
    143.996 630.603 o
    142 643 [
    142 675 ]
    144.92 688.581 o
    153.419 697.08 o
    167 700 [
    477 700 ]
    490.581 697.08 o
    499.08 688.581 o
    502 675 [
    502 648 ]
    499.08 634.419 o
    490.581 625.92 o
    0 0 z
  EndSpiro
EndSplineSet
Fore
SplineSet
285 393 m 0
 208.226396113 393.309989463 160 339.056023298 160 248 c 0
 160 142.917418993 209.218852231 82 285 82 c 0
 334.121407356 82 367.64663917 99.3424540869 388.727249511 133.391895967 c 0
 405.798596433 160.965567955 415 200.774200386 415 253 c 0
 415 295.866099873 405.099625974 339.820079525 385.116974919 383.13130003 c 1
 351.362506151 389.445877731 288.29502458 392.98669565 285 393 c 0
155.365186801 595.136487225 m 0
 140.625905562 602.573665853 132 615.6296166 132 633 c 2
 132 665 l 2
 132 675.92286565 135.570616875 686.024900642 143.700494404 692.614380323 c 0
 150.096746819 697.798711228 158.246618748 700 167 700 c 2
 477 700 l 2
 487.92286565 700 498.024900642 696.429383125 504.614380323 688.299505596 c 0
 509.798711228 681.903253181 512 673.753381252 512 665 c 2
 512 638 l 2
 512 629.246618748 509.798711228 621.096746819 504.614380323 614.700494404 c 0
 498.024900642 606.570616875 487.92286565 603 477 603 c 2
 295.616989021 603 l 1
 441.9013446 498.711507295 520 360.263586926 520 242.661442006 c 0
 520 168.669511054 504.807372583 109.524110439 473.408933853 66.3196274833 c 0
 433.941626527 12.0123219111 369.928686928 -15 285 -15 c 0
 142.805989965 -15 55 84.8169215678 55 239.652602084 c 0
 55 383.519759225 143.483774267 474.93998728 285 474.93998728 c 0
 295.246089998 474.93998728 304.811871739 474.692031576 313.94024477 474.053946573 c 1
 272.868607384 519.099758369 220.267234169 560.761344237 155.365186801 595.136487225 c 0
EndSplineSet
PickledDataWithLists: "(dp0
Vcom.schriftgestaltung.Glyphs.lastChange\\u000d\\u000d\\u000d
p1
V2016-05-30 08:32:37 +0000\\u000d\\u000d\\u000d
p2
s."
EndChar

StartChar: dieresis
Encoding: 168 168 191
GlifName: dieresis
Width: 575
VWidth: 0
GlyphClass: 2
Flags: HMW
LayerCount: 2
Fore
SplineSet
237 675 m 2
 237 629 l 2
 237 618.07713435 233.429383125 607.975099358 225.299505596 601.385619677 c 0
 218.903253181 596.201288772 210.753381252 594 202 594 c 2
 167 594 l 2
 158.246618748 594 150.096746819 596.201288772 143.700494404 601.385619677 c 0
 135.570616875 607.975099358 132 618.07713435 132 629 c 2
 132 675 l 2
 132 685.92286565 135.570616875 696.024900642 143.700494404 702.614380323 c 0
 150.096746819 707.798711228 158.246618748 710 167 710 c 2
 202 710 l 2
 210.753381252 710 218.903253181 707.798711228 225.299505596 702.614380323 c 0
 233.429383125 696.024900642 237 685.92286565 237 675 c 2
444 675 m 2
 444 629 l 2
 444 620.246618748 441.798711228 612.096746819 436.614380323 605.700494404 c 0
 430.024900642 597.570616875 419.92286565 594 409 594 c 2
 374 594 l 2
 363.07713435 594 352.975099358 597.570616875 346.385619677 605.700494404 c 0
 341.201288772 612.096746819 339 620.246618748 339 629 c 2
 339 675 l 2
 339 683.753381252 341.201288772 691.903253181 346.385619677 698.299505596 c 0
 352.975099358 706.429383125 363.07713435 710 374 710 c 2
 409 710 l 2
 419.92286565 710 430.024900642 706.429383125 436.614380323 698.299505596 c 0
 441.798711228 691.903253181 444 683.753381252 444 675 c 2
EndSplineSet
PickledDataWithLists: "(dp0
Vcom.schriftgestaltung.Glyphs.lastChange\\u000d\\u000d\\u000d
p1
V2015-12-22 16:32:41 +0000\\u000d\\u000d\\u000d
p2
s."
EndChar

StartChar: divide
Encoding: 247 247 192
GlifName: divide
Width: 575
VWidth: 0
Flags: HMW
LayerCount: 2
Fore
SplineSet
340 545 m 2
 340 499 l 2
 340 490.246618748 337.798711228 482.096746819 332.614380323 475.700494404 c 0
 326.024900642 467.570616875 315.92286565 464 305 464 c 2
 270 464 l 2
 261.246618748 464 253.096746819 466.201288772 246.700494404 471.385619677 c 0
 238.570616875 477.975099358 235 488.07713435 235 499 c 2
 235 545 l 2
 235 555.92286565 238.570616875 566.024900642 246.700494404 572.614380323 c 0
 253.096746819 577.798711228 261.246618748 580 270 580 c 2
 305 580 l 2
 315.92286565 580 326.024900642 576.429383125 332.614380323 568.299505596 c 0
 337.798711228 561.903253181 340 553.753381252 340 545 c 2
340 122 m 2
 340 75 l 2
 340 66.2466187476 337.798711228 58.0967468189 332.614380323 51.700494404 c 0
 326.024900642 43.5706168755 315.92286565 40 305 40 c 2
 270 40 l 2
 261.246618748 40 253.096746819 42.2012887719 246.700494404 47.3856196766 c 0
 238.570616875 53.9750993576 235 64.07713435 235 75 c 2
 235 122 l 2
 235 132.92286565 238.570616875 143.024900642 246.700494404 149.614380323 c 0
 253.096746819 154.798711228 261.246618748 157 270 157 c 2
 305 157 l 2
 315.92286565 157 326.024900642 153.429383125 332.614380323 145.299505596 c 0
 337.798711228 138.903253181 340 130.753381252 340 122 c 2
75 297 m 2
 75 323 l 2
 75 331.760887543 77.1865774225 339.969642283 82.2300902657 346.519658962 c 0
 88.6569180727 354.866188582 98.7782098794 359 110 359 c 2
 465 359 l 2
 475.92286565 359 486.024900642 355.429383125 492.614380323 347.299505596 c 0
 497.798711228 340.903253181 500 332.753381252 500 324 c 2
 500 297 l 2
 500 288.246618748 497.798711228 280.096746819 492.614380323 273.700494404 c 0
 486.024900642 265.570616875 475.92286565 262 465 262 c 2
 110 262 l 2
 101.246618748 262 93.0967468189 264.201288772 86.700494404 269.385619677 c 0
 78.5706168755 275.975099358 75 286.07713435 75 297 c 2
EndSplineSet
PickledDataWithLists: "(dp0
Vcom.schriftgestaltung.Glyphs.lastChange\\u000d\\u000d\\u000d
p1
V2015-12-22 14:06:58 +0000\\u000d\\u000d\\u000d
p2
s."
EndChar

StartChar: dkshade
Encoding: 9619 9619 193
GlifName: dkshade
Width: 575
VWidth: 0
Flags: HMW
LayerCount: 2
Fore
SplineSet
-10 -260 m 1
 -10 -151.637372887 l 1
 44.1813135565 -260 l 1
 -10 -260 l 1
-10 -110.362627113 m 1
 -10 -9.63737288698 l 1
 115.181313557 -260 l 1
 64.8186864435 -260 l 1
 -10 -110.362627113 l 1
-10 31.637372887 m 1
 -10 132.362627113 l 1
 186.181313557 -260 l 1
 135.818686443 -260 l 1
 -10 31.637372887 l 1
-10 173.637372887 m 1
 -10 274.362627113 l 1
 257.181313557 -260 l 1
 206.818686443 -260 l 1
 -10 173.637372887 l 1
-10 315.637372887 m 1
 -10 416.362627113 l 1
 328.181313557 -260 l 1
 312 -260 l 1
 284 -260 l 1
 277.818686443 -260 l 1
 -10 315.637372887 l 1
-10 457.637372887 m 1
 -10 558.362627113 l 1
 399.181313557 -260 l 1
 383 -260 l 1
 355 -260 l 1
 348.818686443 -260 l 1
 -10 457.637372887 l 1
-10 599.637372887 m 1
 -10 700.362627113 l 1
 470.181313557 -260 l 1
 454 -260 l 1
 426 -260 l 1
 419.818686443 -260 l 1
 -10 599.637372887 l 1
-10 741.637372887 m 1
 -10 842.362627113 l 1
 541.181313557 -260 l 1
 525 -260 l 1
 497 -260 l 1
 490.818686443 -260 l 1
 -10 741.637372887 l 1
0 910 m 1
 28 910 l 1
 34.1813135565 910 l 1
 585 -191.637372887 l 1
 585 -292.362627113 l 1
 -16.1813135565 910 l 1
 0 910 l 1
71 910 m 1
 99 910 l 1
 105.181313557 910 l 1
 585 -49.637372887 l 1
 585 -150.362627113 l 1
 54.8186864435 910 l 1
 71 910 l 1
142 910 m 2
 153.393771186 910 164.787542371 910 176.181313557 910 c 1
 585 92.362627113 l 1
 585 -8.36262711302 l 1
 125.818686443 910 l 1
 142 910 l 2
213 910 m 1
 241 910 l 1
 247.181313557 910 l 1
 585 234.362627113 l 1
 585 133.637372887 l 1
 196.818686443 910 l 1
 213 910 l 1
267.818686443 910 m 1
 318.181313557 910 l 1
 585 376.362627113 l 1
 585 275.637372887 l 1
 267.818686443 910 l 1
338.818686443 910 m 1
 389.181313557 910 l 1
 585 518.362627113 l 1
 585 417.637372887 l 1
 338.818686443 910 l 1
409.818686443 910 m 1
 460.181313557 910 l 1
 585 660.362627113 l 1
 585 559.637372887 l 1
 409.818686443 910 l 1
480.818686443 910 m 1
 495.545790962 910 510.272895481 910 525 910 c 2
 531.181313557 910 l 1
 585 802.362627113 l 1
 585 701.637372887 l 1
 480.818686443 910 l 1
EndSplineSet
Validated: 1
PickledDataWithLists: "(dp0
Vcom.schriftgestaltung.Glyphs.lastChange\\u000d\\u000d\\u000d
p1
V2016-06-10 08:26:49 +0000\\u000d\\u000d\\u000d
p2
s."
EndChar

StartChar: dnblock
Encoding: 9604 9604 194
GlifName: dnblock
Width: 575
VWidth: 0
Flags: HMW
LayerCount: 2
Fore
SplineSet
-10 -260 m 1
 -10 335 l 1
 585 335 l 1
 585 -260 l 1
 -10 -260 l 1
EndSplineSet
Validated: 1
PickledDataWithLists: "(dp0
Vcom.schriftgestaltung.Glyphs.lastChange\\u000d\\u000d\\u000d
p1
V2016-06-10 08:26:49 +0000\\u000d\\u000d\\u000d
p2
s."
EndChar

StartChar: dollar
Encoding: 36 36 195
GlifName: dollar
Width: 575
VWidth: 0
Flags: W
LayerCount: 2
Back
SplineSet
288 343 m 256
 437 326 518 270 518 166 c 256
 518 69 452 10 330 -6 c 257
 330 -175 l 258
 330 -191 321 -200 305 -200 c 258
 270 -200 l 258
 254 -200 245 -191 245 -175 c 258
 245 -10 l 257
 206 -9 140 -7 82 3 c 256
 66 6 59 17 62 33 c 257
 68 59 l 258
 72 75 82 81 98 79 c 257
 159 68 230 67 259 67 c 256
 371 67 432 104 432 172 c 256
 432 224 381 256 288 266 c 256
 141 282 60 323 60 438 c 256
 60 537 124 595 245 607 c 257
 245 775 l 258
 245 791 254 800 270 800 c 258
 305 800 l 258
 321 800 330 791 330 775 c 258
 330 609 l 257
 365 608 412 605 454 598 c 257
 470 594 477 583 473 567 c 258
 466 541 l 258
 462 526 452 520 436 523 c 256
 385 532 321 534 297 534 c 256
 198 534 145 502 145 439 c 256
 145 376 200 353 288 343 c 256
EndSplineSet
Fore
SplineSet
235 48 m 1
 340 48 l 1
 340 -130 l 2
 340 -138.753381252 337.798711228 -146.903253181 332.614380323 -153.299505596 c 0
 326.024900642 -161.429383125 315.92286565 -165 305 -165 c 2
 270 -165 l 2
 259.07713435 -165 248.975099358 -161.429383125 242.385619677 -153.299505596 c 0
 237.201288772 -146.903253181 235 -138.753381252 235 -130 c 2
 235 48 l 1
340 765 m 2
 340 581 l 1
 235 581 l 1
 235 765 l 2
 235 775.92286565 238.570616875 786.024900642 246.700494404 792.614380323 c 0
 253.096746819 797.798711228 261.246618748 800 270 800 c 2
 305 800 l 2
 315.92286565 800 326.024900642 796.429383125 332.614380323 788.299505596 c 0
 337.798711228 781.903253181 340 773.753381252 340 765 c 2
97.1478955852 20.7690271986 m 0
 83.8501163916 26.1418772959 75.3264101108 37.0550887868 75.3264101108 50.5607300001 c 0
 75.3264101108 55.9868201862 76.5731998446 61.3632626423 78.7111304313 66.7080891091 c 2
 88.7111304313 91.7080891091 l 2
 93.9836505527 104.889389413 104.383082429 114.475217796 118.50770955 114.475217796 c 0
 123.603002777 114.475217796 128.737669582 113.276622107 133.789208039 111.256006724 c 0
 170.966634644 96.0037291422 222.276453956 89 255 89 c 0
 346.228065436 89 418 131.669660725 418 200 c 0
 418 245.846443625 363.641975625 261.710809771 287.341788948 280.945827626 c 0
 192.497306719 304.85579939 72 334.571748506 72 469 c 0
 72 601.782689853 193.340544228 668 316 668 c 0
 360.386032139 668 417.275265615 658.923888008 460.116673751 640.115464924 c 0
 471.768674647 634.677864505 480.149105056 625.777988959 480.149105056 613.344713459 c 0
 480.149105056 607.627541884 478.630668161 602.199100238 476.399743454 596.570361282 c 0
 473.385930058 587.528921094 470.822624735 578.126298805 467.288869569 569.291910891 c 0
 462.168877032 556.491929548 452.440246899 546.524782204 438.305578111 546.524782204 c 0
 433.269522111 546.524782204 428.301600606 547.707254546 423.291776526 549.711184178 c 0
 389.558372144 563.205116057 352.377323037 572 316 572 c 0
 241.288030557 572 178 532.654251801 178 472 c 0
 178 414.539919604 241.73484408 395.462059743 323.584737152 373.381532512 c 0
 414.415436963 348.87826604 524 320.355122458 524 205 c 0
 524 66.0460983407 391.566710842 -10 250 -10 c 0
 200.672038036 -10 144.634031146 0.148319939277 97.1478955852 20.7690271986 c 0
EndSplineSet
EndChar

StartChar: dotaccent
Encoding: 729 729 196
GlifName: dotaccent
Width: 575
VWidth: 0
GlyphClass: 2
Flags: HMW
LayerCount: 2
Fore
SplineSet
337 675 m 2
 337 629 l 2
 337 617.979059223 334.021078242 607.659223385 325.63518419 600.995533078 c 0
 319.098627045 595.801382971 310.8687789 594 302 594 c 2
 267 594 l 2
 258.246618748 594 250.096746819 596.201288772 243.700494404 601.385619677 c 0
 235.570616875 607.975099358 232 618.07713435 232 629 c 2
 232 675 l 2
 232 685.92286565 235.570616875 696.024900642 243.700494404 702.614380323 c 0
 250.096746819 707.798711228 258.246618748 710 267 710 c 2
 302 710 l 2
 313.319320242 710 323.565417946 706.49077603 330.064699415 698.147103874 c 0
 335.134716564 691.638298075 337 683.538455695 337 675 c 2
EndSplineSet
PickledDataWithLists: "(dp0
Vcom.schriftgestaltung.Glyphs.lastChange\\u000d\\u000d\\u000d
p1
V2015-12-22 16:32:41 +0000\\u000d\\u000d\\u000d
p2
s."
EndChar

StartChar: dotlessi
Encoding: 305 305 198
GlifName: dotlessi
Width: 575
VWidth: 0
Flags: W
AnchorPoint: "mark-bottom" 288 0 basechar 0
AnchorPoint: "mark-ogonek" 460 25 basechar 0
AnchorPoint: "mark-top" 268 550 basechar 0
LayerCount: 2
Back
SplineSet
330 77 m 257
 465 77 l 258
 481 77 490 68 490 52 c 258
 490 25 l 258
 490 9 481 0 465 0 c 258
 110 0 l 258
 94 0 85 9 85 25 c 258
 85 52 l 258
 85 68 94 77 110 77 c 258
 245 77 l 257
 245 424 l 257
 143 424 l 258
 127 424 118 433 118 449 c 258
 118 475 l 258
 118 492 127 500 143 500 c 258
 305 500 l 258
 321 500 330 492 330 475 c 258
 330 77 l 257
EndSplineSet
Fore
SplineSet
503.546908383 42.3008822967 m 2
 504.996781657 37.8398308029 505.844866494 33.4523538949 505.844866494 29.0566959324 c 0
 505.844866494 14.3388725907 495.17347143 3.85835535827 479.368403363 0.282625885202 c 0
 441.308512723 -8.97518535151 409.375406124 -10 389 -10 c 0
 337.132236495 -10 296.69961565 -0.438834236847 267.577606062 21.0978112116 c 0
 230.907315822 48.2166484963 215 92.4515252673 215 152.165898618 c 2
 215 404 l 1
 113 404 l 2
 104.246618748 404 96.0967468189 406.201288772 89.700494404 411.385619677 c 0
 81.5706168755 417.975099358 78 428.07713435 78 439 c 2
 78 465 l 2
 78 475.92286565 81.5706168755 486.024900642 89.700494404 492.614380323 c 0
 96.0967468189 497.798711228 104.246618748 500 113 500 c 2
 285 500 l 2
 295.92286565 500 306.024900642 496.566789225 312.614380323 488.749769335 c 0
 317.798711228 482.59966041 320 474.763415554 320 466.346885894 c 2
 320 153.85368348 l 2
 320 129.40116426 323.860177595 113.197110715 331.3368016 103.120104696 c 0
 340.350166988 90.9718761372 356.842085965 84.1909317317 389.085473365 83.6629098741 c 0
 404.648386729 83.6663507961 427.757260579 84.6120406968 451.570239124 90.1072260958 c 0
 455.67481702 91.0938820122 459.699671212 91.6551906763 463.699056603 91.6551906763 c 0
 479.012646607 91.6551906763 490.68956983 82.2453630057 495.559790481 67.2603946607 c 2
 503.546908383 42.3008822967 l 2
EndSplineSet
EndChar

StartChar: e
Encoding: 101 101 199
GlifName: e
Width: 575
VWidth: 0
Flags: HW
AnchorPoint: "mark-top" 288 500 basechar 0
AnchorPoint: "mark-bottom" 288 0 basechar 0
AnchorPoint: "mark-ogonek" 464 25 basechar 0
LayerCount: 2
Back
SplineSet
171.525236317 227 m 1
 179.530323911 122.698914935 257.880086617 88 332 88 c 0
 363.991538299 88 406.777254843 92.8830071496 450.291910891 110.288869569 c 0
 455.343449348 112.309484951 460.396997223 113.475217796 465.49229045 113.475217796 c 0
 479.59206726 113.475217796 489.979745217 103.923089597 495.260993177 90.7776276658 c 2
 495.260993177 90.7776276658 505.235222386 66.8394775648 505.288869569 66.7080891091 c 0
 507.426800155 61.3632626423 508.673589889 55.9868201862 508.673589889 50.5607300001 c 0
 508.673589889 37.0422894318 500.133720035 26.1211946243 486.814283978 20.7537676626 c 0
 441.641219904 1.54872530301 334.429924644 -10.1941166345 327.764749472 -10.1941166345 c 1
 327.832407729 -10.1791614015 327.910773203 -10.0172784217 328 -10 c 1
 270.383476712 -10 212.136546329 3.64309313809 164.866999292 35.9432057439 c 0
 105.546467797 76.4779679155 65 145.866209438 65 250 c 0
 65 416.143456045 174.912640675 510 292 510 c 0
 398.162497938 510 510 429.449361564 510 283.020477816 c 2
 510 260.805460751 l 2
 510 252.350829712 507.798711228 244.479110409 502.614380323 238.301160124 c 0
 496.024900642 230.448752818 485.92286565 227 475 227 c 2
 171.525236317 227 l 1
404.463379373 324 m 1
 398.152512212 383.90983569 338.572100313 414 293 414 c 0
 247.19366253 414 190.624369968 382.785888903 179.380706074 324 c 1
 404.463379373 324 l 1
EndSplineSet
Fore
SplineSet
171.525390625 237 m 1
 175.530273438 132.69921875 243.994318365 88 332 88 c 3
 363.991538299 88 406.777254843 92.8830071496 450.291910891 110.288869569 c 0
 455.343449348 112.309484951 460.396997223 113.475217796 465.49229045 113.475217796 c 0
 479.59206726 113.475217796 489.979745217 103.923089597 495.260993177 90.7776276658 c 2
 495.260993177 90.7776276658 505.235222386 66.8394775648 505.288869569 66.7080891091 c 0
 507.426800155 61.3632626423 508.673589889 55.9868201862 508.673589889 50.5607300001 c 0
 508.673589889 37.0422894318 500.133720035 26.1211946243 486.814283978 20.7537676626 c 0
 445.146759641 3.0390833408 370 -10 328 -10 c 3
 270.38 -10 212.136546329 3.64309313809 164.866999292 35.9432057439 c 0
 105.546467797 76.4779679155 65 145.866209438 65 250 c 3
 65 416.143456045 174.912640675 510 292 510 c 0
 398.162497938 510 510 429.44921875 510 283.020507812 c 2
 510 270.805664062 l 2
 510 262.350585938 507.798828125 254.479492188 502.614257812 248.30078125 c 0
 496.024414062 240.44921875 485.922851562 237 475 237 c 2
 171.525390625 237 l 1
405.463867188 314 m 1
 404.15234375 373.91015625 350 414 293 414 c 3
 238 414 182.624023438 372.786132812 178.380859375 314 c 1
 405.463867188 314 l 1
EndSplineSet
PickledDataWithLists: "(dp0
Vcom.schriftgestaltung.Glyphs.lastChange\\u000d\\u000d\\u000d
p1
V2016-06-09 18:35:33 +0000\\u000d\\u000d\\u000d
p2
s."
EndChar

StartChar: e.hex
Encoding: 65550 -1 200
GlifName: e.hex
Width: 575
VWidth: 0
Flags: W
AnchorPoint: "ogonek" 518 5 basechar 0
AnchorPoint: "bottom" 288 0 basechar 0
AnchorPoint: "top" 288 550 basechar 0
LayerCount: 2
Fore
SplineSet
112.299505596 892.614380323 m 0
 120.429383125 886.024900642 124 875.92286565 124 865 c 2
 124 819 l 2
 124 807.680679758 120.49077603 797.434582054 112.147103874 790.935300585 c 0
 105.638298075 785.865283436 97.5384556952 784 89 784 c 2
 54 784 l 2
 42.6806797579 784 32.4345820537 787.50922397 25.9353005852 795.852896126 c 0
 20.8652834364 802.361701925 19 810.461544305 19 819 c 2
 19 865 l 2
 19 875.92286565 22.5706168755 886.024900642 30.700494404 892.614380323 c 0
 37.0967468189 897.798711228 45.2466187476 900 54 900 c 2
 89 900 l 2
 97.7533812524 900 105.903253181 897.798711228 112.299505596 892.614380323 c 0
256.299505596 892.614380323 m 0
 264.429383125 886.024900642 268 875.92286565 268 865 c 2
 268 819 l 2
 268 807.680679758 264.49077603 797.434582054 256.147103874 790.935300585 c 0
 249.638298075 785.865283436 241.538455695 784 233 784 c 2
 198 784 l 2
 186.680679758 784 176.434582054 787.50922397 169.935300585 795.852896126 c 0
 164.865283436 802.361701925 163 810.461544305 163 819 c 2
 163 865 l 2
 163 875.92286565 166.570616875 886.024900642 174.700494404 892.614380323 c 0
 181.096746819 897.798711228 189.246618748 900 198 900 c 2
 233 900 l 2
 241.753381252 900 249.903253181 897.798711228 256.299505596 892.614380323 c 0
404.614380323 888.299505596 m 0
 409.798711228 881.903253181 412 873.753381252 412 865 c 2
 412 819 l 2
 412 807.680679758 408.49077603 797.434582054 400.147103874 790.935300585 c 0
 393.638298075 785.865283436 385.538455695 784 377 784 c 2
 342 784 l 2
 330.680679758 784 320.434582054 787.50922397 313.935300585 795.852896126 c 0
 308.865283436 802.361701925 307 810.461544305 307 819 c 2
 307 865 l 2
 307 873.753381252 309.201288772 881.903253181 314.385619677 888.299505596 c 0
 320.975099358 896.429383125 331.07713435 900 342 900 c 2
 377 900 l 2
 387.92286565 900 398.024900642 896.429383125 404.614380323 888.299505596 c 0
500.288869569 66.7080891091 m 0
 502.426800155 61.3632626423 503.673589889 55.9868201862 503.673589889 50.5607300001 c 0
 503.673589889 37.0422908181 495.133721787 26.1211968641 481.814288498 20.7537682649 c 0
 436.973260228 1.68746269276 334.16553885 -10.2149646269 327.703196734 -10.2149646269 c 1
 327.785774649 -10.1956361137 327.884611835 -10.0230708143 328 -10 c 1
 270.384933158 -10 213.978614648 3.92440880007 168.844631155 36.964167021 c 0
 112.211364311 78.421829273 75 149.124194012 75 255 c 0
 75 423.762095022 174.492798781 520 292 520 c 0
 398.615291844 520 500 435.993792747 500 285 c 2
 500 262 l 2
 500 253.246618748 497.798711228 245.096746819 492.614380323 238.700494404 c 0
 486.024900642 230.570616875 475.92286565 227 465 227 c 2
 181.500547738 227 l 1
 185.616615639 169.496796662 208.428096047 134.069094175 239.124031905 113.271393753 c 0
 265.19100362 95.6099980832 298.00696176 88 332 88 c 0
 363.523096061 88 401.393340589 94.7060286812 445.481035119 110.364117453 c 0
 450.469588286 112.338397836 455.46058462 113.475216587 460.49229045 113.475217796 c 0
 474.59206726 113.475217796 484.979745217 103.923089597 490.260993177 90.7776276658 c 2
 490.260993177 90.7776276658 500.235222386 66.8394775648 500.288869569 66.7080891091 c 0
394.531989835 324 m 1
 389.056874642 391.446307843 337.847241155 424 293 424 c 0
 247.867698359 424 199.707688 390.186525037 189.299936885 324 c 1
 394.531989835 324 l 1
EndSplineSet
Validated: 33
PickledDataWithLists: "(dp0
Vcom.schriftgestaltung.Glyphs.lastChange\\u000d\\u000d\\u000d
p1
V2016-06-09 18:35:34 +0000\\u000d\\u000d\\u000d
p2
s."
EndChar

